<?xml version="1.0" encoding="UTF-8"?>
<svg width="102px" height="102px" viewBox="0 0 102 102" version="1.1" xmlns="http://www.w3.org/2000/svg" xmlns:xlink="http://www.w3.org/1999/xlink">
    <!-- Generator: Sketch 63.1 (92452) - https://sketch.com -->
    <title>150bar_logo</title>
    <desc>Created with Sketch.</desc>
    <g id="150bar_logo" stroke="none" stroke-width="1" fill="none" fill-rule="evenodd">
        <path d="M17.4271944,4.86167916 C29.413634,1.62055972 40.9614354,0 52.0705984,0 C62.9290252,0 73.7807544,1.54823247 84.6257859,4.64469741 C90.6999987,6.37899919 95.4205464,11.1704985 97.0640461,17.269906 C100.354682,29.4822169 102,41.1566242 102,52.293128 C102,63.2379102 100.410845,74.1743866 97.232534,85.1025572 C95.5173772,90.9998871 90.9137015,95.6156885 85.0209041,97.3463537 C74.4573377,100.448785 63.4739024,102 52.0705984,102 C40.3905479,102 28.7034571,100.372578 17.0093261,97.1177343 C11.0228812,95.4515174 6.31921607,90.8153918 4.56659871,84.8536695 C1.52219957,74.4978081 0,63.6442943 0,52.293128 C0,40.6999144 1.58780914,29.098402 4.76342742,17.4885909 C6.44741651,11.3320625 11.265784,6.5277174 17.4271944,4.86167916 Z" id="Rectangle-Copy-4" fill="#0064FF" fill-rule="nonzero"></path>
        <g id="Group" transform="translate(28.000000, 21.000000)" fill="#FFFFFF" fill-rule="nonzero">
            <path d="M9.882,27 L9.882,7.884 L7.587,7.884 L2.268,12.285 L3.78,14.094 L7.29,10.854 L7.29,27 L9.882,27 Z M21.681,27.324 C22.617,27.324 23.49,27.1755 24.3,26.8785 C25.11,26.5815 25.821,26.154 26.433,25.596 C27.045,25.038 27.5265,24.372 27.8775,23.598 C28.2285,22.824 28.404,21.96 28.404,21.006 C28.404,20.07 28.2645,19.215 27.9855,18.441 C27.7065,17.667 27.306,17.001 26.784,16.443 C26.262,15.885 25.6365,15.453 24.9075,15.147 C24.1785,14.841 23.364,14.688 22.464,14.688 C22.302,14.688 22.104,14.697 21.87,14.715 C21.636,14.733 21.3975,14.76 21.1545,14.796 C20.9115,14.832 20.673,14.877 20.439,14.931 C20.205,14.985 20.025,15.039 19.899,15.093 L19.899,15.093 L19.98,10.314 L27.729,10.314 L27.729,7.884 L17.469,7.884 L17.253,17.955 C17.901,17.631 18.5985,17.3835 19.3455,17.2125 C20.0925,17.0415 20.709,16.956 21.195,16.956 C22.563,16.956 23.6745,17.3025 24.5295,17.9955 C25.3845,18.6885 25.812,19.737 25.812,21.141 C25.812,21.753 25.713,22.302 25.515,22.788 C25.317,23.274 25.0515,23.6835 24.7185,24.0165 C24.3855,24.3495 23.9895,24.606 23.5305,24.786 C23.0715,24.966 22.59,25.056 22.086,25.056 C21.222,25.056 20.502,24.8625 19.926,24.4755 C19.35,24.0885 18.891,23.454 18.549,22.572 L18.549,22.572 L15.93,23.463 C16.38,24.705 17.127,25.659 18.171,26.325 C19.215,26.991 20.385,27.324 21.681,27.324 Z M37.53,27.324 C38.88,27.324 39.9825,27 40.8375,26.352 C41.6925,25.704 42.363,24.885 42.849,23.895 C43.335,22.905 43.668,21.834 43.848,20.682 C44.028,19.53 44.118,18.45 44.118,17.442 C44.118,16.74 44.082,16.011 44.01,15.255 C43.938,14.499 43.8075,13.7565 43.6185,13.0275 C43.4295,12.2985 43.1775,11.601 42.8625,10.935 C42.5475,10.269 42.1425,9.6885 41.6475,9.1935 C41.1525,8.6985 40.5675,8.3025 39.8925,8.0055 C39.2175,7.7085 38.43,7.56 37.53,7.56 C36.63,7.56 35.8425,7.7085 35.1675,8.0055 C34.4925,8.3025 33.9075,8.6985 33.4125,9.1935 C32.9175,9.6885 32.5125,10.269 32.1975,10.935 C31.8825,11.601 31.6305,12.2985 31.4415,13.0275 C31.2525,13.7565 31.122,14.499 31.05,15.255 C30.978,16.011 30.942,16.74 30.942,17.442 C30.942,18.45 31.032,19.53 31.212,20.682 C31.392,21.834 31.725,22.905 32.211,23.895 C32.697,24.885 33.3675,25.704 34.2225,26.352 C35.0775,27 36.18,27.324 37.53,27.324 Z M37.53,25.056 C36.63,25.056 35.9145,24.777 35.3835,24.219 C34.8525,23.661 34.452,22.9815 34.182,22.1805 C33.912,21.3795 33.7365,20.547 33.6555,19.683 C33.5745,18.819 33.534,18.072 33.534,17.442 C33.534,17.01 33.5475,16.5195 33.5745,15.9705 C33.6015,15.4215 33.6645,14.8635 33.7635,14.2965 C33.8625,13.7295 34.002,13.1805 34.182,12.6495 C34.362,12.1185 34.6005,11.6415 34.8975,11.2185 C35.1945,10.7955 35.559,10.458 35.991,10.206 C36.423,9.954 36.936,9.828 37.53,9.828 C38.124,9.828 38.637,9.954 39.069,10.206 C39.501,10.458 39.8655,10.7955 40.1625,11.2185 C40.4595,11.6415 40.698,12.1185 40.878,12.6495 C41.058,13.1805 41.1975,13.7295 41.2965,14.2965 C41.3955,14.8635 41.4585,15.4215 41.4855,15.9705 C41.5125,16.5195 41.526,17.01 41.526,17.442 C41.526,18.072 41.4855,18.819 41.4045,19.683 C41.3235,20.547 41.148,21.3795 40.878,22.1805 C40.608,22.9815 40.2075,23.661 39.6765,24.219 C39.1455,24.777 38.43,25.056 37.53,25.056 Z" id="150"></path>
            <path d="M12.8,51.288 C13.68,51.288 14.476,51.136 15.188,50.832 C15.9,50.528 16.508,50.104 17.012,49.56 C17.516,49.016 17.904,48.384 18.176,47.664 C18.448,46.944 18.584,46.16 18.584,45.312 C18.584,44.464 18.448,43.676 18.176,42.948 C17.904,42.22 17.516,41.588 17.012,41.052 C16.508,40.516 15.9,40.096 15.188,39.792 C14.476,39.488 13.68,39.336 12.8,39.336 C11.984,39.336 11.216,39.508 10.496,39.852 C9.776,40.196 9.224,40.664 8.84,41.256 L8.84,41.256 L8.792,41.256 L8.792,32.856 L6.632,32.856 L6.632,51 L8.792,51 L8.792,49.368 L8.84,49.368 C9.256,49.976 9.828,50.448 10.556,50.784 C11.284,51.12 12.032,51.288 12.8,51.288 Z M12.536,49.272 C11.96,49.272 11.44,49.172 10.976,48.972 C10.512,48.772 10.12,48.5 9.8,48.156 C9.48,47.812 9.232,47.396 9.056,46.908 C8.88,46.42 8.792,45.888 8.792,45.312 C8.792,44.736 8.88,44.204 9.056,43.716 C9.232,43.228 9.48,42.812 9.8,42.468 C10.12,42.124 10.512,41.852 10.976,41.652 C11.44,41.452 11.96,41.352 12.536,41.352 C13.112,41.352 13.632,41.452 14.096,41.652 C14.56,41.852 14.952,42.124 15.272,42.468 C15.592,42.812 15.84,43.228 16.016,43.716 C16.192,44.204 16.28,44.736 16.28,45.312 C16.28,45.888 16.192,46.42 16.016,46.908 C15.84,47.396 15.592,47.812 15.272,48.156 C14.952,48.5 14.56,48.772 14.096,48.972 C13.632,49.172 13.112,49.272 12.536,49.272 Z M24.68,51.288 C25.544,51.288 26.304,51.136 26.96,50.832 C27.616,50.528 28.184,50.008 28.664,49.272 L28.664,49.272 L28.712,49.272 C28.712,49.848 28.736,50.424 28.784,51 L28.784,51 L30.704,51 C30.672,50.696 30.648,50.376 30.632,50.04 C30.616,49.704 30.608,49.336 30.608,48.936 L30.608,48.936 L30.608,43.128 C30.608,42.632 30.516,42.156 30.332,41.7 C30.148,41.244 29.864,40.84 29.48,40.488 C29.096,40.136 28.604,39.856 28.004,39.648 C27.404,39.44 26.688,39.336 25.856,39.336 C25.056,39.336 24.256,39.476 23.456,39.756 C22.656,40.036 21.952,40.456 21.344,41.016 L21.344,41.016 L22.64,42.36 C22.832,42.216 23.032,42.064 23.24,41.904 C23.448,41.744 23.68,41.604 23.936,41.484 C24.192,41.364 24.476,41.264 24.788,41.184 C25.1,41.104 25.464,41.064 25.88,41.064 C26.344,41.064 26.744,41.132 27.08,41.268 C27.416,41.404 27.696,41.588 27.92,41.82 C28.144,42.052 28.312,42.312 28.424,42.6 C28.536,42.888 28.592,43.176 28.592,43.464 L28.592,43.464 L28.592,43.944 L27.008,43.944 C26.144,43.944 25.332,44.012 24.572,44.148 C23.812,44.284 23.148,44.508 22.58,44.82 C22.012,45.132 21.564,45.536 21.236,46.032 C20.908,46.528 20.744,47.144 20.744,47.88 C20.744,48.44 20.848,48.932 21.056,49.356 C21.264,49.78 21.548,50.136 21.908,50.424 C22.268,50.712 22.688,50.928 23.168,51.072 C23.648,51.216 24.152,51.288 24.68,51.288 Z M25.352,49.56 C24.6,49.56 24.004,49.416 23.564,49.128 C23.124,48.84 22.904,48.368 22.904,47.712 C22.904,47.264 23.044,46.896 23.324,46.608 C23.604,46.32 23.964,46.096 24.404,45.936 C24.844,45.776 25.332,45.668 25.868,45.612 C26.404,45.556 26.928,45.528 27.44,45.528 L27.44,45.528 L28.592,45.528 L28.592,46.248 C28.592,46.632 28.536,47.02 28.424,47.412 C28.312,47.804 28.128,48.16 27.872,48.48 C27.616,48.8 27.28,49.06 26.864,49.26 C26.448,49.46 25.944,49.56 25.352,49.56 Z M35.912,51 L35.912,45.288 C35.912,44.04 36.192,43.12 36.752,42.528 C37.312,41.936 38.12,41.64 39.176,41.64 C39.352,41.64 39.528,41.656 39.704,41.688 C39.88,41.72 40.056,41.76 40.232,41.808 L40.232,41.808 L40.328,39.48 C40.04,39.384 39.72,39.336 39.368,39.336 C39.016,39.336 38.664,39.388 38.312,39.492 C37.96,39.596 37.636,39.736 37.34,39.912 C37.044,40.088 36.776,40.3 36.536,40.548 C36.296,40.796 36.104,41.072 35.96,41.376 L35.96,41.376 L35.912,41.376 L35.912,39.624 L33.752,39.624 L33.752,51 L35.912,51 Z" id="bar"></path>
        </g>
    </g>
</svg>