<?xml version="1.0" encoding="UTF-8"?>
<svg width="43px" height="44px" viewBox="0 0 43 44" version="1.1" xmlns="http://www.w3.org/2000/svg" xmlns:xlink="http://www.w3.org/1999/xlink">
    <!-- Generator: Sketch 54.1 (76490) - https://sketchapp.com -->
    <title>behance</title>
    <desc>Created with Sketch.</desc>
    <g id="Page-1" stroke="none" stroke-width="1" fill="none" fill-rule="evenodd">
        <g id="Landing" transform="translate(-648.000000, -6129.000000)" fill-rule="nonzero">
            <g id="socials" transform="translate(648.000000, 6129.000000)">
                <g id="behance">
                    <ellipse id="Oval" fill="#4176FA" cx="21.5" cy="22" rx="21.5" ry="22"></ellipse>
                    <path d="M29.3437456,18.2365257 C23.1592072,18.2365257 23.1511917,24.5956477 23.1511917,24.6283455 C23.1511917,24.6283455 22.7275148,30.9953464 29.3437456,30.9953464 C29.3437456,30.9953464 34.8614698,31.3191724 34.8614698,26.56421 L32.028178,26.56421 C32.028178,26.56421 32.1220739,28.3543135 29.4380232,28.3543135 C29.4380232,28.3543135 26.6047313,28.5489242 26.6047313,25.4623351 L34.9557475,25.4623351 C34.9557475,25.4623351 35.8740959,18.2365257 29.3437456,18.2365257 Z M26.573051,23.2345545 C26.573051,23.2345545 26.9184813,20.674675 29.4067246,20.674675 C31.9026016,20.674675 31.8633241,23.2345545 31.8633241,23.2345545 L26.573051,23.2345545 Z M19.4942108,21.598485 C19.4942108,21.598485 21.9507737,21.4121472 21.9507737,18.4311364 C21.9507737,15.4583986 19.9415526,14 17.390712,14 L9,14 L9,30.6467017 L17.3899486,30.6467017 C17.3899486,30.6467017 22.5152946,30.8090086 22.5152946,25.7298264 C22.5156763,25.7298264 22.7355303,21.598485 19.4942108,21.598485 Z M12.6970585,16.956586 L17.3903303,16.956586 C17.3903303,16.956586 18.5285327,16.956586 18.5285327,18.6899608 C18.5285327,20.4233357 17.8613369,20.674675 17.0998635,20.674675 L12.6970585,20.674675 L12.6970585,16.956586 Z M17.1552087,27.6901157 L12.6970585,27.6901157 L12.6970585,23.2345514 L17.3903303,23.2345545 C17.3903303,23.2345545 19.093817,23.2184026 19.0858015,25.5269427 C19.0858015,27.4714741 17.8224044,27.6739638 17.1552087,27.6901157 Z M25.8745566,14.9801447 L25.8745566,17.0298604 L32.5304832,17.0298604 L32.5304832,14.9801447 L25.8745566,14.9801447 Z" id="Shape" fill="#F1F2F2"></path>
                </g>
            </g>
        </g>
    </g>
</svg>