<?xml version="1.0" encoding="UTF-8"?>
<svg width="102px" height="102px" viewBox="0 0 102 102" version="1.1" xmlns="http://www.w3.org/2000/svg" xmlns:xlink="http://www.w3.org/1999/xlink">
    <!-- Generator: Sketch 63.1 (92452) - https://sketch.com -->
    <title>deepart_logo</title>
    <desc>Created with Sketch.</desc>
    <g id="deepart_logo" stroke="none" stroke-width="1" fill="none" fill-rule="evenodd">
        <path d="M17.4271944,4.86167916 C29.413634,1.62055972 40.9614354,0 52.0705984,0 C62.9290252,0 73.7807544,1.54823247 84.6257859,4.64469741 C90.6999987,6.37899919 95.4205464,11.1704985 97.0640461,17.269906 C100.354682,29.4822169 102,41.1566242 102,52.293128 C102,63.2379102 100.410845,74.1743866 97.232534,85.1025572 C95.5173772,90.9998871 90.9137015,95.6156885 85.0209041,97.3463537 C74.4573377,100.448785 63.4739024,102 52.0705984,102 C40.3905479,102 28.7034571,100.372578 17.0093261,97.1177343 C11.0228812,95.4515174 6.31921607,90.8153918 4.56659871,84.8536695 C1.52219957,74.4978081 0,63.6442943 0,52.293128 C0,40.6999144 1.58780914,29.098402 4.76342742,17.4885909 C6.44741651,11.3320625 11.265784,6.5277174 17.4271944,4.86167916 Z" id="Rectangle-Copy-4" fill="#ED3C28" fill-rule="nonzero"></path>
        <g id="deepart" transform="translate(21.000000, 25.000000)" fill="#FFFFFF">
            <g id="Group" transform="translate(-1.666667, -1.104167)">
                <path d="M47.7834686,0.276041667 L34.7253806,0.276041667 L21.5673715,34.5052083 L26.5133418,34.5052083 C31.0767509,34.2241571 34.3469633,33.0385097 36.3438257,30.8974696 C38.2882818,28.8126197 40.7014463,23.216941 43.6864462,13.9841669 L47.7834686,0.276041667 Z M35.8722222,1.93229167 L45.55,1.93229167 L42.0942088,13.495088 L41.7442933,14.5683209 C39.0049093,22.8989337 36.765324,28.0090356 35.1214429,29.7716084 L35.0007378,29.8975565 C33.3228498,31.6016727 30.4863584,32.6012619 26.4615009,32.8505623 L23.9877778,32.8495104 L35.8722222,1.93229167 Z" id="Path-22-Copy-3" fill-rule="nonzero"></path>
                <path d="M35.9447139,0.276041667 C46.2567404,0.276041667 53.4149073,3.7250219 57.7507945,9.87367155 C61.0575476,14.5629233 62.5,20.5022739 62.5,26.684224 C62.5,45.2364896 53.0039152,54.7412004 34.2959663,54.9294394 L33.7262394,54.9322917 L21.6587838,54.9322917 L21.6587838,42.892008 L32.2237843,42.892008 C35.9384801,42.892008 39.0819891,42.3387969 41.9259716,40.6403664 C46.0252535,38.1922693 48.3755951,33.7475608 48.3755951,26.684224 C48.3755951,16.2932897 43.6522945,11.0003564 34.0196293,10.516246 L33.7262274,10.5030476 L19.5094444,10.5022813 L19.5101761,54.9322917 L18.1158896,54.9322917 L18.0421898,54.919019 C14.020678,54.1947777 11.1889464,52.686548 9.59668918,50.3594782 C8.06658712,48.1232477 7.38752955,44.7726075 7.51456829,40.3321274 L7.52530175,40.0052696 L7.52530175,8.8468149 L17.8433333,8.84658333 L17.8435229,0.276041667 L35.9447139,0.276041667 Z M35.9447139,1.93229167 L19.51,1.93229167 L19.5094444,8.84658333 L33.7595028,8.84745759 C44.4318702,9.2711326 49.9316822,15.200223 50.0406113,26.3449101 L50.0422618,26.684224 C50.0422618,34.3105789 47.4028959,39.3018584 42.78447,42.0599891 C39.7123316,43.8946746 36.4092438,44.5129416 32.564445,44.5467734 L32.2237843,44.548258 L23.325,44.5481562 L23.325,53.2760417 L33.7262394,53.2760417 C51.5337117,53.2760417 60.4739431,44.8501197 60.8227123,27.7373457 L60.8306516,27.2161175 L60.8333333,26.684224 C60.8333333,20.8136663 59.4691059,15.1964099 56.3859017,10.8241692 C52.4203695,5.20071364 45.8875697,2.00885105 36.2928454,1.9336513 L35.9447139,1.93229167 Z M17.8433333,10.5022812 L9.19166667,10.5028333 L9.1914089,40.035611 C9.04013444,44.1358744 9.58425921,47.1687723 10.7827595,49.1309292 L10.8787367,49.2836117 L10.9749281,49.4281932 C12.1781241,51.1866536 14.3391072,52.4267041 17.4966114,53.1211797 L17.8433333,53.1937813 L17.8433333,10.5022812 Z" id="Path-19-Copy-8" fill-rule="nonzero" opacity="0.200000003" transform="translate(34.999787, 27.604167) scale(1, -1) translate(-34.999787, -27.604167) "></path>
                <path d="M20.4877778,51.0677083 L39.1232734,4.89548388 L56.8906092,51.6030106 L55.331613,52.1886561 L39.0772222,9.45829167 L21.6158044,52.7239583 L0.456939241,52.7239583 L12.2587329,21.9746129 C14.0666265,17.1264667 15.9270301,13.5570516 17.860483,11.2558876 C19.7972948,8.9507261 22.702311,7.35127169 26.5493851,6.44313873 L26.8721548,6.36906096 L28.3745422,6.03396181 L13.6033725,45.2848409 L12.0422984,44.7046869 L25.7127778,8.3773125 L25.4343686,8.4619817 C22.7645704,9.28992669 20.721554,10.5192774 19.2907853,12.1420373 L19.1398308,12.3174095 C17.3959836,14.3929078 15.6629154,17.6845854 13.9570169,22.1895597 L13.8187606,22.5574866 L2.87611111,51.0677083 L20.4877778,51.0677083 Z" id="Path-21-Copy-3" fill-rule="nonzero"></path>
            </g>
        </g>
    </g>
</svg>