<?xml version="1.0" encoding="utf-8"?>
<!-- Generator: Adobe Illustrator 19.1.0, SVG Export Plug-In . SVG Version: 6.00 Build 0)  -->
<svg version="1.1" id="Layer_1" xmlns="http://www.w3.org/2000/svg" xmlns:xlink="http://www.w3.org/1999/xlink" x="0px" y="0px"
	 viewBox="0 0 372.5 110.1" style="enable-background:new 0 0 372.5 110.1;" xml:space="preserve">
<style type="text/css">
	.st0{fill:#7400A3;}
	.st1{opacity:0.18;fill:#AC60C6;}
	.st2{fill:#48008B;}
	.st3{opacity:0.18;fill:#FFFFFF;}
	.st4{fill:#FFFFFF;}
	.st5{font-family:'Avenir-Black';}
	.st6{font-size:12px;}
	.st7{font-family:'Avenir-Book';}
	.st8{font-size:10px;}
	.st9{font-size:32.4888px;}
</style>
<rect x="-492.3" y="-30.1" class="st0" width="444.4" height="160"/>
<rect x="-1012.3" y="-30.1" class="st0" width="500" height="500"/>
<g>
	<g>
		<g>
			<path class="st1" d="M-1377.7,214c0,0-1,16.5,9.3,26.8c10.3,10.3,21.5,4,21.5,4s6.3-11.3-4-21.5
				C-1361.2,213-1377.7,214-1377.7,214z"/>
			<path class="st1" d="M-1347.9,201.6c0,0-12,11.4-11.4,25.9c0.5,14.5,13,17.6,13,17.6s12.2-4,11.7-18.5
				C-1335.1,212.1-1347.9,201.6-1347.9,201.6z"/>
			<path class="st1" d="M-1316.2,214c0,0-16.5-1-26.8,9.3s-4,21.5-4,21.5s11.3,6.3,21.5-4C-1315.2,230.5-1316.2,214-1316.2,214z"/>
			<path class="st1" d="M-1387.7,229.6c0,0,5.9,15.4,19.5,20.5c13.6,5.1,21.2-5.3,21.2-5.3s1-12.8-12.6-17.9
				C-1373.1,221.9-1387.7,229.6-1387.7,229.6z"/>
			<path class="st1" d="M-1306.3,229.6c0,0-5.9,15.4-19.5,20.5c-13.6,5.1-21.2-5.3-21.2-5.3s-1-12.8,12.6-17.9
				C-1320.9,221.9-1306.3,229.6-1306.3,229.6z"/>
		</g>
		<g>
			
				<image style="overflow:visible;opacity:0.3;" width="342" height="309" xlink:href="E0475BD9DA404523.png"  transform="matrix(0.24 0 0 0.24 -1387.8303 194.2685)">
			</image>
			<g>
				
					<image style="overflow:visible;opacity:0.5;" width="261" height="236" xlink:href="E0475BD9DA404521.png"  transform="matrix(0.24 0 0 0.24 -1378.3503 203.7486)">
				</image>
				<g>
					<path class="st2" d="M-1331.1,223.6c-1.7-5-6.7-4.6-6.7-4.6c-3.7,0.1-9.2,6.3-9.2,6.3v-0.1c0,0-5.5-6.2-9.2-6.3
						c0,0-5-0.3-6.7,4.6c-1.7,5,2.5,8,2.8,8.5s13,13,13,13v0.1c0,0,12.7-12.5,13-13C-1333.6,231.6-1329.4,228.6-1331.1,223.6z"/>
				</g>
			</g>
		</g>
	</g>
	<g>
		<path class="st2" d="M-1286.4,238.4v-17.2h3.6c1.7,0,3.1,0.2,4.1,0.5c1.1,0.3,2.1,0.9,2.9,1.7c1.8,1.6,2.7,3.7,2.7,6.4
			c0,2.6-0.9,4.8-2.8,6.4c-0.9,0.8-1.9,1.4-2.9,1.7c-1,0.3-2.3,0.5-4,0.5H-1286.4z M-1283.8,235.9h1.2c1.2,0,2.1-0.1,2.9-0.4
			c0.8-0.3,1.5-0.7,2.1-1.2c1.3-1.2,1.9-2.7,1.9-4.6c0-1.9-0.6-3.4-1.9-4.6c-1.1-1-2.8-1.6-5-1.6h-1.2V235.9z"/>
		<path class="st2" d="M-1262.7,221.2v17.2h-2.6v-17.2H-1262.7z"/>
		<path class="st2" d="M-1253.2,220.5l4.8,11.9l4.8-11.9h2.8l-7.7,18.5l-7.5-18.5H-1253.2z"/>
		<path class="st2" d="M-1231.4,221.2v17.2h-2.6v-17.2H-1231.4z"/>
		<path class="st2" d="M-1222.8,238.4V220l12.5,13.1v-11.9h2.6v18.2l-12.5-13.1v12H-1222.8z"/>
		<path class="st2" d="M-1189.4,223.6h-6.9v4.1h6.7v2.4h-6.7v5.7h6.9v2.4h-9.5v-17.2h9.5V223.6z"/>
		<path class="st2" d="M-1177.6,230.1l-6.3-8.9h5.3l3.2,4.7l3.2-4.7h5.3l-6.3,8.9v8.3h-4.5V230.1z"/>
		<path class="st2" d="M-1162.7,229.8c0-1.3,0.2-2.5,0.7-3.6c0.5-1.1,1.1-2.1,2-2.9c0.8-0.8,1.8-1.5,3-1.9c1.2-0.5,2.4-0.7,3.8-0.7
			c1.4,0,2.7,0.2,3.8,0.7c1.2,0.5,2.2,1.1,3,1.9c0.8,0.8,1.5,1.8,2,2.9c0.5,1.1,0.7,2.3,0.7,3.6c0,1.3-0.2,2.5-0.7,3.6
			c-0.5,1.1-1.1,2.1-2,2.9c-0.8,0.8-1.9,1.5-3,1.9c-1.2,0.5-2.4,0.7-3.8,0.7c-1.4,0-2.7-0.2-3.8-0.7c-1.2-0.5-2.2-1.1-3-1.9
			c-0.8-0.8-1.5-1.8-2-2.9C-1162.5,232.2-1162.7,231-1162.7,229.8z M-1158,229.8c0,0.7,0.1,1.3,0.4,1.9c0.3,0.6,0.6,1.1,1,1.5
			c0.4,0.4,1,0.8,1.5,1c0.6,0.2,1.2,0.4,1.9,0.4c0.7,0,1.3-0.1,1.9-0.4c0.6-0.2,1.1-0.6,1.6-1c0.4-0.4,0.8-0.9,1.1-1.5
			c0.3-0.6,0.4-1.2,0.4-1.9c0-0.7-0.1-1.3-0.4-1.9c-0.3-0.6-0.6-1.1-1.1-1.5c-0.4-0.4-1-0.8-1.6-1c-0.6-0.2-1.2-0.4-1.9-0.4
			c-0.7,0-1.3,0.1-1.9,0.4c-0.6,0.2-1.1,0.6-1.5,1c-0.4,0.4-0.8,0.9-1,1.5C-1157.9,228.4-1158,229.1-1158,229.8z"/>
		<path class="st2" d="M-1131.8,220.9v9.4c0,0.5,0,1,0.1,1.5c0,0.5,0.2,1,0.3,1.4c0.2,0.4,0.5,0.8,0.9,1c0.4,0.3,1,0.4,1.7,0.4
			c0.7,0,1.3-0.1,1.7-0.4c0.4-0.3,0.7-0.6,0.9-1c0.2-0.4,0.3-0.9,0.4-1.4c0-0.5,0.1-1,0.1-1.5v-9.4h4.4v10c0,2.7-0.6,4.6-1.8,5.9
			c-1.2,1.2-3.1,1.8-5.6,1.8c-2.5,0-4.4-0.6-5.7-1.8s-1.8-3.2-1.8-5.9v-10H-1131.8z"/>
	</g>
</g>
<g>
	<g>
		<g>
			<path class="st1" d="M-1873.3,156.4c0,0-3,49.6,27.8,80.4c30.8,30.8,64.6,12,64.6,12s18.8-33.8-12-64.6
				S-1873.3,156.4-1873.3,156.4z"/>
			<path class="st1" d="M-1783.8,119.2c0,0-36,34.3-34.4,77.8s39.2,52.8,39.2,52.8s36.8-12,35.2-55.5S-1783.8,119.2-1783.8,119.2z"
				/>
			<path class="st1" d="M-1688.4,156.4c0,0-49.6-3-80.4,27.8c-30.8,30.8-12,64.6-12,64.6s33.8,18.8,64.6-12
				S-1688.4,156.4-1688.4,156.4z"/>
			<path class="st1" d="M-1903.4,203.3c0,0,17.9,46.4,58.7,61.6c40.8,15.2,63.8-15.9,63.8-15.9s3-38.6-37.8-53.8
				C-1859.5,180-1903.4,203.3-1903.4,203.3z"/>
			<path class="st1" d="M-1658.7,203.3c0,0-17.9,46.4-58.7,61.6c-40.8,15.2-63.8-15.9-63.8-15.9s-3-38.6,37.8-53.8
				C-1702.5,180-1658.7,203.3-1658.7,203.3z"/>
		</g>
		<g>
			
				<image style="overflow:visible;opacity:0.3;" width="616" height="529" xlink:href="E0475BD9DA404527.png"  transform="matrix(0.24 0 0 0.24 -1854.6304 146.2685)">
			</image>
			<g>
				
					<image style="overflow:visible;opacity:0.5;" width="533" height="455" xlink:href="E0475BD9DA404520.png"  transform="matrix(0.24 0 0 0.24 -1844.6704 155.9885)">
				</image>
				<g>
					<path class="st2" d="M-1733.3,185.4c-5.1-14.9-20.1-13.9-20.1-13.9c-11,0.2-27.5,18.9-27.5,18.9v-0.2c0,0-16.5-18.7-27.5-18.9
						c0,0-14.9-1-20.1,13.9c-5.1,14.9,7.6,24,8.6,25.4c1,1.5,39,39,39,39v0.2c0,0,38-37.5,39-39S-1728.2,200.3-1733.3,185.4z"/>
				</g>
			</g>
		</g>
	</g>
	<g>
		<path class="st2" d="M-1857.8,319.4v-17.2h3.6c1.7,0,3.1,0.2,4.1,0.5c1.1,0.3,2.1,0.9,2.9,1.7c1.8,1.6,2.7,3.7,2.7,6.4
			c0,2.6-0.9,4.8-2.8,6.4c-0.9,0.8-1.9,1.4-2.9,1.7c-1,0.3-2.3,0.5-4,0.5H-1857.8z M-1855.2,317h1.2c1.2,0,2.1-0.1,2.9-0.4
			c0.8-0.3,1.5-0.7,2.1-1.2c1.3-1.2,1.9-2.7,1.9-4.6c0-1.9-0.6-3.4-1.9-4.6c-1.1-1-2.8-1.6-5-1.6h-1.2V317z"/>
		<path class="st2" d="M-1834.1,302.2v17.2h-2.6v-17.2H-1834.1z"/>
		<path class="st2" d="M-1824.5,301.6l4.8,11.9l4.8-11.9h2.8l-7.7,18.5l-7.5-18.5H-1824.5z"/>
		<path class="st2" d="M-1802.8,302.2v17.2h-2.6v-17.2H-1802.8z"/>
		<path class="st2" d="M-1794.1,319.5v-18.4l12.5,13.1v-11.9h2.6v18.2l-12.5-13.1v12H-1794.1z"/>
		<path class="st2" d="M-1760.8,304.7h-6.9v4.1h6.7v2.4h-6.7v5.7h6.9v2.4h-9.5v-17.2h9.5V304.7z"/>
		<path class="st2" d="M-1748.9,311.2l-6.3-8.9h5.3l3.2,4.7l3.2-4.7h5.3l-6.3,8.9v8.3h-4.5V311.2z"/>
		<path class="st2" d="M-1734,310.8c0-1.3,0.2-2.5,0.7-3.6c0.5-1.1,1.1-2.1,2-2.9c0.8-0.8,1.8-1.5,3-1.9c1.2-0.5,2.4-0.7,3.8-0.7
			c1.4,0,2.7,0.2,3.8,0.7c1.2,0.5,2.2,1.1,3,1.9c0.8,0.8,1.5,1.8,2,2.9c0.5,1.1,0.7,2.3,0.7,3.6c0,1.3-0.2,2.5-0.7,3.6
			c-0.5,1.1-1.1,2.1-2,2.9c-0.8,0.8-1.8,1.5-3,1.9c-1.2,0.5-2.4,0.7-3.8,0.7c-1.4,0-2.7-0.2-3.8-0.7c-1.2-0.5-2.2-1.1-3-1.9
			c-0.8-0.8-1.5-1.8-2-2.9C-1733.8,313.3-1734,312.1-1734,310.8z M-1729.4,310.8c0,0.7,0.1,1.3,0.4,1.9c0.3,0.6,0.6,1.1,1,1.5
			c0.4,0.4,1,0.8,1.5,1c0.6,0.2,1.2,0.4,1.9,0.4c0.7,0,1.3-0.1,1.9-0.4c0.6-0.2,1.1-0.6,1.6-1c0.4-0.4,0.8-0.9,1.1-1.5
			c0.3-0.6,0.4-1.2,0.4-1.9s-0.1-1.3-0.4-1.9c-0.3-0.6-0.6-1.1-1.1-1.5c-0.4-0.4-1-0.8-1.6-1c-0.6-0.2-1.2-0.4-1.9-0.4
			c-0.7,0-1.3,0.1-1.9,0.4c-0.6,0.2-1.1,0.6-1.5,1c-0.4,0.4-0.8,0.9-1,1.5C-1729.2,309.5-1729.4,310.1-1729.4,310.8z"/>
		<path class="st2" d="M-1703.1,302v9.4c0,0.5,0,1,0.1,1.5c0,0.5,0.2,1,0.3,1.4c0.2,0.4,0.5,0.8,0.9,1c0.4,0.3,1,0.4,1.7,0.4
			c0.7,0,1.3-0.1,1.7-0.4c0.4-0.3,0.7-0.6,0.9-1c0.2-0.4,0.3-0.9,0.4-1.4c0-0.5,0.1-1,0.1-1.5V302h4.4v10c0,2.7-0.6,4.6-1.8,5.9
			c-1.2,1.2-3.1,1.8-5.6,1.8c-2.5,0-4.4-0.6-5.7-1.8c-1.2-1.2-1.8-3.2-1.8-5.9v-10H-1703.1z"/>
	</g>
</g>
<g>
	<path class="st3" d="M-854.6,156.4c0,0-3,49.6,27.8,80.4c30.8,30.8,64.6,12,64.6,12s18.8-33.8-12-64.6
		C-805,153.4-854.6,156.4-854.6,156.4z"/>
	<path class="st3" d="M-765.1,119.2c0,0-36,34.3-34.4,77.8s39.2,52.8,39.2,52.8s36.8-12,35.2-55.5S-765.1,119.2-765.1,119.2z"/>
	<path class="st3" d="M-669.7,156.4c0,0-49.6-3-80.4,27.8c-30.8,30.8-12,64.6-12,64.6s33.8,18.8,64.6-12S-669.7,156.4-669.7,156.4z"
		/>
	<path class="st3" d="M-884.7,203.3c0,0,17.9,46.4,58.7,61.6c40.8,15.2,63.8-15.9,63.8-15.9s3-38.6-37.8-53.8
		C-840.8,180-884.7,203.3-884.7,203.3z"/>
	<path class="st3" d="M-639.9,203.3c0,0-17.9,46.4-58.7,61.6c-40.8,15.2-63.8-15.9-63.8-15.9s-3-38.6,37.8-53.8
		C-683.8,180-639.9,203.3-639.9,203.3z"/>
</g>
<g>
	<g>
		<path class="st3" d="M-393.3,37.3c0,0-1,16.5,9.3,26.8c10.3,10.3,21.5,4,21.5,4s6.3-11.3-4-21.5
			C-376.8,36.3-393.3,37.3-393.3,37.3z"/>
		<path class="st3" d="M-363.5,24.9c0,0-12,11.4-11.4,25.9s13,17.6,13,17.6s12.2-4,11.7-18.5S-363.5,24.9-363.5,24.9z"/>
		<path class="st3" d="M-331.8,37.3c0,0-16.5-1-26.8,9.3s-4,21.5-4,21.5s11.3,6.3,21.5-4S-331.8,37.3-331.8,37.3z"/>
		<path class="st3" d="M-403.3,52.9c0,0,5.9,15.4,19.5,20.5c13.6,5.1,21.2-5.3,21.2-5.3s1-12.8-12.6-17.9
			C-388.7,45.2-403.3,52.9-403.3,52.9z"/>
		<path class="st3" d="M-321.8,52.9c0,0-5.9,15.4-19.5,20.5s-21.2-5.3-21.2-5.3s-1-12.8,12.6-17.9S-321.8,52.9-321.8,52.9z"/>
	</g>
	<g>
		
			<image style="overflow:visible;opacity:0.3;" width="341" height="309" xlink:href="E0475BD9DA40452E.png"  transform="matrix(0.24 0 0 0.24 -403.3504 17.6285)">
		</image>
		<g>
			
				<image style="overflow:visible;opacity:0.5;" width="261" height="236" xlink:href="E0475BD9DA40452F.png"  transform="matrix(0.24 0 0 0.24 -393.8704 27.1085)">
			</image>
			<g>
				<path class="st2" d="M-346.7,47c-1.7-5-6.7-4.6-6.7-4.6c-3.7,0.1-9.2,6.3-9.2,6.3v-0.1c0,0-5.5-6.2-9.2-6.3c0,0-5-0.3-6.7,4.6
					s2.5,8,2.8,8.5s13,13,13,13v0.1c0,0,12.7-12.5,13-13C-349.2,54.9-345,51.9-346.7,47z"/>
			</g>
		</g>
	</g>
	<g>
		<path class="st4" d="M-302,61.7V44.5h3.6c1.7,0,3.1,0.2,4.1,0.5c1.1,0.3,2.1,0.9,2.9,1.7c1.8,1.6,2.7,3.7,2.7,6.4
			c0,2.6-0.9,4.8-2.8,6.4c-0.9,0.8-1.9,1.4-2.9,1.7c-1,0.3-2.3,0.5-4,0.5H-302z M-299.4,59.2h1.2c1.2,0,2.1-0.1,2.9-0.4
			c0.8-0.3,1.5-0.7,2.1-1.2c1.3-1.2,1.9-2.7,1.9-4.6c0-1.9-0.6-3.4-1.9-4.6c-1.1-1-2.8-1.6-5-1.6h-1.2V59.2z"/>
		<path class="st4" d="M-278.3,44.5v17.2h-2.6V44.5H-278.3z"/>
		<path class="st4" d="M-268.7,43.8l4.8,11.9l4.8-11.9h2.8l-7.7,18.5l-7.5-18.5H-268.7z"/>
		<path class="st4" d="M-247,44.5v17.2h-2.6V44.5H-247z"/>
		<path class="st4" d="M-238.3,61.7V43.4l12.5,13.1V44.5h2.6v18.2l-12.5-13.1v12H-238.3z"/>
		<path class="st4" d="M-205,46.9h-6.9V51h6.7v2.4h-6.7v5.7h6.9v2.4h-9.5V44.5h9.5V46.9z"/>
		<path class="st4" d="M-193.2,53.4l-6.3-8.9h5.3l3.2,4.7l3.2-4.7h5.3l-6.3,8.9v8.3h-4.5V53.4z"/>
		<path class="st4" d="M-178.3,53.1c0-1.3,0.2-2.5,0.7-3.6c0.5-1.1,1.1-2.1,2-2.9c0.8-0.8,1.8-1.5,3-1.9c1.2-0.5,2.4-0.7,3.8-0.7
			c1.4,0,2.7,0.2,3.8,0.7c1.2,0.5,2.2,1.1,3,1.9c0.8,0.8,1.5,1.8,2,2.9c0.5,1.1,0.7,2.3,0.7,3.6c0,1.3-0.2,2.5-0.7,3.6
			c-0.5,1.1-1.1,2.1-2,2.9c-0.8,0.8-1.9,1.5-3,1.9c-1.2,0.5-2.4,0.7-3.8,0.7c-1.4,0-2.7-0.2-3.8-0.7c-1.2-0.5-2.2-1.1-3-1.9
			c-0.8-0.8-1.5-1.8-2-2.9C-178,55.5-178.3,54.4-178.3,53.1z M-173.6,53.1c0,0.7,0.1,1.3,0.4,1.9c0.3,0.6,0.6,1.1,1,1.5
			c0.4,0.4,1,0.8,1.5,1c0.6,0.2,1.2,0.4,1.9,0.4c0.7,0,1.3-0.1,1.9-0.4c0.6-0.2,1.1-0.6,1.6-1c0.4-0.4,0.8-0.9,1.1-1.5
			c0.3-0.6,0.4-1.2,0.4-1.9c0-0.7-0.1-1.3-0.4-1.9s-0.6-1.1-1.1-1.5c-0.4-0.4-1-0.8-1.6-1c-0.6-0.2-1.2-0.4-1.9-0.4
			c-0.7,0-1.3,0.1-1.9,0.4c-0.6,0.2-1.1,0.6-1.5,1c-0.4,0.4-0.8,0.9-1,1.5S-173.6,52.4-173.6,53.1z"/>
		<path class="st4" d="M-147.4,44.2v9.4c0,0.5,0,1,0.1,1.5c0,0.5,0.2,1,0.3,1.4c0.2,0.4,0.5,0.8,0.9,1c0.4,0.3,1,0.4,1.7,0.4
			s1.3-0.1,1.7-0.4c0.4-0.3,0.7-0.6,0.9-1c0.2-0.4,0.3-0.9,0.4-1.4c0-0.5,0.1-1,0.1-1.5v-9.4h4.4v10c0,2.7-0.6,4.6-1.8,5.9
			c-1.2,1.2-3.1,1.8-5.6,1.8c-2.5,0-4.4-0.6-5.7-1.8s-1.8-3.2-1.8-5.9v-10H-147.4z"/>
	</g>
</g>
<g>
	
		<image style="overflow:visible;opacity:0.3;" width="617" height="529" xlink:href="E0475BD9DA404522.png"  transform="matrix(0.24 0 0 0.24 -836.0704 146.2685)">
	</image>
	<g>
		
			<image style="overflow:visible;opacity:0.5;" width="534" height="455" xlink:href="E0475BD9DA404525.png"  transform="matrix(0.24 0 0 0.24 -826.1104 155.9885)">
		</image>
		<g>
			<path class="st2" d="M-714.6,185.4c-5.1-14.9-20.1-13.9-20.1-13.9c-11,0.2-27.5,18.9-27.5,18.9v-0.2c0,0-16.5-18.7-27.5-18.9
				c0,0-14.9-1-20.1,13.9c-5.1,14.9,7.6,24,8.6,25.4c1,1.5,39,39,39,39v0.2c0,0,38-37.5,39-39S-709.4,200.3-714.6,185.4z"/>
		</g>
	</g>
</g>
<g>
	<path class="st4" d="M-839.1,319.4v-17.2h3.6c1.7,0,3.1,0.2,4.1,0.5c1.1,0.3,2.1,0.9,2.9,1.7c1.8,1.6,2.7,3.7,2.7,6.4
		c0,2.6-0.9,4.8-2.8,6.4c-0.9,0.8-1.9,1.4-2.9,1.7c-1,0.3-2.3,0.5-4,0.5H-839.1z M-836.5,317h1.2c1.2,0,2.1-0.1,2.9-0.4
		c0.8-0.3,1.5-0.7,2.1-1.2c1.3-1.2,1.9-2.7,1.9-4.6c0-1.9-0.6-3.4-1.9-4.6c-1.1-1-2.8-1.6-5-1.6h-1.2V317z"/>
	<path class="st4" d="M-815.3,302.2v17.2h-2.6v-17.2H-815.3z"/>
	<path class="st4" d="M-805.8,301.6l4.8,11.9l4.8-11.9h2.8l-7.7,18.5l-7.5-18.5H-805.8z"/>
	<path class="st4" d="M-784.1,302.2v17.2h-2.6v-17.2H-784.1z"/>
	<path class="st4" d="M-775.4,319.5v-18.4l12.5,13.1v-11.9h2.6v18.2l-12.5-13.1v12H-775.4z"/>
	<path class="st4" d="M-742.1,304.7h-6.9v4.1h6.7v2.4h-6.7v5.7h6.9v2.4h-9.5v-17.2h9.5V304.7z"/>
	<path class="st4" d="M-730.2,311.2l-6.3-8.9h5.3l3.2,4.7l3.2-4.7h5.3l-6.3,8.9v8.3h-4.5V311.2z"/>
	<path class="st4" d="M-715.3,310.8c0-1.3,0.2-2.5,0.7-3.6c0.5-1.1,1.1-2.1,2-2.9s1.8-1.5,3-1.9c1.2-0.5,2.4-0.7,3.8-0.7
		c1.4,0,2.7,0.2,3.8,0.7c1.2,0.5,2.2,1.1,3,1.9c0.8,0.8,1.5,1.8,2,2.9c0.5,1.1,0.7,2.3,0.7,3.6c0,1.3-0.2,2.5-0.7,3.6
		c-0.5,1.1-1.1,2.1-2,2.9c-0.8,0.8-1.9,1.5-3,1.9c-1.2,0.5-2.4,0.7-3.8,0.7c-1.4,0-2.7-0.2-3.8-0.7c-1.2-0.5-2.2-1.1-3-1.9
		s-1.5-1.8-2-2.9C-715.1,313.3-715.3,312.1-715.3,310.8z M-710.6,310.8c0,0.7,0.1,1.3,0.4,1.9c0.3,0.6,0.6,1.1,1,1.5
		c0.4,0.4,1,0.8,1.5,1c0.6,0.2,1.2,0.4,1.9,0.4c0.7,0,1.3-0.1,1.9-0.4c0.6-0.2,1.1-0.6,1.6-1c0.4-0.4,0.8-0.9,1.1-1.5
		c0.3-0.6,0.4-1.2,0.4-1.9s-0.1-1.3-0.4-1.9c-0.3-0.6-0.6-1.1-1.1-1.5c-0.4-0.4-1-0.8-1.6-1c-0.6-0.2-1.2-0.4-1.9-0.4
		c-0.7,0-1.3,0.1-1.9,0.4c-0.6,0.2-1.1,0.6-1.5,1c-0.4,0.4-0.8,0.9-1,1.5C-710.5,309.5-710.6,310.1-710.6,310.8z"/>
	<path class="st4" d="M-684.4,302v9.4c0,0.5,0,1,0.1,1.5c0,0.5,0.2,1,0.3,1.4c0.2,0.4,0.5,0.8,0.9,1c0.4,0.3,1,0.4,1.7,0.4
		c0.7,0,1.3-0.1,1.7-0.4c0.4-0.3,0.7-0.6,0.9-1c0.2-0.4,0.3-0.9,0.4-1.4c0-0.5,0.1-1,0.1-1.5V302h4.4v10c0,2.7-0.6,4.6-1.8,5.9
		c-1.2,1.2-3.1,1.8-5.6,1.8c-2.5,0-4.4-0.6-5.7-1.8c-1.2-1.2-1.8-3.2-1.8-5.9v-10H-684.4z"/>
</g>
<g>
	<g>
		<g>
			<path class="st1" d="M299.9,19.4c0,0-1,16.5,9.3,26.8c10.3,10.3,21.5,4,21.5,4s6.3-11.3-4-21.5C316.4,18.4,299.9,19.4,299.9,19.4
				z"/>
			<path class="st1" d="M329.7,7.1c0,0-12,11.4-11.4,25.9c0.5,14.5,13,17.6,13,17.6s12.2-4,11.7-18.5S329.7,7.1,329.7,7.1z"/>
			<path class="st1" d="M361.5,19.4c0,0-16.5-1-26.8,9.3c-10.3,10.3-4,21.5-4,21.5s11.3,6.3,21.5-4S361.5,19.4,361.5,19.4z"/>
			<path class="st1" d="M289.9,35.1c0,0,5.9,15.4,19.5,20.5c13.6,5.1,21.2-5.3,21.2-5.3s1-12.8-12.6-17.9
				C304.5,27.3,289.9,35.1,289.9,35.1z"/>
			<path class="st1" d="M371.4,35.1c0,0-5.9,15.4-19.5,20.5s-21.2-5.3-21.2-5.3s-1-12.8,12.6-17.9S371.4,35.1,371.4,35.1z"/>
		</g>
		<g>
			
				<image style="overflow:visible;opacity:0.3;" width="341" height="307" xlink:href="E0475BD9DA404526.png"  transform="matrix(0.24 0 0 0.24 289.8451 0)">
			</image>
			<g>
				
					<image style="overflow:visible;opacity:0.5;" width="261" height="235" xlink:href="6A50467C8B49FE10.png"  transform="matrix(0.24 0 0 0.24 299.4453 9.36)">
				</image>
				<g>
					<path class="st2" d="M346.5,29.1c-1.7-5-6.7-4.6-6.7-4.6c-3.7,0.1-9.2,6.3-9.2,6.3v-0.1c0,0-5.5-6.2-9.2-6.3c0,0-5-0.3-6.7,4.6
						s2.5,8,2.8,8.5c0.3,0.5,13,13,13,13v0.1c0,0,12.7-12.5,13-13C344,37.1,348.2,34.1,346.5,29.1z"/>
				</g>
			</g>
		</g>
	</g>
</g>
<g>
	<path class="st1" d="M10,19.4c0,0-1,16.5,9.3,26.8s21.5,4,21.5,4s6.3-11.3-4-21.5S10,19.4,10,19.4z"/>
	<path class="st1" d="M39.8,7.1c0,0-12,11.4-11.4,25.9c0.5,14.5,13,17.6,13,17.6s12.2-4,11.7-18.5C52.6,17.6,39.8,7.1,39.8,7.1z"/>
	<path class="st1" d="M71.6,19.4c0,0-16.5-1-26.8,9.3s-4,21.5-4,21.5s11.3,6.3,21.5-4S71.6,19.4,71.6,19.4z"/>
	<path class="st1" d="M0,35.1c0,0,5.9,15.4,19.5,20.5s21.2-5.3,21.2-5.3s1-12.8-12.6-17.9S0,35.1,0,35.1z"/>
	<path class="st1" d="M81.5,35.1c0,0-5.9,15.4-19.5,20.5s-21.2-5.3-21.2-5.3s-1-12.8,12.6-17.9S81.5,35.1,81.5,35.1z"/>
</g>
<g>
	
		<image style="overflow:visible;opacity:0.3;" width="341" height="307" xlink:href="6A50467C8B49FE17.png"  transform="matrix(0.24 0 0 0.24 145.4845 0)">
	</image>
	<g>
		
			<image style="overflow:visible;opacity:0.5;" width="261" height="235" xlink:href="6A50467C8B49FE11.png"  transform="matrix(0.24 0 0 0.24 155.0846 9.36)">
		</image>
		<g>
			<path class="st2" d="M202.2,29.1c-1.7-5-6.7-4.6-6.7-4.6c-3.7,0.1-9.2,6.3-9.2,6.3v-0.1c0,0-5.5-6.2-9.2-6.3c0,0-5-0.3-6.7,4.6
				s2.5,8,2.8,8.5c0.3,0.5,13,13,13,13v0.1c0,0,12.7-12.5,13-13C199.6,37.1,203.9,34.1,202.2,29.1z"/>
		</g>
	</g>
</g>
<text transform="matrix(1 0 0 1 23.8857 80.5352)" class="st5 st6">Lotus</text>
<text transform="matrix(1 0 0 1 24.3677 95.2019)" class="st7 st8">Divinity</text>
<text transform="matrix(1 0 0 1 174.0161 95.2019)" class="st7 st8">Heart</text>
<text transform="matrix(1 0 0 1 174.7292 80.5352)" class="st5 st6">You</text>
<text transform="matrix(1 0 0 1 299.2887 80.5352)" class="st5 st6">DivineYou</text>
<text transform="matrix(1 0 0 1 289.2346 95.2019)"><tspan x="0" y="0" class="st7 st8">Heart is within the </tspan><tspan x="5.7" y="12" class="st7 st8">layers of divinity</tspan></text>
<text transform="matrix(1 0 0 1 112.8932 45.8841)" class="st7 st9">+</text>
<text transform="matrix(1 0 0 1 237.6788 45.8841)" class="st7 st9">=</text>
<g>
	<g>
		<g>
			<path class="st1" d="M299.9,174.3c0,0-1,16.5,9.3,26.8c10.3,10.3,21.5,4,21.5,4s6.3-11.3-4-21.5
				C316.4,173.3,299.9,174.3,299.9,174.3z"/>
			<path class="st1" d="M329.7,161.9c0,0-12,11.4-11.4,25.9c0.5,14.5,13,17.6,13,17.6s12.2-4,11.7-18.5S329.7,161.9,329.7,161.9z"/>
			<path class="st1" d="M361.5,174.3c0,0-16.5-1-26.8,9.3c-10.3,10.3-4,21.5-4,21.5s11.3,6.3,21.5-4S361.5,174.3,361.5,174.3z"/>
			<path class="st1" d="M289.9,189.9c0,0,5.9,15.4,19.5,20.5c13.6,5.1,21.2-5.3,21.2-5.3s1-12.8-12.6-17.9
				C304.5,182.2,289.9,189.9,289.9,189.9z"/>
			<path class="st1" d="M371.4,189.9c0,0-5.9,15.4-19.5,20.5c-13.6,5.1-21.2-5.3-21.2-5.3s-1-12.8,12.6-17.9
				C356.8,182.2,371.4,189.9,371.4,189.9z"/>
		</g>
		<g>
			
				<image style="overflow:visible;opacity:0.3;" width="341" height="307" xlink:href="6A50467C8B49FE13.png"  transform="matrix(0.24 0 0 0.24 289.8451 154.8607)">
			</image>
			<g>
				
					<image style="overflow:visible;opacity:0.5;" width="261" height="235" xlink:href="6A50467C8B49FE0E.png"  transform="matrix(0.24 0 0 0.24 299.4453 164.2207)">
				</image>
				<g>
					<path class="st2" d="M346.5,183.9c-1.7-5-6.7-4.6-6.7-4.6c-3.7,0.1-9.2,6.3-9.2,6.3v-0.1c0,0-5.5-6.2-9.2-6.3
						c0,0-5-0.3-6.7,4.6s2.5,8,2.8,8.5s13,13,13,13v0.1c0,0,12.7-12.5,13-13C344,191.9,348.2,188.9,346.5,183.9z"/>
				</g>
			</g>
		</g>
	</g>
</g>
<g>
	<path class="st1" d="M10,174.3c0,0-1,16.5,9.3,26.8c10.3,10.3,21.5,4,21.5,4s6.3-11.3-4-21.5S10,174.3,10,174.3z"/>
	<path class="st1" d="M39.8,161.9c0,0-12,11.4-11.4,25.9c0.5,14.5,13,17.6,13,17.6s12.2-4,11.7-18.5
		C52.6,172.4,39.8,161.9,39.8,161.9z"/>
	<path class="st1" d="M71.6,174.3c0,0-16.5-1-26.8,9.3s-4,21.5-4,21.5s11.3,6.3,21.5-4S71.6,174.3,71.6,174.3z"/>
	<path class="st1" d="M0,189.9c0,0,5.9,15.4,19.5,20.5c13.6,5.1,21.2-5.3,21.2-5.3s1-12.8-12.6-17.9C14.6,182.2,0,189.9,0,189.9z"/>
	<path class="st1" d="M81.5,189.9c0,0-5.9,15.4-19.5,20.5c-13.6,5.1-21.2-5.3-21.2-5.3s-1-12.8,12.6-17.9
		C66.9,182.2,81.5,189.9,81.5,189.9z"/>
</g>
<g>
	
		<image style="overflow:visible;opacity:0.3;" width="341" height="307" xlink:href="6A50467C8B49FE0F.png"  transform="matrix(0.24 0 0 0.24 145.4845 154.8607)">
	</image>
	<g>
		
			<image style="overflow:visible;opacity:0.5;" width="261" height="235" xlink:href="6A50467C8B49FE30.png"  transform="matrix(0.24 0 0 0.24 155.0846 164.2207)">
		</image>
		<g>
			<path class="st2" d="M202.2,183.9c-1.7-5-6.7-4.6-6.7-4.6c-3.7,0.1-9.2,6.3-9.2,6.3v-0.1c0,0-5.5-6.2-9.2-6.3c0,0-5-0.3-6.7,4.6
				s2.5,8,2.8,8.5s13,13,13,13v0.1c0,0,12.7-12.5,13-13S203.9,188.9,202.2,183.9z"/>
		</g>
	</g>
</g>
<text transform="matrix(1 0 0 1 24.5341 235.3959)" class="st6" style="font-family:'Avenir-Medium';">Lotus</text>
<text transform="matrix(1 0 0 1 24.3677 250.0625)" class="st7 st8">Divinity</text>
<text transform="matrix(1 0 0 1 174.0161 250.0625)" class="st7 st8">Heart</text>
<text transform="matrix(1 0 0 1 175.1491 235.3959)" class="st6" style="font-family:'Avenir-Medium';">You</text>
<text transform="matrix(1 0 0 1 300.609 235.3959)" class="st6" style="font-family:'Avenir-Medium';">DivineYou</text>
<text transform="matrix(1 0 0 1 289.2346 250.0625)"><tspan x="0" y="0" class="st7 st8">Heart is within the </tspan><tspan x="5.7" y="12" class="st7 st8">layers of divinity</tspan></text>
<text transform="matrix(1 0 0 1 112.8932 200.7448)" class="st7 st9">+</text>
<text transform="matrix(1 0 0 1 237.6788 200.7448)" class="st7 st9">=</text>
</svg>
