<?xml version="1.0" encoding="UTF-8"?>
<svg width="42px" height="44px" viewBox="0 0 42 44" version="1.1" xmlns="http://www.w3.org/2000/svg" xmlns:xlink="http://www.w3.org/1999/xlink">
    <!-- Generator: Sketch 54.1 (76490) - https://sketchapp.com -->
    <title>dribbble</title>
    <desc>Created with Sketch.</desc>
    <g id="Page-1" stroke="none" stroke-width="1" fill="none" fill-rule="evenodd">
        <g id="Landing" transform="translate(-699.000000, -6129.000000)" fill-rule="nonzero">
            <g id="socials" transform="translate(648.000000, 6129.000000)">
                <g id="dribbble" transform="translate(51.000000, 0.000000)">
                    <ellipse id="Oval" fill="#F26798" cx="21" cy="22" rx="21" ry="22"></ellipse>
                    <path d="M20.9996356,8 C13.8316327,8 8,14.2807741 8,22.0001965 C8,29.7196188 13.8316327,36 20.9996356,36 C28.1680029,36 34,29.7200118 34,22.0001965 C34,14.2807741 28.1680029,8 20.9996356,8 L20.9996356,8 Z M29.5539359,14.6077218 C31.0368076,16.5894489 31.9380466,19.0922487 31.9795918,21.8194322 C31.4861516,21.7101876 29.3965015,21.2901071 26.8994169,21.2901071 C26.0936589,21.2901071 25.2456268,21.3337263 24.3954082,21.4469005 C24.3236152,21.2586698 24.2518222,21.0712251 24.1763848,20.8818155 C23.9559038,20.322625 23.7182945,19.7677571 23.4723032,19.2211416 C27.3155977,17.5137047 29.1694606,15.1441202 29.5539359,14.6077218 L29.5539359,14.6077218 Z M20.9996356,10.1915709 C23.7696793,10.1915709 26.3017493,11.3013066 28.2357872,13.1289911 C27.9296647,13.57933 26.2693149,15.8172709 22.5634111,17.3270459 C20.8480321,13.9459672 18.970481,11.1460851 18.523688,10.4961195 C19.3199708,10.2972787 20.148688,10.1915709 20.9996356,10.1915709 L20.9996356,10.1915709 Z M16.28207,11.3390313 C16.6607143,11.9013656 18.5411808,14.7311131 20.300656,18.0850771 C15.5787172,19.423519 11.3855685,19.5107574 10.3735423,19.5107574 L10.266035,19.5107574 C10.9930758,15.8978289 13.2569242,12.8955693 16.28207,11.3390313 L16.28207,11.3390313 Z M10.0167638,22.0186659 C10.0167638,21.9212103 10.0182216,21.8237548 10.021137,21.7266922 C10.0867347,21.7274781 10.1836735,21.7274781 10.3094023,21.7274781 C11.6723761,21.7274781 16.4034257,21.6060517 21.2787901,20.045977 C21.5747085,20.6700069 21.856414,21.3034679 22.1184402,21.936536 C21.9952624,21.9746537 21.8739067,22.0127714 21.7532799,22.0552117 C16.2638484,23.9669909 13.2467201,29.0279988 12.7824344,29.8551921 C11.0623178,27.7653994 10.0167638,25.0217114 10.0167638,22.0186659 L10.0167638,22.0186659 Z M20.9996356,33.8449749 C18.4806851,33.8449749 16.1559767,32.9250418 14.3010204,31.3826506 C14.6147959,30.7193241 16.8921283,26.2980646 22.9077988,24.0404755 C22.9114431,24.0389036 22.9154519,24.0373318 22.9198251,24.0361529 C24.428207,28.2707535 25.0670554,31.8247372 25.2423469,32.9262207 C23.9369534,33.5180273 22.5032799,33.8449749 20.9996356,33.8449749 L20.9996356,33.8449749 Z M27.220481,31.7602908 C27.0732507,30.8490028 26.481414,27.5182238 25.1155248,23.4557422 C25.8815598,23.3272424 26.6268222,23.2765498 27.3258017,23.2765498 C29.6213557,23.2765498 31.4169096,23.8184497 31.8341837,23.9559878 C31.3381924,27.181845 29.6253644,29.9734748 27.220481,31.7602908 L27.220481,31.7602908 Z" id="Shape" fill="#F1F2F2"></path>
                </g>
            </g>
        </g>
    </g>
</svg>