<?xml version="1.0" encoding="UTF-8"?>
<svg width="127px" height="121px" viewBox="0 0 127 121" version="1.1" xmlns="http://www.w3.org/2000/svg" xmlns:xlink="http://www.w3.org/1999/xlink">
    <!-- Generator: Sketch 54.1 (76490) - https://sketchapp.com -->
    <title>J</title>
    <desc>Created with Sketch.</desc>
    <g id="Page-1" stroke="none" stroke-width="1" fill="none" fill-rule="evenodd">
        <g id="Landing" transform="translate(-141.000000, -5278.000000)">
            <g id="J" transform="translate(141.000000, 5278.000000)">
                <path d="M72.3183137,19.9331464 L72.3183137,21.9217022 C66.1142695,22.2127104 65.0719901,23.231239 65.0719901,30.457942 L65.0719901,66.8339638 C65.0719901,69.3560346 65.1216225,72.1691137 65.1216225,74.9821927 C65.1216225,81.3358711 64.8734607,87.9805578 63.3348578,92.7336913 C60.3072843,101.900449 49.9341225,108.933146 34.7962548,108.933146 C31.2227254,108.933146 26.5572843,108.545135 23.430446,107.041593 C19.7576519,105.247043 18.3183137,102.773473 18.3183137,99.6208848 C18.3183137,94.9162526 22.2889019,91.9576695 28.2944166,91.9576695 C33.9028725,91.9576695 37.4267695,94.431239 37.4267695,99.2813752 C37.4267695,102.191457 35.6896372,105.247043 31.5205195,106.750585 C32.1657401,106.847588 32.7613284,106.847588 33.3569166,106.847588 C37.9230931,106.847588 41.000299,103.986007 42.3403725,100.590912 C44.4745637,94.8192499 44.4745637,89.5811028 44.4745637,75.8552172 L44.4745637,30.457942 C44.4745637,23.231239 43.3330195,22.2127104 37.2282401,21.9217022 L37.2282401,19.9331464 C40.9010343,20.1271518 47.4028725,20.2241545 54.3017695,20.2241545 C61.0021372,20.2241545 68.149196,20.1271518 72.3183137,19.9331464 Z" stroke="#FFFFFF" fill-rule="nonzero" transform="translate(45.318314, 64.433146) rotate(13.000000) translate(-45.318314, -64.433146) "></path>
                <path d="M66.3183137,16.9331464 L66.3183137,18.9217022 C60.1142695,19.2127104 59.0719901,20.231239 59.0719901,27.457942 L59.0719901,63.8339638 C59.0719901,66.3560346 59.1216225,69.1691137 59.1216225,71.9821927 C59.1216225,78.3358711 58.8734607,84.9805578 57.3348578,89.7336913 C54.3072843,98.9004488 43.9341225,105.933146 28.7962548,105.933146 C25.2227254,105.933146 20.5572843,105.545135 17.430446,104.041593 C13.7576519,102.247043 12.3183137,99.7734733 12.3183137,96.6208848 C12.3183137,91.9162526 16.2889019,88.9576695 22.2944166,88.9576695 C27.9028725,88.9576695 31.4267695,91.431239 31.4267695,96.2813752 C31.4267695,99.191457 29.6896372,102.247043 25.5205195,103.750585 C26.1657401,103.847588 26.7613284,103.847588 27.3569166,103.847588 C31.9230931,103.847588 35.000299,100.986007 36.3403725,97.590912 C38.4745637,91.8192499 38.4745637,86.5811028 38.4745637,72.8552172 L38.4745637,27.457942 C38.4745637,20.231239 37.3330195,19.2127104 31.2282401,18.9217022 L31.2282401,16.9331464 C34.9010343,17.1271518 41.4028725,17.2241545 48.3017695,17.2241545 C55.0021372,17.2241545 62.149196,17.1271518 66.3183137,16.9331464 Z" stroke="#FFFFFF" fill="#EA4637" fill-rule="nonzero" transform="translate(39.318314, 61.433146) rotate(13.000000) translate(-39.318314, -61.433146) "></path>
                <path d="M53,0 L24,122" id="Line-4" stroke="#FCEE55" stroke-linecap="round" stroke-dasharray="4"></path>
                <path d="M74,0 L45,122" id="Line-4-Copy" stroke="#FCEE55" stroke-linecap="round" stroke-dasharray="4"></path>
                <path d="M19.5,17.5 L98.0954778,17.5" id="Line-5" stroke="#FCEE55" stroke-linecap="round" stroke-dasharray="4"></path>
                <path d="M0.5,97.5 L79.0954778,97.5" id="Line-5-Copy-2" stroke="#FCEE55" stroke-linecap="round" stroke-dasharray="4"></path>
                <path d="M19.5,26.5 L98.0954778,26.5" id="Line-5-Copy" stroke="#FCEE55" stroke-linecap="round" stroke-dasharray="4"></path>
                <path d="M0.5,106.5 L79.0954778,106.5" id="Line-5-Copy-3" stroke="#FCEE55" stroke-linecap="round" stroke-dasharray="4"></path>
                <path id="Line-6" d="M106.595478,18 L106.595478,26 L110.595478,26 L110.595478,27 L101.595478,27 L101.595478,26 L105.595478,26 L105.595478,18 L101.595478,18 L101.595478,17 L110.595478,17 L110.595478,18 L106.595478,18 Z" fill="#FCEE55" fill-rule="nonzero" opacity="0.5"></path>
                <path id="Line-6-Copy" d="M87.5954778,98 L87.5954778,106 L91.5954778,106 L91.5954778,107 L82.5954778,107 L82.5954778,106 L86.5954778,106 L86.5954778,98 L82.5954778,98 L82.5954778,97 L91.5954778,97 L91.5954778,98 L87.5954778,98 Z" fill="#FCEE55" fill-rule="nonzero" opacity="0.5"></path>
                <text id="10px" opacity="0.5" font-family="Avenir-Heavy, Avenir" font-size="6" font-weight="600" fill="#FCEE55">
                    <tspan x="113" y="24">10px</tspan>
                </text>
                <text id="10px-copy" opacity="0.5" font-family="Avenir-Heavy, Avenir" font-size="6" font-weight="600" fill="#FCEE55">
                    <tspan x="94" y="104">10px</tspan>
                </text>
            </g>
        </g>
    </g>
</svg>