<?xml version="1.0" encoding="UTF-8"?>
<svg width="43px" height="43px" viewBox="0 0 43 43" version="1.1" xmlns="http://www.w3.org/2000/svg" xmlns:xlink="http://www.w3.org/1999/xlink">
    <!-- Generator: Sketch 54.1 (76490) - https://sketchapp.com -->
    <title>linkedin (1)</title>
    <desc>Created with Sketch.</desc>
    <g id="Page-1" stroke="none" stroke-width="1" fill="none" fill-rule="evenodd">
        <g id="Landing" transform="translate(-749.000000, -6130.000000)" fill-rule="nonzero">
            <g id="socials" transform="translate(648.000000, 6129.000000)">
                <g id="linkedin-(1)" transform="translate(101.000000, 0.000000)">
                    <circle id="Oval" fill="#007AB9" cx="21.5" cy="22.5" r="21.5"></circle>
                    <path d="M34,24.1001506 L34,33 L28.8548954,33 L28.8548954,24.6966036 C28.8548954,22.6117116 28.112042,21.1879204 26.2491527,21.1879204 C24.8275245,21.1879204 23.9829891,22.1464782 23.6100275,23.0746361 C23.4745795,23.406341 23.4396623,23.8669567 23.4396623,24.3321901 L23.4396623,32.9996152 L18.2941741,32.9996152 C18.2941741,32.9996152 18.363241,18.9364062 18.2941741,17.4806759 L23.440046,17.4806759 L23.440046,19.6798561 C23.429686,19.6971725 23.4151052,19.7141041 23.4058963,19.7306508 L23.440046,19.7306508 L23.440046,19.6798561 C24.1238089,18.6247114 25.3432244,17.1162623 28.0771248,17.1162623 C31.4621731,17.1162623 34,19.3342981 34,24.1001506 L34,24.1001506 Z M12.9115559,10 C11.1514996,10 10,11.1586582 10,12.6809603 C10,14.1709386 11.1181173,15.3630751 12.8440238,15.3630751 L12.8774062,15.3630751 C14.6719959,15.3630751 15.787811,14.1709386 15.787811,12.6809603 C15.7536612,11.1586582 14.6719959,10 12.9115559,10 L12.9115559,10 Z M10.3058131,33 L15.4493829,33 L15.4493829,17.4806759 L10.3058131,17.4806759 L10.3058131,33 Z" id="Shape" fill="#F1F2F2"></path>
                </g>
            </g>
        </g>
    </g>
</svg>