<?xml version="1.0" encoding="UTF-8"?>
<svg width="199px" height="104px" viewBox="0 0 199 104" version="1.1" xmlns="http://www.w3.org/2000/svg" xmlns:xlink="http://www.w3.org/1999/xlink">
    <!-- Generator: Sketch 54.1 (76490) - https://sketchapp.com -->
    <title>Logo</title>
    <desc>Created with Sketch.</desc>
    <g id="Logo" stroke="none" stroke-width="1" fill="none" fill-rule="evenodd">
        <g fill="#FFFFFF" fill-rule="nonzero">
            <path d="M31.875,0 L31.875,1.20117188 C28.2128906,1.37695312 27.5976562,1.9921875 27.5976562,6.35742188 L27.5976562,28.3300781 C27.5976562,29.8535156 27.6269531,31.5527344 27.6269531,33.2519531 C27.6269531,37.0898438 27.4804688,41.1035156 26.5722656,43.9746094 C24.7851562,49.5117188 18.6621094,53.7597656 9.7265625,53.7597656 C7.6171875,53.7597656 4.86328125,53.5253906 3.01757812,52.6171875 C0.849609375,51.5332031 0,50.0390625 0,48.1347656 C0,45.2929688 2.34375,43.5058594 5.88867188,43.5058594 C9.19921875,43.5058594 11.2792969,45 11.2792969,47.9296875 C11.2792969,49.6875 10.2539062,51.5332031 7.79296875,52.4414062 C8.17382812,52.5 8.52539062,52.5 8.87695312,52.5 C11.5722656,52.5 13.3886719,50.7714844 14.1796875,48.7207031 C15.4394531,45.234375 15.4394531,42.0703125 15.4394531,33.7792969 L15.4394531,6.35742188 C15.4394531,1.9921875 14.765625,1.37695312 11.1621094,1.20117188 L11.1621094,0 C13.3300781,0.1171875 17.1679688,0.17578125 21.2402344,0.17578125 C25.1953125,0.17578125 29.4140625,0.1171875 31.875,0 Z M53.1738281,36.7675781 C54.7851562,36.7675781 57.8027344,36.4160156 60.4394531,32.7539062 L61.4648438,33.1347656 C59.9414062,37.96875 56.0449219,43.3300781 48.9257812,43.3300781 C41.2207031,43.3300781 35.0390625,39.0527344 35.0390625,26.953125 C35.0390625,15.4101562 41.7773438,10.4882812 50.4785156,10.4882812 C57.4804688,10.4882812 61.8164062,14.2675781 61.8164062,23.9355469 L46.3183594,23.9355469 C46.2597656,24.6386719 46.2597656,25.3710938 46.2597656,26.1035156 C46.2597656,34.5703125 49.921875,36.7675781 53.1738281,36.7675781 Z M50.0390625,11.8945312 C47.9296875,11.8945312 46.5234375,14.8535156 46.1132812,22.7929688 L53.0566406,22.7929688 C53.1152344,16.9335938 52.265625,11.8945312 50.0390625,11.8945312 Z M77.2265625,10.4882812 C80.7128906,10.4882812 83.5839844,11.4550781 84.7851562,12.1289062 C85.1953125,12.3632812 85.546875,12.4804688 85.8691406,12.4804688 C86.6308594,12.4804688 87.1582031,11.8652344 87.3632812,10.546875 L88.5644531,10.546875 C88.3886719,12.890625 88.3300781,15.9082031 88.3300781,21.3574219 L87.1289062,21.3574219 C86.6015625,16.9335938 84.6679688,11.953125 79.7460938,11.953125 C77.7832031,11.953125 76.2011719,13.2128906 76.2011719,15.2929688 C76.2011719,18.8964844 79.9804688,21.1230469 83.4082031,23.9355469 C87.0703125,26.953125 89.8828125,29.4726562 89.8828125,34.0722656 C89.8828125,39.5507812 84.4335938,43.3300781 77.7832031,43.3300781 C74.9414062,43.3300781 72.8613281,42.5976562 71.6015625,41.8066406 C70.3417969,41.1621094 69.4921875,40.8105469 68.5839844,40.8105469 C67.7636719,40.8105469 67.2070312,41.7480469 66.9140625,42.890625 L65.7128906,42.890625 C65.8886719,40.3125 65.9472656,36.9726562 65.9472656,30.9082031 L67.1484375,30.9082031 C67.8808594,37.265625 70.6933594,41.8066406 75.0585938,41.8066406 C76.9335938,41.8066406 78.5449219,40.8105469 78.5449219,38.5253906 C78.5449219,34.9804688 76.1425781,32.9882812 72.9785156,30.1171875 C69.375,26.8066406 65.9472656,23.8769531 65.9472656,19.1308594 C65.9472656,13.7988281 71.2792969,10.4882812 77.2265625,10.4882812 Z M105.556641,10.4882812 C109.042969,10.4882812 111.914062,11.4550781 113.115234,12.1289062 C113.525391,12.3632812 113.876953,12.4804688 114.199219,12.4804688 C114.960938,12.4804688 115.488281,11.8652344 115.693359,10.546875 L116.894531,10.546875 C116.71875,12.890625 116.660156,15.9082031 116.660156,21.3574219 L115.458984,21.3574219 C114.931641,16.9335938 112.998047,11.953125 108.076172,11.953125 C106.113281,11.953125 104.53125,13.2128906 104.53125,15.2929688 C104.53125,18.8964844 108.310547,21.1230469 111.738281,23.9355469 C115.400391,26.953125 118.212891,29.4726562 118.212891,34.0722656 C118.212891,39.5507812 112.763672,43.3300781 106.113281,43.3300781 C103.271484,43.3300781 101.191406,42.5976562 99.9316406,41.8066406 C98.671875,41.1621094 97.8222656,40.8105469 96.9140625,40.8105469 C96.09375,40.8105469 95.5371094,41.7480469 95.2441406,42.890625 L94.0429688,42.890625 C94.21875,40.3125 94.2773438,36.9726562 94.2773438,30.9082031 L95.4785156,30.9082031 C96.2109375,37.265625 99.0234375,41.8066406 103.388672,41.8066406 C105.263672,41.8066406 106.875,40.8105469 106.875,38.5253906 C106.875,34.9804688 104.472656,32.9882812 101.308594,30.1171875 C97.7050781,26.8066406 94.2773438,23.8769531 94.2773438,19.1308594 C94.2773438,13.7988281 99.609375,10.4882812 105.556641,10.4882812 Z" id="Jess"></path>
            <path d="M34.6093117,47.3339329 C34.3022488,47.3339329 33.9920314,47.3301532 33.6795671,47.3226274 C34.7830051,48.304091 35.2594737,50.0940923 35.2594737,52.720199 L35.2594737,63.8793534 L33.708192,62.8543342 C32.2950842,61.9206144 30.5372687,61.4896656 28.0498485,61.4896656 C20.3183757,61.4896656 15.7851562,66.7854334 15.7851562,76.7643437 C15.7851562,87.2374817 20.0377677,92.4804688 26.9711812,92.4804688 C30.0569156,92.4804688 31.90736,91.3100843 33.3718525,88.4877057 L35.2594737,84.8498711 L35.2594737,92.0214555 C37.9399471,91.588304 40.9760952,91.3915662 44.6380022,91.3915662 C44.9473327,91.3915662 45.2598646,91.3954019 45.5746699,91.4030391 C44.4824645,90.4236517 44.0169934,88.6369173 44.0169934,86.0053001 L44.0169934,46.6844993 C41.3526169,47.1338688 38.324938,47.3339329 34.6093117,47.3339329 Z M47.6703132,92.267811 L48.0028392,91.9650482 L47.5357459,91.4979549 C47.4706316,91.4932558 47.4055317,91.4887102 47.3404547,91.4843191 L47.3404547,92.2209579 C47.4474992,92.2398624 47.5574376,92.2554768 47.6703132,92.267811 Z M31.5769064,46.4577739 L31.2444747,46.7604509 L31.711568,47.2275443 C31.7766823,47.2322433 31.8417822,47.236789 31.9068592,47.24118 L31.9068592,46.5046811 C31.799741,46.4857602 31.6897701,46.4701269 31.5769064,46.4577739 Z M33.2594737,52.720199 C33.2594737,49.4444618 32.6445733,48.4228354 30.9068592,48.4228354 L29.9068592,48.4228354 L29.9068592,45.0590487 L31.0003538,45.1617343 C32.215613,45.2758544 33.4381809,45.3339329 34.6093117,45.3339329 C38.7702863,45.3339329 42.0123416,45.0779196 44.8154008,44.5009993 L46.0169934,44.2536898 L46.0169934,86.0053001 C46.0169934,89.2962237 46.61434,90.3026637 48.3404547,90.3026637 L49.3404547,90.3026637 L49.3404547,93.6664504 L48.2469601,93.5637648 C47.0317009,93.4496448 45.809133,93.3915662 44.6380022,93.3915662 C40.541675,93.3915662 37.278799,93.6427911 34.4518303,94.1969257 L33.2594737,94.4306481 L33.2594737,92.0913565 C31.66413,93.7146983 29.6338139,94.4804688 26.9711812,94.4804688 C18.8301024,94.4804688 13.7851562,88.260623 13.7851562,76.7643437 C13.7851562,65.7438902 19.1388224,59.4896656 28.0498485,59.4896656 C30.1177743,59.4896656 31.8091786,59.7650784 33.2594737,60.3637993 L33.2594737,52.720199 Z M29.9739577,91.3314804 C26.5173975,91.3314804 24.9508203,87.0141436 24.9508203,76.9703523 C24.9508203,66.6991529 26.9369947,61.4908918 31.4607694,61.4908918 C32.59049,61.4908918 33.7765883,61.8107952 34.7856262,62.4351061 L35.2594737,62.7282845 L35.2594737,86.0053001 C35.2594737,88.9895345 32.8168523,91.3314804 29.9739577,91.3314804 Z M31.4607694,63.4908918 C28.5678346,63.4908918 26.9508203,67.73112 26.9508203,76.9703523 C26.9508203,85.9599883 28.1741908,89.3314804 29.9739577,89.3314804 C31.7306765,89.3314804 33.2594737,87.8656943 33.2594737,86.0053001 L33.2594737,63.8839743 C32.6870026,63.6249661 32.0574724,63.4908918 31.4607694,63.4908918 Z M69.1849712,87.8881941 C64.4231999,87.8881941 61.3048231,84.0600576 61.3048231,76.1757477 C61.3048231,75.0442696 61.3148933,74.5410636 61.3665193,73.9156725 L61.442278,72.9979427 L76.7692496,72.9979427 C76.509602,65.0178407 73.0718803,61.4896656 66.5028795,61.4896656 C57.5775739,61.4896656 52.139159,66.7838713 52.139159,77.0292119 C52.139159,87.5926839 56.8436435,92.4804688 64.9577615,92.4804688 C69.7834847,92.4804688 73.4206702,89.716968 75.4999589,85.4321965 C73.582883,87.2144035 71.4691029,87.8881941 69.1849712,87.8881941 Z M63.3048231,76.1757477 C63.3048231,83.0355219 65.6285926,85.8881941 69.1849712,85.8881941 C71.576675,85.8881941 73.6614097,84.9948239 75.6008184,82.2756416 L76.0468332,81.6502986 L78.6716134,82.6344678 L78.3898826,83.5369039 C76.3818097,89.969134 71.6603977,94.4804688 64.9577615,94.4804688 C55.7216083,94.4804688 50.139159,88.6805111 50.139159,77.0292119 C50.139159,65.6670939 56.4848547,59.4896656 66.5028795,59.4896656 C74.4937222,59.4896656 78.7851562,64.2509867 78.7851562,73.9979427 L78.7851562,74.9979427 L63.3136352,74.9979427 C63.3068562,75.305238 63.3048231,75.6745215 63.3048231,76.1757477 Z M66.065582,60.9022958 C69.0202066,60.9022958 70.14059,65.5634462 70.0683094,72.8600861 L70.0585015,73.8501806 L61.1065737,73.8501806 L61.1603641,72.7990725 C61.5750711,64.6953574 63.0208392,60.9022958 66.065582,60.9022958 Z M66.065582,62.9022958 C64.7186943,62.9022958 63.6344756,65.5655835 63.2191737,71.8501806 L68.0688493,71.8501806 C68.0189456,66.4448267 67.1085492,62.9022958 66.065582,62.9022958 Z" id="de"></path>
            <path d="M93.4042969,60.4882812 C96.890625,60.4882812 99.7617188,61.4550781 100.962891,62.1289062 C101.373047,62.3632812 101.724609,62.4804688 102.046875,62.4804688 C102.808594,62.4804688 103.335938,61.8652344 103.541016,60.546875 L104.742188,60.546875 C104.566406,62.890625 104.507812,65.9082031 104.507812,71.3574219 L103.306641,71.3574219 C102.779297,66.9335938 100.845703,61.953125 95.9238281,61.953125 C93.9609375,61.953125 92.3789062,63.2128906 92.3789062,65.2929688 C92.3789062,68.8964844 96.1582031,71.1230469 99.5859375,73.9355469 C103.248047,76.953125 106.060547,79.4726562 106.060547,84.0722656 C106.060547,89.5507812 100.611328,93.3300781 93.9609375,93.3300781 C91.1191406,93.3300781 89.0390625,92.5976562 87.7792969,91.8066406 C86.5195312,91.1621094 85.6699219,90.8105469 84.7617188,90.8105469 C83.9414062,90.8105469 83.3847656,91.7480469 83.0917969,92.890625 L81.890625,92.890625 C82.0664062,90.3125 82.125,86.9726562 82.125,80.9082031 L83.3261719,80.9082031 C84.0585938,87.265625 86.8710938,91.8066406 91.2363281,91.8066406 C93.1113281,91.8066406 94.7226562,90.8105469 94.7226562,88.5253906 C94.7226562,84.9804688 92.3203125,82.9882812 89.15625,80.1171875 C85.5527344,76.8066406 82.125,73.8769531 82.125,69.1308594 C82.125,63.7988281 87.4570312,60.4882812 93.4042969,60.4882812 Z M117.544922,45.546875 C121.675781,45.546875 124.078125,47.3046875 124.078125,50.7324219 C124.078125,54.1308594 121.675781,55.8886719 117.544922,55.8886719 C113.326172,55.8886719 111.011719,54.1308594 111.011719,50.7324219 C111.011719,47.3046875 113.326172,45.546875 117.544922,45.546875 Z M123.287109,60.6933594 L123.287109,86.9140625 C123.287109,90.2539062 124.195312,91.2207031 126.65625,91.2207031 L126.65625,92.4804688 C125.044922,92.421875 121.5,92.2460938 118.130859,92.2460938 C114.791016,92.2460938 110.865234,92.421875 109.136719,92.4804688 L109.136719,91.2207031 C111.597656,91.2207031 112.505859,90.2539062 112.505859,86.9140625 L112.505859,67.8710938 C112.505859,64.2675781 111.65625,62.5976562 109.136719,62.5976562 L109.136719,61.3378906 C110.396484,61.4550781 111.65625,61.5136719 112.857422,61.5136719 C116.871094,61.5136719 120.298828,61.2792969 123.287109,60.6933594 Z M138.287109,84.0722656 L151.910156,84.0722656 C156.65625,84.0722656 160.728516,85.7714844 160.728516,91.1035156 C160.728516,97.1679688 155.103516,103.759766 142.974609,103.759766 C131.929688,103.759766 128.882812,101.123047 128.882812,98.7792969 C128.882812,94.4140625 136.324219,96.9921875 138.755859,94.0332031 L136.792969,94.0332031 C134.390625,94.0332031 129.615234,93.0664062 129.615234,87.7929688 C129.615234,83.8671875 131.666016,81.5527344 137.378906,78.828125 C132.955078,77.4804688 130.083984,74.6386719 130.083984,70.0976562 C130.083984,63.5058594 136.089844,60.4882812 144.175781,60.4882812 C145.435547,60.4882812 146.636719,60.546875 147.779297,60.7226562 C147.75,60.3125 147.720703,59.9023438 147.720703,59.4921875 C147.720703,55.0390625 149.712891,51.5527344 154.488281,51.5527344 C157.330078,51.5527344 159.673828,52.9882812 159.673828,55.5664062 C159.673828,57.8515625 157.505859,59.4921875 154.751953,59.4921875 C151.910156,59.4921875 150.416016,58.3496094 149.390625,56.3574219 C149.097656,57.2070312 148.980469,58.2910156 148.980469,59.4921875 C148.980469,59.9609375 149.009766,60.4296875 149.068359,60.8984375 C154.576172,61.953125 158.267578,64.9121094 158.267578,70.0976562 C158.267578,76.6894531 152.291016,79.7070312 144.175781,79.7070312 C142.125,79.7070312 140.220703,79.5019531 138.492188,79.1210938 C136.998047,80.1171875 136.148438,80.8203125 136.148438,82.109375 C136.148438,83.4863281 136.96875,84.0722656 138.287109,84.0722656 Z M144.175781,61.5722656 C142.271484,61.5722656 141.128906,63.6816406 141.128906,70.0976562 C141.128906,76.5136719 142.271484,78.6230469 144.175781,78.6230469 C146.109375,78.6230469 147.251953,76.5136719 147.251953,70.0976562 C147.251953,63.6816406 146.109375,61.5722656 144.175781,61.5722656 Z M144.615234,102.734375 C149.273438,102.734375 152.408203,99.9804688 152.408203,95.9667969 C152.408203,94.765625 151.734375,94.0332031 149.654297,94.0332031 L139.957031,94.0332031 C139.341797,95.3515625 139.195312,97.2265625 139.195312,97.9296875 C139.195312,100.947266 141.011719,102.734375 144.615234,102.734375 Z M186.246094,60.4882812 C189.908203,60.4882812 191.871094,61.5136719 193.013672,62.890625 C194.214844,64.3261719 194.771484,66.5527344 194.771484,70.6542969 L194.771484,86.9140625 C194.771484,90.2539062 195.679688,91.2207031 198.111328,91.2207031 L198.111328,92.4804688 C196.5,92.421875 192.837891,92.2460938 189.732422,92.2460938 C186.363281,92.2460938 182.818359,92.421875 181.207031,92.4804688 L181.207031,91.2207031 C183.257812,91.2207031 183.960938,90.2539062 183.960938,86.9140625 L183.960938,67.4023438 C183.960938,64.8828125 183.111328,63.6230469 181.03125,63.6230469 C178.804688,63.6230469 176.695312,65.4101562 176.695312,67.9296875 L176.695312,86.9140625 C176.695312,90.2539062 177.427734,91.2207031 179.478516,91.2207031 L179.478516,92.4804688 C177.955078,92.421875 174.673828,92.2460938 171.539062,92.2460938 C168.199219,92.2460938 164.273438,92.421875 162.544922,92.4804688 L162.544922,91.2207031 C165.005859,91.2207031 165.914062,90.2539062 165.914062,86.9140625 L165.914062,67.8710938 C165.914062,64.2675781 165.064453,62.5976562 162.544922,62.5976562 L162.544922,61.3378906 C163.804688,61.4550781 165.064453,61.5136719 166.265625,61.5136719 C170.279297,61.5136719 173.707031,61.2792969 176.695312,60.6933594 L176.695312,65 C178.628906,61.8066406 181.939453,60.4882812 186.246094,60.4882812 Z" id="sign"></path>
            <path d="M136.729857,28.5128013 L136.729857,38.4804687 L140.780548,38.4804688 L140.780548,28.5128013 L150.785156,28.5128013 L150.785156,24.4481362 L140.780548,24.4481362 L140.780548,14.4804687 L136.729857,14.4804688 L136.729857,24.4481362 L126.785156,24.4481362 L126.785156,28.5128013 L136.729857,28.5128013 Z M124.785156,30.5128013 L124.785156,22.4481362 L134.729857,22.4481362 L134.729857,12.4804688 L142.780548,12.4804688 L142.780548,22.4481362 L152.785156,22.4481362 L152.785156,30.5128013 L142.780548,30.5128013 L142.780548,40.4804688 L134.729857,40.4804688 L134.729857,30.5128013 L124.785156,30.5128013 Z" id="+"></path>
        </g>
    </g>
</svg>