<?xml version="1.0" encoding="UTF-8"?>
<svg width="119px" height="62px" viewBox="0 0 119 62" version="1.1" xmlns="http://www.w3.org/2000/svg" xmlns:xlink="http://www.w3.org/1999/xlink">
    <!-- Generator: Sketch 54.1 (76490) - https://sketchapp.com -->
    <title>Logo white</title>
    <desc>Created with Sketch.</desc>
    <g id="Page-1" stroke="none" stroke-width="1" fill="none" fill-rule="evenodd">
        <g id="Landing" transform="translate(-661.000000, -6210.000000)" fill="#EA4637">
            <g id="Logo-white" transform="translate(661.000000, 6210.000000)">
                <g id="Logo">
                    <path d="M19.0609296,0 L19.0609296,0.716083233 C16.871025,0.820875901 16.5031211,1.18765024 16.5031211,3.7900015 L16.5031211,16.889085 C16.5031211,17.7972882 16.5206403,18.810284 16.5206403,19.8232797 C16.5206403,22.111253 16.4330441,24.5040189 15.8899478,26.2156325 C14.8212743,29.5166016 11.1597538,32.049091 5.81638662,32.049091 C4.55500157,32.049091 2.90819331,31.9093675 1.80448139,31.3679387 C0.508057867,30.7217172 0,29.8309796 0,28.6957257 C0,27.0015775 1.40153894,25.9361854 3.5213666,25.9361854 C5.50104036,25.9361854 6.74490617,26.8269231 6.74490617,28.5734675 C6.74490617,29.6213942 6.13173288,30.7217172 4.66011699,31.263146 C4.88786707,31.2980769 5.09809791,31.2980769 5.30832875,31.2980769 C6.92009854,31.2980769 8.00629122,30.2676157 8.47931062,29.0450346 C9.2326378,26.9666466 9.2326378,25.0803786 9.2326378,20.1376578 L9.2326378,3.7900015 C9.2326378,1.18765024 8.82969535,0.820875901 6.67482922,0.716083233 L6.67482922,0 C7.97125275,0.0698617788 10.2662728,0.104792668 12.7014467,0.104792668 C15.0665437,0.104792668 17.5893138,0.0698617788 19.0609296,0 Z M31.7974148,21.9191331 C32.7609728,21.9191331 34.5654542,21.7095478 36.1421855,19.5263672 L36.7553588,19.753418 C35.8443585,22.6352163 33.5143,25.8313927 29.2571255,25.8313927 C24.6495662,25.8313927 20.9530072,23.2814378 20.9530072,16.0682091 C20.9530072,9.18682392 24.9824317,6.25262921 30.185645,6.25262921 C34.3727426,6.25262921 36.9655897,8.50567157 36.9655897,14.2692683 L27.6979134,14.2692683 C27.6628749,14.688439 27.6628749,15.1250751 27.6628749,15.5617112 C27.6628749,20.6092248 29.8527795,21.9191331 31.7974148,21.9191331 Z M29.9228565,7.09097055 C28.6614714,7.09097055 27.8205481,8.85498047 27.5752787,13.588116 L31.7273379,13.588116 C31.7623763,10.095027 31.2543185,7.09097055 29.9228565,7.09097055 Z M46.1807082,6.25262921 C48.2654974,6.25262921 49.9823826,6.82898888 50.7006713,7.23069411 C50.9459406,7.37041767 51.1561715,7.44027945 51.3488831,7.44027945 C51.8043832,7.44027945 52.1197295,7.07350511 52.2423642,6.2875601 L52.9606529,6.2875601 C52.8555375,7.68479567 52.820499,9.48373648 52.820499,12.7323092 L52.1022103,12.7323092 C51.786864,10.095027 50.6305944,7.12590144 47.6873626,7.12590144 C46.5135737,7.12590144 45.5675349,7.87691556 45.5675349,9.11696214 C45.5675349,11.2652118 47.8275165,12.5925856 49.8772672,14.2692683 C52.0671718,16.0682091 53.7490185,17.5702374 53.7490185,20.3123122 C53.7490185,23.5783504 50.4904405,25.8313927 46.5135737,25.8313927 C44.8142078,25.8313927 43.5703419,25.3947566 42.8170148,24.9231896 C42.0636876,24.5389498 41.5556297,24.3293645 41.0125334,24.3293645 C40.5219947,24.3293645 40.1891292,24.8882587 40.0139369,25.5694111 L39.2956482,25.5694111 C39.4007636,24.0324519 39.4358021,22.0413912 39.4358021,18.4260442 L40.1540908,18.4260442 C40.5920717,22.2160457 42.2739184,24.9231896 44.8842847,24.9231896 C46.0055159,24.9231896 46.9690739,24.3293645 46.9690739,22.9670598 C46.9690739,20.853741 45.5324965,19.6660907 43.6404189,17.9544772 C41.4855528,15.9808819 39.4358021,14.2343374 39.4358021,11.4049354 C39.4358021,8.22622446 42.6243032,6.25262921 46.1807082,6.25262921 Z M63.1218102,6.25262921 C65.2065994,6.25262921 66.9234846,6.82898888 67.6417733,7.23069411 C67.8870426,7.37041767 68.0972735,7.44027945 68.2899851,7.44027945 C68.7454852,7.44027945 69.0608315,7.07350511 69.1834662,6.2875601 L69.9017549,6.2875601 C69.7966394,7.68479567 69.761601,9.48373648 69.761601,12.7323092 L69.0433123,12.7323092 C68.727966,10.095027 67.5716964,7.12590144 64.6284646,7.12590144 C63.4546757,7.12590144 62.5086369,7.87691556 62.5086369,9.11696214 C62.5086369,11.2652118 64.7686185,12.5925856 66.8183692,14.2692683 C69.0082738,16.0682091 70.6901205,17.5702374 70.6901205,20.3123122 C70.6901205,23.5783504 67.4315425,25.8313927 63.4546757,25.8313927 C61.7553098,25.8313927 60.5114439,25.3947566 59.7581168,24.9231896 C59.0047896,24.5389498 58.4967317,24.3293645 57.9536354,24.3293645 C57.4630967,24.3293645 57.1302312,24.8882587 56.9550389,25.5694111 L56.2367502,25.5694111 C56.3418656,24.0324519 56.3769041,22.0413912 56.3769041,18.4260442 L57.0951928,18.4260442 C57.5331737,22.2160457 59.2150204,24.9231896 61.8253867,24.9231896 C62.9466179,24.9231896 63.9101759,24.3293645 63.9101759,22.9670598 C63.9101759,20.853741 62.4735985,19.6660907 60.5815209,17.9544772 C58.4266548,15.9808819 56.3769041,14.2343374 56.3769041,11.4049354 C56.3769041,8.22622446 59.5654052,6.25262921 63.1218102,6.25262921 Z" id="Jess" fill-rule="nonzero"></path>
                    <path d="M20.6960206,28.2183061 C20.5124,28.2183061 20.3268931,28.2160529 20.1400426,28.2115663 C20.7998875,28.7966696 21.0848109,29.8637858 21.0848109,31.4293494 L21.0848109,38.0819222 L20.1571601,37.4708531 C19.3121358,36.9142124 18.2609798,36.6573006 16.7735275,36.6573006 C12.1501845,36.6573006 9.43936479,39.814393 9.43936479,45.7633587 C9.43936479,52.0069603 11.9823837,55.1325871 16.1284953,55.1325871 C17.9737334,55.1325871 19.0802806,54.4348579 19.9560324,52.7522861 L21.0848109,50.583577 L21.0848109,54.8589447 C22.6877071,54.6007197 24.5032931,54.4834337 26.6930767,54.4834337 C26.8780533,54.4834337 27.0649442,54.4857204 27.2531945,54.4902733 C26.6000667,53.9064078 26.3217196,52.8412392 26.3217196,51.2723905 L26.3217196,27.8311438 C24.7284493,28.0990372 22.9179277,28.2183061 20.6960206,28.2183061 Z M28.5063682,55.0058104 L28.7052154,54.8253172 L28.4258983,54.5468577 C28.3869606,54.5440564 28.3480315,54.5413464 28.3091161,54.5387287 L28.3091161,54.9778788 C28.3731276,54.9891488 28.4388697,54.9984573 28.5063682,55.0058104 Z M18.8826727,27.6959806 L18.6838818,27.8764227 L18.963199,28.1548822 C19.0021366,28.1576835 19.0410657,28.1603934 19.0799811,28.1630112 L19.0799811,27.7239445 C19.0159255,27.7126647 18.950164,27.7033449 18.8826727,27.6959806 Z M19.888831,31.4293494 C19.888831,29.4765061 19.5211268,28.8674596 18.4819912,28.8674596 L17.8840012,28.8674596 L17.8840012,26.8621252 L18.5379,26.9233416 C19.2646128,26.9913747 19.9956961,27.0259984 20.6960206,27.0259984 C23.1842415,27.0259984 25.122958,26.8733751 26.7991593,26.5294419 L27.5176995,26.3820074 L27.5176995,51.2723905 C27.5176995,53.2342872 27.8749068,53.8342803 28.9071061,53.8342803 L29.505096,53.8342803 L29.505096,55.8396147 L28.8511973,55.7783983 C28.1244844,55.7103651 27.3934012,55.6757414 26.6930767,55.6757414 C24.2435142,55.6757414 22.2923471,55.8255101 20.6018483,56.1558595 L19.888831,56.2951941 L19.888831,54.9006164 C18.9348315,55.8683778 17.7207229,56.3248948 16.1284953,56.3248948 C11.260212,56.3248948 8.24338489,52.6169099 8.24338489,45.7633587 C8.24338489,39.193473 11.4448234,35.4649929 16.7735275,35.4649929 C18.0101264,35.4649929 19.0215691,35.6291814 19.888831,35.9861111 L19.888831,31.4293494 Z M17.9241255,54.4476133 C15.8571372,54.4476133 14.9203398,51.8738164 14.9203398,45.8861715 C14.9203398,39.7629565 16.1080521,36.6580317 18.8132239,36.6580317 C19.4887855,36.6580317 20.1980603,36.8487433 20.8014549,37.2209286 L21.0848109,37.3957081 L21.0848109,51.2723905 C21.0848109,53.0514532 19.6241479,54.4476133 17.9241255,54.4476133 Z M18.8132239,37.8503393 C17.083278,37.8503393 16.1163197,40.3781677 16.1163197,45.8861715 C16.1163197,51.2453776 16.8478829,53.2553056 17.9241255,53.2553056 C18.9746256,53.2553056 19.888831,52.3814716 19.888831,51.2723905 L19.888831,38.084677 C19.5464991,37.9302683 19.1700463,37.8503393 18.8132239,37.8503393 Z M41.3719174,52.3948849 C38.5244261,52.3948849 36.6596681,50.1127266 36.6596681,45.412465 C36.6596681,44.7379299 36.66569,44.4379417 36.6965618,44.0651125 L36.7418647,43.5180043 L45.9072397,43.5180043 C45.7519731,38.7606358 43.69625,36.6573006 39.7680536,36.6573006 C34.4308105,36.6573006 31.1786931,39.8134617 31.1786931,45.9212609 C31.1786931,52.2187154 33.9919275,55.1325871 38.8440886,55.1325871 C41.7298225,55.1325871 43.9048229,53.4851155 45.1482166,50.9307325 C44.0018245,51.9932021 42.7378053,52.3948849 41.3719174,52.3948849 Z M37.855648,45.412465 C37.855648,49.5019457 39.2452388,51.2025772 41.3719174,51.2025772 C42.8021323,51.2025772 44.0487827,50.6699912 45.2085296,49.0489402 L45.475242,48.6761396 L47.0448342,49.2628558 L46.876362,49.8008465 C45.6755545,53.6354453 42.8521976,56.3248948 38.8440886,56.3248948 C33.3209618,56.3248948 29.9827132,52.8672277 29.9827132,45.9212609 C29.9827132,39.1476906 33.7773754,35.4649929 39.7680536,35.4649929 C44.5464972,35.4649929 47.1127316,38.3034729 47.1127316,44.1141581 L47.1127316,44.710312 L37.8609175,44.710312 C37.8568637,44.8935073 37.855648,45.1136571 37.855648,45.412465 Z M39.506554,36.3071379 C41.2733899,36.3071379 41.9433679,39.0859006 41.9001448,43.4358206 L41.8942798,44.0260692 L36.5411169,44.0260692 L36.5732831,43.3994471 C36.8212737,38.5683861 37.6858285,36.3071379 39.506554,36.3071379 Z M39.506554,37.4994456 C38.7011287,37.4994456 38.0527769,39.0871748 37.8044305,42.8337615 L40.7044878,42.8337615 C40.6746459,39.611339 40.130238,37.4994456 39.506554,37.4994456 Z" id="de" fill-rule="nonzero"></path>
                    <path d="M55.8548308,36.0603215 C57.93962,36.0603215 59.6565052,36.6366812 60.3747939,37.0383864 C60.6200632,37.17811 60.830294,37.2479718 61.0230057,37.2479718 C61.4785058,37.2479718 61.7938521,36.8811974 61.9164867,36.0952524 L62.6347754,36.0952524 C62.52966,37.492488 62.4946215,39.2914288 62.4946215,42.5400015 L61.7763328,42.5400015 C61.4609866,39.9027194 60.3047169,36.9335938 57.3614852,36.9335938 C56.1876963,36.9335938 55.2416575,37.6846079 55.2416575,38.9246544 C55.2416575,41.0729041 57.5016391,42.4002779 59.5513898,44.0769606 C61.7412944,45.8759014 63.4231411,47.3779297 63.4231411,50.1200045 C63.4231411,53.3860427 60.164563,55.639085 56.1876963,55.639085 C54.4883303,55.639085 53.2444645,55.2024489 52.4911373,54.7308819 C51.7378101,54.3466421 51.2297523,54.1370568 50.6866559,54.1370568 C50.1961173,54.1370568 49.8632518,54.695951 49.6880594,55.3771034 L48.9697707,55.3771034 C49.0748861,53.8401442 49.1099246,51.8490835 49.1099246,48.2337365 L49.8282133,48.2337365 C50.2661943,52.023738 51.948041,54.7308819 54.5584073,54.7308819 C55.6796384,54.7308819 56.6431965,54.1370568 56.6431965,52.7747521 C56.6431965,50.6614333 55.206619,49.4737831 53.3145415,47.7621695 C51.1596753,45.7885742 49.1099246,44.0420297 49.1099246,41.2126277 C49.1099246,38.0339168 52.2984257,36.0603215 55.8548308,36.0603215 Z M70.2906819,27.1529447 C72.7608943,27.1529447 74.1974717,28.2008714 74.1974717,30.2443284 C74.1974717,32.27032 72.7608943,33.3182467 70.2906819,33.3182467 C67.7679118,33.3182467 66.3838921,32.27032 66.3838921,30.2443284 C66.3838921,28.2008714 67.7679118,27.1529447 70.2906819,27.1529447 Z M73.7244523,36.1825796 L73.7244523,51.8141526 C73.7244523,53.8052133 74.2675487,54.381573 75.7391646,54.381573 L75.7391646,55.1325871 C74.7756065,55.0976562 72.6557789,54.9928636 70.6410667,54.9928636 C68.6438737,54.9928636 66.2962959,55.0976562 65.262661,55.1325871 L65.262661,54.381573 C66.7342769,54.381573 67.2773732,53.8052133 67.2773732,51.8141526 L67.2773732,40.4616136 C67.2773732,38.3133639 66.7693153,37.3178335 65.262661,37.3178335 L65.262661,36.5668194 C66.0159881,36.6366812 66.7693153,36.6716121 67.487604,36.6716121 C69.8877395,36.6716121 71.9374902,36.5318885 73.7244523,36.1825796 Z M82.6943016,50.1200045 L90.8407467,50.1200045 C93.6788631,50.1200045 96.114037,51.1330003 96.114037,54.3117112 C96.114037,57.9270583 92.7503435,61.8567834 85.4973795,61.8567834 C78.8926272,61.8567834 77.0706266,60.2848933 77.0706266,58.8876578 C77.0706266,56.2853065 81.5205127,57.8222656 82.9746094,56.0582557 L81.8008205,56.0582557 C80.3642431,56.0582557 77.5086075,55.481896 77.5086075,52.338116 C77.5086075,49.9977464 78.7349541,48.6179763 82.1512052,46.9936899 C79.5058005,46.1902794 77.7889153,44.4961313 77.7889153,41.7889874 C77.7889153,37.8592623 81.3803588,36.0603215 86.2156682,36.0603215 C86.9689954,36.0603215 87.6872841,36.0952524 88.3705343,36.2000451 C88.3530151,35.9555288 88.3354958,35.7110126 88.3354958,35.4664964 C88.3354958,32.8117488 89.5268039,30.7333609 92.3824395,30.7333609 C94.0818055,30.7333609 95.4833445,31.5891677 95.4833445,33.1261268 C95.4833445,34.4884315 94.1869209,35.4664964 92.5401127,35.4664964 C90.8407467,35.4664964 89.9472656,34.7853441 89.3340923,33.5976938 C89.1589,34.1041917 89.088823,34.7504132 89.088823,35.4664964 C89.088823,35.7459435 89.1063423,36.0253906 89.1413807,36.3048377 C92.4349973,36.9335938 94.6424211,38.6976037 94.6424211,41.7889874 C94.6424211,45.7187124 91.0684968,47.5176532 86.2156682,47.5176532 C84.9893216,47.5176532 83.8505712,47.3953951 82.8169362,47.1683444 C81.9234552,47.7621695 81.4153973,48.1813401 81.4153973,48.9498197 C81.4153973,49.7706956 81.9059359,50.1200045 82.6943016,50.1200045 Z M86.2156682,36.706543 C85.0769178,36.706543 84.3936676,37.964055 84.3936676,41.7889874 C84.3936676,45.6139198 85.0769178,46.8714318 86.2156682,46.8714318 C87.3719378,46.8714318 88.055188,45.6139198 88.055188,41.7889874 C88.055188,37.964055 87.3719378,36.706543 86.2156682,36.706543 Z M86.4784567,61.2454928 C89.2640154,61.2454928 91.1385737,59.603741 91.1385737,57.2109751 C91.1385737,56.4948918 90.7356313,56.0582557 89.4917655,56.0582557 L83.6928981,56.0582557 C83.3249941,56.8442007 83.2373979,57.9619892 83.2373979,58.3811599 C83.2373979,60.1801007 84.3235906,61.2454928 86.4784567,61.2454928 Z M111.373292,36.0603215 C113.563197,36.0603215 114.736986,36.6716121 115.420236,37.492488 C116.138525,38.3482948 116.47139,39.6756686 116.47139,42.1208308 L116.47139,51.8141526 C116.47139,53.8052133 117.014486,54.381573 118.468583,54.381573 L118.468583,55.1325871 C117.505025,55.0976563 115.315121,54.9928636 113.458081,54.9928636 C111.443369,54.9928636 109.323542,55.0976563 108.359984,55.1325871 L108.359984,54.381573 C109.58633,54.381573 110.006792,53.8052133 110.006792,51.8141526 L110.006792,40.1821665 C110.006792,38.6801382 109.498734,37.9291241 108.254868,37.9291241 C106.923406,37.9291241 105.662021,38.9945162 105.662021,40.4965445 L105.662021,51.8141526 C105.662021,53.8052133 106.100002,54.381573 107.326349,54.381573 L107.326349,55.1325871 C106.415348,55.0976563 104.453194,54.9928636 102.578635,54.9928636 C100.581442,54.9928636 98.2338646,55.0976563 97.2002297,55.1325871 L97.2002297,54.381573 C98.6718456,54.381573 99.2149419,53.8052133 99.2149419,51.8141526 L99.2149419,40.4616136 C99.2149419,38.3133639 98.706884,37.3178335 97.2002297,37.3178335 L97.2002297,36.5668194 C97.9535568,36.6366812 98.706884,36.6716121 99.4251727,36.6716121 C101.825308,36.6716121 103.875059,36.5318885 105.662021,36.1825796 L105.662021,38.75 C106.818291,36.8462665 108.797964,36.0603215 111.373292,36.0603215 Z" id="sign" fill-rule="nonzero"></path>
                    <path d="M81.7630801,16.9980162 L81.7630801,22.9402794 L84.1853528,22.9402794 L84.1853528,16.9980162 L90.168008,16.9980162 L90.168008,14.5748504 L84.1853528,14.5748504 L84.1853528,8.63258714 L81.7630801,8.63258714 L81.7630801,14.5748504 L75.8162492,14.5748504 L75.8162492,16.9980162 L81.7630801,16.9980162 Z M74.6202693,18.1903239 L74.6202693,13.3825427 L80.5671002,13.3825427 L80.5671002,7.44027945 L85.3813327,7.44027945 L85.3813327,13.3825427 L91.3639879,13.3825427 L91.3639879,18.1903239 L85.3813327,18.1903239 L85.3813327,24.1325871 L80.5671002,24.1325871 L80.5671002,18.1903239 L74.6202693,18.1903239 Z" id="+" fill-rule="nonzero"></path>
                </g>
            </g>
        </g>
    </g>
</svg>