<?xml version="1.0" encoding="UTF-8"?>
<svg width="102px" height="102px" viewBox="0 0 102 102" version="1.1" xmlns="http://www.w3.org/2000/svg" xmlns:xlink="http://www.w3.org/1999/xlink">
    <!-- Generator: Sketch 54.1 (76490) - https://sketchapp.com -->
    <title>Group 8</title>
    <desc>Created with Sketch.</desc>
    <g id="Page-1" stroke="none" stroke-width="1" fill="none" fill-rule="evenodd">
        <g id="Landing" transform="translate(-866.000000, -2087.000000)">
            <g id="Group-8" transform="translate(866.000000, 2087.000000)">
                <path d="M17.4271944,4.86167916 C29.413634,1.62055972 40.9614354,1.3604801e-15 52.0705984,0 C62.9290252,0 73.7807544,1.54823247 84.6257859,4.64469741 L84.6257866,4.64469488 C90.6999987,6.37899919 95.4205464,11.1704985 97.0640461,17.269906 C100.354682,29.4822169 102,41.1566242 102,52.293128 C102,63.2379102 100.410845,74.1743866 97.232534,85.1025572 L97.2325357,85.1025577 C95.5173772,90.9998871 90.9137015,95.6156885 85.0209041,97.3463537 C74.4573377,100.448785 63.4739024,102 52.0705984,102 C40.3905479,102 28.7034571,100.372578 17.0093261,97.1177343 L17.0093264,97.1177331 C11.0228812,95.4515174 6.31921607,90.8153918 4.56659871,84.8536695 C1.52219957,74.4978081 6.95058473e-16,63.6442943 0,52.293128 C0,40.6999144 1.58780914,29.098402 4.76342742,17.4885909 L4.76342833,17.4885911 C6.44741651,11.3320625 11.265784,6.5277174 17.4271944,4.86167916 Z" id="Rectangle-Copy-4" fill="#1E2059"></path>
                <g id="otg_og-copy" transform="translate(15.000000, 26.000000)" fill-rule="nonzero">
                    <path d="M14.1877719,1.31596162 C14.6262554,1.67753748 15.0088862,2.10629984 15.3224489,2.58744003 C15.6752773,3.12333164 15.9728069,3.69610295 16.2101457,4.29633668 C16.4681795,4.94319683 16.6636183,5.61496954 16.7935916,6.30178805 C17.0688028,7.74467299 17.0688028,9.22937848 16.7935916,10.6722634 C16.6636183,11.3590819 16.4681795,12.0308546 16.2101457,12.6777148 C15.9705356,13.2782614 15.6706006,13.8510442 15.31529,14.3866114 C15.0017713,14.8677877 14.6191347,15.2965566 14.180613,15.6580898 C13.8578354,15.9302679 13.5073679,16.1651926 13.1354216,16.3587004 C12.7663873,16.5391469 12.3784194,16.674735 11.9792681,16.7627562 C11.5263886,16.8617467 11.0668991,16.9249466 10.6047698,16.9518099 C10.1084231,16.9839366 9.55480577,17 8.94391763,17 L7.99895003,17 C7.40237958,17 6.85950047,16.9839366 6.3703127,16.9518099 C5.9152606,16.9251516 5.46289394,16.8619438 5.01729092,16.7627562 C4.61877253,16.6723581 4.23105882,16.5368588 3.86113739,16.3587004 C3.48749707,16.1748121 3.13756925,15.9431791 2.81952539,15.6692106 C2.38096548,15.30772 1.99832308,14.8789446 1.68484839,14.3977322 C1.32953785,13.862165 1.02960284,13.2893822 0.789992716,12.6888356 C0.531869965,12.0420082 0.336428452,11.3702262 0.206546816,10.6833842 C-0.0688489388,9.24051798 -0.0688489388,7.75577508 0.206546816,6.31290885 C0.336451384,5.6260727 0.531892221,4.95429303 0.789992716,4.30745748 C1.02960284,3.70691083 1.32953785,3.13412805 1.68484839,2.59856084 C1.99641032,2.11370655 2.3778691,1.68115436 2.81594596,1.31596162 C3.13532442,1.04204612 3.48642864,0.810430402 3.86113739,0.626471871 C4.23104805,0.448285592 4.61876478,0.312785247 5.01729092,0.222416049 C5.46326989,0.128197724 5.91563399,0.069947705 6.3703127,0.0481901439 C6.84756906,0.0160633813 7.39044817,0 7.99895003,0 L9.00834723,0 C9.60491768,0 10.1477968,0.0160633813 10.6369846,0.0481901439 C11.0920353,0.0748632628 11.5444009,0.138070934 11.9900063,0.237243785 C12.3854012,0.326399177 12.769689,0.461960245 13.1354216,0.641299608 C13.5086007,0.826361001 13.8614235,1.05255574 14.1877719,1.31596162 L14.1877719,1.31596162 Z M11.3242337,7.83275185 C11.3242337,7.27918302 11.3087229,6.63788341 11.2777012,5.90885303 C11.2472728,5.1887301 11.1779623,4.47093437 11.0700947,3.75883123 C10.9731258,3.09738696 10.8198053,2.44613143 10.6119286,1.8126908 C10.4710486,1.31024704 10.1925455,0.860871591 9.81013792,0.518970781 C9.68472135,0.416343722 9.55053463,0.325767072 9.40924258,0.248364588 C9.28188702,0.195927305 9.14527626,0.17192669 9.00834723,0.177932839 L7.99895003,0.177932839 C7.86201421,0.171814437 7.72538092,0.19581901 7.59805469,0.248364588 C7.45707785,0.322047615 7.3228894,0.408903057 7.19715935,0.507849978 C6.8135551,0.850768197 6.53179705,1.29938732 6.3846304,1.80157 C6.16757352,2.43573337 6.00936382,3.08987486 5.9121466,3.75512429 C5.80393474,4.46718164 5.73462231,5.18499746 5.70454008,5.9051461 C5.67351842,6.63417648 5.65800759,7.27547609 5.65800759,7.82904492 L5.65800759,9.15983428 C5.65800759,9.71340311 5.67351842,10.3547027 5.70454008,11.0837331 C5.73461471,11.8038823 5.80392719,12.5216986 5.9121466,13.2337549 C6.0086234,13.8963749 6.16562933,14.5480122 6.38105097,15.1798953 C6.52803762,15.6821648 6.80982612,16.1308324 7.19357993,16.4736154 C7.31922474,16.5737603 7.45341001,16.6618545 7.59447527,16.7368077 C7.72183082,16.789245 7.85844159,16.8132456 7.99537061,16.8072394 L9.00476781,16.8072394 C9.14340779,16.811424 9.28131097,16.7848831 9.40924258,16.7293938 C9.55021068,16.6542648 9.68438103,16.5661804 9.81013792,16.4662015 C10.1928593,16.1245828 10.471427,15.6751032 10.6119286,15.1724815 C10.8198233,14.5390463 10.9731442,13.8877891 11.0700947,13.226341 C11.1779697,12.5142389 11.2472802,11.7964427 11.2777012,11.0763192 C11.3087229,10.3472889 11.3242337,9.70598924 11.3242337,9.15242041 L11.3242337,7.83275185 L11.3242337,7.83275185 Z" id="Shape" fill="#FFFFFF"></path>
                    <path d="M24.0284006,5.34102221 C23.8629796,5.34102221 23.6327853,5.33000966 23.3378176,5.30798458 C23.0435878,5.28657738 22.7536487,5.21871188 22.4768311,5.10645507 C22.1989356,4.99620367 21.9467075,4.81902921 21.7384155,4.58776436 C21.5133145,4.32002562 21.3985956,3.9612231 21.4215247,3.59663562 C21.4199713,3.3905344 21.4729666,3.18842611 21.573991,3.01517342 C21.6690534,2.86216524 21.7220065,2.68201899 21.7264574,2.49648271 C21.7242812,2.40780165 21.6750854,2.32884053 21.6008969,2.2949532 C21.5023124,2.24219814 21.3934452,2.21722813 21.284006,2.22227042 L21.1883408,2.22227042 C20.9745255,2.2011593 20.7654762,2.30052366 20.632287,2.48657142 C20.5128177,2.6810701 20.4521213,2.91236705 20.4588939,3.14732392 C20.4470023,3.59682646 20.5320547,4.04300572 20.7070254,4.44900634 C20.8669425,4.81392928 21.1025239,5.13200044 21.3946188,5.37736359 C21.6950813,5.62421149 22.0363064,5.80377856 22.3991031,5.90596559 C22.8052445,6.02173619 23.2233308,6.07837938 23.6427504,6.07445748 L23.6427504,6.24294936 L21.9686099,6.24294936 L21.9686099,16.8315081 L23.4035874,16.8315081 L23.4035874,17 L17,17 L17,16.8315081 L18.4559043,16.8315081 L18.4559043,6.22973431 L17,6.22973431 L17,6.06124243 L18.4559043,6.06124243 C18.4299869,5.35135105 18.5315943,4.64281908 18.754858,3.9765683 C18.9278115,3.49134009 19.2109484,3.06352453 19.5769806,2.73435361 C19.9050244,2.44745631 20.2887456,2.2484338 20.6980568,2.15289141 C21.1106339,2.05424759 21.5315396,2.00441047 21.9536622,2.0042221 C22.7606167,1.96036928 23.5521653,2.25943824 24.1659193,2.84007401 C24.7219731,3.39730861 25,4.226553 25,5.32780716 L24.0284006,5.34102221 Z" id="Path" fill="#FFFFFF"></path>
                    <path d="M32.0547637,5.34102221 C31.8887222,5.34102221 31.6576644,5.33000966 31.3615904,5.30798458 C31.0662569,5.28657738 30.7752303,5.21871188 30.4973743,5.10645507 C30.2184365,4.99620367 29.9652623,4.81902921 29.756189,4.58776436 C29.5302437,4.32002562 29.4150944,3.9612231 29.4381095,3.59663562 C29.4365504,3.3905344 29.4897444,3.18842611 29.5911478,3.01517342 C29.6865668,2.86216524 29.7397184,2.68201899 29.744186,2.49648271 C29.7420016,2.40780165 29.6926213,2.32884053 29.6181545,2.2949532 C29.5192003,2.24219814 29.4099247,2.21722813 29.300075,2.22227042 L29.204051,2.22227042 C28.9894337,2.2011593 28.7796003,2.30052366 28.6459115,2.48657142 C28.525994,2.6810701 28.46507,2.91236705 28.471868,3.14732392 C28.4599318,3.59682646 28.5453032,4.04300572 28.7209302,4.44900634 C28.8780199,4.81253183 29.110283,5.13048044 29.3990998,5.37736359 C29.7006892,5.62421149 30.0431943,5.80377856 30.4073518,5.90596559 C30.8150166,6.02173619 31.2346711,6.07837938 31.6556639,6.07445748 L31.6556639,6.24294936 L29.9782446,6.24294936 L29.9782446,16.8315081 L31.4186047,16.8315081 L31.4186047,17 L25,17 L25,16.8315081 L26.4613653,16.8315081 L26.4613653,6.22973431 L25,6.22973431 L25,6.06124243 L26.4613653,6.06124243 C26.4353507,5.35135105 26.5373392,4.64281908 26.7614404,3.9765683 C26.93166,3.49280449 27.2116316,3.06513188 27.5746437,2.73435361 C27.9039179,2.44745631 28.2890785,2.2484338 28.699925,2.15289141 C29.1140496,2.05424759 29.5365341,2.00441047 29.9602401,2.0042221 C30.7702214,1.96036928 31.5647391,2.25943824 32.1807952,2.84007401 C32.7269317,3.40611865 33,4.23976805 33,5.34102221 L32.0547637,5.34102221 Z" id="Path" fill="#FFFFFF"></path>
                    <path d="M47,2 L47,7.59322034 L46.7972534,7.59322034 C46.803569,6.97079521 46.6848982,6.35300246 46.4476904,5.77341659 C46.1543497,5.11304985 45.7912478,4.48310394 45.3640449,3.89339875 C45.1430274,3.56833536 44.8851127,3.26766657 44.5950062,2.99687779 C44.3723512,2.7966317 44.1246004,2.62358891 43.8574282,2.48171276 C43.6391611,2.36797119 43.4030489,2.28888756 43.1583021,2.24754683 C42.9400155,2.21215824 42.7190247,2.19425496 42.497628,2.19402319 L42.497628,16.8293934 L44.7348315,16.8293934 L44.7348315,17 L35.3315855,17 L35.3315855,16.8293934 L37.568789,16.8293934 L37.568789,2.19402319 C37.3347013,2.19566608 37.1010463,2.21355422 36.8696629,2.24754683 C36.5992304,2.28787873 36.3358008,2.36328224 36.0866417,2.47167707 C35.7902428,2.60207538 35.5119501,2.76726046 35.2581773,2.96342551 C34.9437766,3.21371921 34.6734915,3.51077809 34.4576779,3.84322034 C34.0342988,4.42104799 33.7054284,5.05725702 33.482397,5.72992864 C33.307428,6.32192096 33.2203492,6.93452434 33.2237203,7.54973238 L33,7.54973238 L33,2 L47,2 Z" id="Path" fill="#FFFFFF"></path>
                    <path d="M58.4125728,16.7940731 L60,16.7940731 L60,16.9816137 L53.5688009,16.9816137 L53.5688009,16.7940731 L54.3608847,16.7940731 L54.3608847,8.645252 C54.3660553,8.16527838 54.3486463,7.68533334 54.3087311,7.20744106 C54.2799197,6.89652805 54.227575,6.58896703 54.1522701,6.28812459 C54.0777926,5.95503389 53.8043781,5.72832473 53.5003492,5.74756652 C53.2953959,5.74672997 53.0939642,5.8076663 52.9168801,5.92407528 C52.7314417,6.04583989 52.5624022,6.19691311 52.414901,6.37270171 C52.2608277,6.55466775 52.1212151,6.75154466 51.9976717,6.96106424 C51.874695,7.15950613 51.7657072,7.36852573 51.6717113,7.58619944 C51.5853228,7.84468401 51.5262424,8.11375493 51.4956927,8.38784339 C51.4283237,8.86325221 51.3967016,9.34423522 51.4011641,9.82565434 L51.4011641,16.8124594 L52.193248,16.8124594 L52.193248,17 L46,17 L46,16.8124594 L47.56461,16.8124594 L47.56461,0.683971447 L46,0.683971447 L46,0.492753623 L47.56461,0.492753623 C48.1035312,0.463335496 48.6076834,0.421659817 49.0770664,0.367726584 C49.4769111,0.343211479 49.8941405,0.299084289 50.3287544,0.235345014 C50.6923092,0.189448988 51.0520178,0.110748585 51.4044237,0 L51.4044237,7.65606749 C51.4848155,7.39623025 51.5943592,7.14907072 51.7303842,6.92061432 C51.8564222,6.70978441 51.9954986,6.49405148 52.1476135,6.27341553 C52.4593409,5.89130938 52.8392729,5.58802134 53.2623981,5.3835172 C53.6933417,5.155472 54.1493817,4.9934623 54.6183935,4.90179537 L54.8172293,4.90179537 L55.1431898,4.87973178 L55.5082654,4.85766818 L55.8016298,4.85766818 C55.9794829,4.86019148 56.156986,4.87616211 56.3329453,4.90547264 C56.5161393,4.93176498 56.695057,4.98748847 56.8642608,5.0709496 C57.0722491,5.14947137 57.2640491,5.27454417 57.4281723,5.43867618 C57.5912374,5.5990106 57.7319004,5.78621109 57.8454016,5.99394333 C58.0759692,6.38397864 58.2293879,6.8254496 58.295227,7.2883409 C58.3583969,7.74824176 58.3900003,8.21295801 58.3897555,8.67834739 L58.4125728,16.7940731 Z" id="Path" fill="#FFFFFF"></path>
                    <path d="M65.1164599,11.7537716 C65.1164599,12.2844645 65.1434919,12.8215256 65.1975559,13.364955 C65.2406901,13.8699022 65.3694479,14.3633571 65.5780835,14.8232989 C65.7726882,15.2455241 66.0728384,15.6079478 66.4483065,15.8740707 C66.9151756,16.169345 67.4594242,16.3115797 68.0078458,16.2816428 C68.444017,16.2908662 68.8770093,16.2039813 69.2773109,16.0269103 C69.6356129,15.8618303 69.9604121,15.6296191 70.234868,15.3423165 C70.5134056,15.0484221 70.7487435,14.7148633 70.9335416,14.3520437 C71.1355212,13.974972 71.3126615,13.5845786 71.463785,13.1834581 L71.6634061,13.202563 C71.4840942,13.7174967 71.2758091,14.2214321 71.0395903,14.7118534 C70.8261266,15.165284 70.5309049,15.5736071 70.1693674,15.9154648 C69.781985,16.2723121 69.3263815,16.5433549 68.8312826,16.711504 C68.1922437,16.9183102 67.5239577,17.0151567 66.8537867,16.9980781 C66.494053,16.9980781 66.1748672,16.9917098 65.8962295,16.9789732 C65.6097527,16.9635801 65.3255223,16.9187759 65.0478401,16.8452386 C64.7360084,16.7606763 64.4322395,16.6477164 64.1401882,16.507718 C63.7522184,16.3236152 63.3779688,16.1107694 63.020439,15.8708866 C62.4093349,15.4588597 61.9163587,14.8885694 61.5919009,14.2183091 C61.1779263,13.377957 60.9753355,12.4456358 61.002395,11.5054074 C60.9863156,10.7766673 61.098293,10.0508831 61.3330174,9.36246975 C61.5275593,8.80799336 61.8227934,8.29594751 62.2032404,7.85317935 C62.5451082,7.46015564 62.9501633,7.12956594 63.4009666,6.87564316 C63.8220359,6.63887684 64.2677126,6.45090571 64.7296941,6.31523154 C65.1375788,6.1936728 65.5550189,6.10844284 65.9773256,6.06049898 C66.3703295,6.02016633 66.6999122,6 66.9660735,6 C67.5487261,6.00203121 68.1300747,6.05637123 68.7034004,6.162392 C69.2729054,6.26058778 69.8228693,6.45311175 70.3315595,6.7323561 C70.8118972,6.99997247 71.2225646,7.38099667 71.5292857,7.84362688 C71.8608344,8.38313451 72.0239936,9.01274457 71.9971475,9.64904388 C72.0188117,10.0261909 71.8854215,10.3954745 71.6290962,10.6679741 C71.3680346,10.9214819 71.0531398,11.1100021 70.708968,11.2188333 C70.3237119,11.344297 69.9243806,11.4191957 69.520599,11.4417242 C69.0943249,11.4693203 68.6950828,11.4831183 68.3228728,11.4831183 L65.1164599,11.4831183 L65.1164599,11.7537716 Z M66.5543551,6.1846811 C66.2454733,6.18512995 65.9555161,6.33668558 65.7745855,6.59225319 C65.5713741,6.88710557 65.4252724,7.21891041 65.3441526,7.56978938 C65.2395366,7.99441616 65.1758126,8.42846221 65.1538888,8.86574126 C65.1268568,9.33487372 65.1133408,9.7806557 65.1133408,10.2030872 L65.1133408,11.2857006 L66.8725012,11.2857006 C67.0092983,11.2789559 67.1456729,11.2651402 67.2811005,11.2443065 C67.4788873,11.2222088 67.6646254,11.136325 67.8113439,10.9991264 C67.8969068,10.9085442 67.961868,10.7998284 68.0016077,10.6807107 C68.0474434,10.5549304 68.080879,10.4247975 68.1014182,10.2922436 C68.1201327,10.1616931 68.135728,10.0470635 68.1419662,9.94517047 C68.1482044,9.84327745 68.1419662,9.773226 68.1419662,9.73183196 C68.1518877,9.1303891 68.1080389,8.5292763 68.0109649,7.93596743 C67.9524966,7.55923202 67.8345169,7.19468225 67.6616281,6.85653822 C67.5510944,6.63546678 67.3812571,6.45104257 67.1719327,6.32478401 C67.0030311,6.23229662 66.8146336,6.18312175 66.6229749,6.18149695 L66.5543551,6.1846811 Z" id="Shape" fill="#FFFFFF"></path>
                    <path d="M17.4646598,35.7439484 C17.4711771,36.4576587 17.5357742,37.1696951 17.6578262,37.8731714 C17.6993436,38.1369705 17.7594378,38.3975857 17.8376708,38.6531186 C17.9087132,38.8890663 18.0012336,39.1181722 18.1140987,39.3376292 C18.2055499,39.5212365 18.3322345,39.685536 18.4871098,39.8213939 C18.6303434,39.940586 18.8128011,40.0038051 19,39.9991034 C18.2323714,40.0133261 17.4711978,39.8581768 16.7719249,39.5449569 C16.1444949,39.2573432 15.5790929,38.852852 15.1066969,38.3536452 C14.6381969,37.8512693 14.2597683,37.2736721 13.9876637,36.6456595 C13.7055438,36.0057813 13.5052814,35.3336358 13.3915121,34.6447823 C13.198793,35.0015353 12.87987,35.2756692 12.4956194,35.4148567 C12.0563724,35.6037928 11.5988704,35.7482349 11.1301324,35.8459668 C10.5345955,35.9772599 9.92813882,36.0543701 9.31836435,36.076331 L8.44245442,36.076331 C7.88737841,36.076331 7.38225925,36.0620703 6.92709693,36.033549 C6.50369469,36.0098958 6.08279135,35.9537814 5.66818455,35.8657123 C5.29803724,35.7907699 4.93730815,35.6760008 4.59244726,35.523457 C4.24481246,35.3601756 3.91922755,35.1545404 3.62328456,34.9113465 C3.21522867,34.5904248 2.85920096,34.2097696 2.56753,33.7825622 C2.23693307,33.3071 1.95786004,32.7985988 1.73491599,32.2654496 C1.49489162,31.6911628 1.31304842,31.0947872 1.19205166,30.4850638 C0.935982779,29.2041094 0.935982779,27.8860277 1.19205166,26.6050733 C1.31306965,25.9953551 1.49491222,25.3989815 1.73491599,24.8246874 C1.95786004,24.2915383 2.23693307,23.7830371 2.56753,23.3075749 C2.85924194,22.8803996 3.21526425,22.4997501 3.62328456,22.1787906 C3.91953379,21.9360109 4.24506435,21.7304101 4.59244726,21.5666801 C4.93769225,21.4082631 5.29957042,21.2879655 5.67151501,21.2079702 C6.08511602,21.1211761 6.50489841,21.066163 6.92709693,21.0434244 C7.37115773,21.0149031 7.87627689,21.0006425 8.44245442,21.0006425 L9.21178976,21.0006425 C9.63626631,20.9936694 10.0597458,21.0434851 10.4707021,21.1487337 C10.8259508,21.2474612 11.1390136,21.3461887 11.4098907,21.4449162 L12.0759819,21.6983168 C12.1822242,21.7375265 12.2856985,21.783702 12.3857143,21.8365353 C12.4789671,21.885899 12.5755503,21.9319718 12.6721336,21.9747538 C12.7789972,22.0193053 12.8907739,22.0513357 13.0051792,22.0701903 C13.1672171,22.0940899 13.3309355,22.105095 13.4947562,22.1030995 C13.8546291,22.119817 14.2141038,22.0626702 14.5505108,21.9352628 C14.7592529,21.8508863 14.948474,21.72549 15.1066969,21.5666801 C15.2096617,21.4647414 15.2832412,21.3375059 15.3198461,21.1980975 C15.3398288,21.0862063 15.3531507,21.0236789 15.3531507,21.0072243 L15.5230039,21.0072243 L15.5230039,27.0164378 L15.3531507,27.0164378 C15.3285894,26.6454654 15.226532,26.283541 15.0534096,25.9534718 C14.8535823,25.5146829 14.6404331,25.0967365 14.4139621,24.6996326 C14.2180419,24.3432835 13.9965555,24.0012509 13.7512013,23.6761576 C13.5048411,23.3448118 13.2222661,23.0413114 12.9085959,22.7711556 C12.6665828,22.5737006 12.4145783,22.3773425 12.1525824,22.1820815 C11.8733507,21.9761759 11.5730857,21.7997 11.2566898,21.6555349 C10.9043416,21.4951589 10.5359888,21.3716264 10.1576393,21.2869522 C9.72038246,21.1907295 9.27340384,21.144354 8.82545686,21.1487337 L8.41914123,21.1487337 C8.29172997,21.143302 8.16460021,21.1646126 8.04613015,21.2112611 C7.91500419,21.2767543 7.79015631,21.3538578 7.67311908,21.4416253 C7.31916705,21.7431387 7.06602384,22.1435888 6.94707966,22.5901551 C6.77553396,23.1599735 6.65517143,23.743629 6.58739041,24.3343409 C6.50137887,24.9673178 6.45134354,25.6045613 6.43751989,26.2430725 C6.42863868,26.8858981 6.42419807,27.4563237 6.42419807,27.954349 L6.42419807,29.1357881 C6.42419807,29.6272316 6.43085898,30.1965601 6.44418081,30.8437737 C6.45799748,31.4822852 6.50803284,32.1195291 6.59405133,32.7525053 C6.67039258,33.3383661 6.79855039,33.9164884 6.97705377,34.4802365 C7.09560854,34.926969 7.34881923,35.3275258 7.70309318,35.6287663 C7.82005128,35.7175981 7.94489629,35.7958014 8.07610426,35.8624214 C8.19457431,35.9090699 8.32170407,35.9303805 8.44911533,35.9249488 L9.32502526,35.9249488 C9.9464063,35.8430374 10.531127,35.5872618 11.010236,35.1877835 C11.2453139,34.9933969 11.4565687,34.7725008 11.6396922,34.5296002 C11.8658271,34.2370024 12.0558914,33.9188339 12.2058697,33.5818162 C12.3909738,33.1654924 12.5305348,32.7308187 12.6221767,32.2851951 C12.7352388,31.7303266 12.7954501,31.1662126 12.8020213,30.6002459 L12.6321681,29.6524619 C12.5418074,29.434501 12.4068837,29.2373191 12.2358438,29.0732606 C12.1049562,28.9523776 11.9582112,28.8494367 11.7995541,28.7672054 C11.6373194,28.6961686 11.4637185,28.6538406 11.2866639,28.6421506 L8.83211777,28.6421506 L8.83211777,28.4512774 L12.7986909,28.4512774 C13.6504429,28.5134461 14.4631951,28.8289509 15.1300101,29.3562795 C15.453753,29.6072135 15.7436404,29.8980832 15.9925982,30.2217905 C16.2967866,30.6204206 16.5475392,31.0562403 16.7386204,31.5184116 C16.9798607,32.1027902 17.1584604,32.710541 17.2714933,33.3317066 C17.4120516,34.1280528 17.4767236,34.9356691 17.4646598,35.7439484 Z" id="Path" fill="#F7482D"></path>
                    <path d="M30,35.7633022 L30,35.926431 L24.8680696,35.926431 L24.8680696,34.6469894 L24.7283618,34.7301531 C24.2378325,35.0158951 23.6945247,35.2995046 23.0984384,35.5809818 C22.5448416,35.8506442 21.9411289,35.9935927 21.3288072,35.9999989 L21.2294595,35.9999989 C20.9496327,36.0002886 20.6723849,35.9448981 20.4129454,35.8368701 C20.147279,35.7280754 19.903956,35.5685458 19.6957791,35.3666753 C19.4779787,35.1528019 19.305657,34.8946632 19.1897267,34.6086062 C19.0591296,34.2844148 18.9946661,33.9360083 19.0003451,33.5850529 C18.9993693,33.367657 19.0329286,33.1515615 19.0996928,32.9453321 C19.1637234,32.7448234 19.2502002,32.5526792 19.357376,32.372782 C19.4639765,32.2031807 19.5912715,32.0483822 19.7361391,31.9121831 C19.9184419,31.7327409 20.1112928,31.5650302 20.3135977,31.4100022 C20.5205721,31.2458072 20.7430696,31.0848109 20.9810902,30.9270131 C21.2191108,30.7692153 21.4478175,30.6295429 21.6672104,30.5079959 C22.1701582,30.2073272 22.7041521,29.9141218 23.2691923,29.6283799 C23.8342324,29.3426379 24.3682264,29.062227 24.8711742,28.787147 L24.8711742,28.2753704 C24.8713004,27.9194553 24.8516055,27.5638258 24.8121865,27.2102353 C24.7774747,26.8753191 24.6827318,26.549949 24.532771,26.2506541 C24.3895835,25.9655286 24.1752616,25.7248455 23.9118478,25.5533585 C23.5823106,25.3610845 23.2066075,25.2690289 22.8283368,25.2878744 C22.6653891,25.288543 22.5026252,25.299224 22.340912,25.3198604 C22.1799009,25.3397089 22.0228239,25.3850219 21.8752196,25.4542018 C21.7488189,25.5139167 21.6365295,25.601229 21.5461303,25.7100901 C21.4368378,25.8371921 21.383502,26.005243 21.398795,26.1743162 C21.4140879,26.3433893 21.4966445,26.498393 21.6268503,26.6025006 C21.793061,26.7347247 21.9661412,26.8575199 22.1453212,26.97034 C22.3351492,27.0911443 22.5093595,27.2362364 22.6637921,27.4021515 C22.8204684,27.5750683 22.9032345,27.8055325 22.8935337,28.0418723 C22.910065,28.4325877 22.7522412,28.809635 22.4650967,29.0654256 C22.1910188,29.3066335 21.8413714,29.4373172 21.4809334,29.433265 C21.2521731,29.4325744 21.0256357,29.3869809 20.8134409,29.2989237 C20.3690117,29.1159432 20.0024577,28.7757172 19.7796038,28.3393425 C19.6668835,28.1185446 19.6092691,27.8723164 19.6119545,27.6228552 C19.5873203,27.1253618 19.7585875,26.6386771 20.0869607,26.2730444 C20.4281766,25.9205681 20.8390016,25.6478477 21.2915518,25.4733934 C21.7803965,25.2788358 22.291807,25.1508761 22.8128137,25.0927595 C23.2909948,25.0348159 23.771893,25.0038499 24.2533556,25 C24.7533006,25.0013715 25.2520904,25.0495486 25.7435713,25.1439372 C26.223445,25.2304053 26.6867458,25.3956337 27.1158116,25.6333236 C27.5258136,25.8620793 27.8745633,26.1917193 28.1310211,26.5929048 C28.410374,27.0636383 28.5486159,27.6088666 28.528412,28.1602207 L28.528412,35.740912 L30,35.7633022 Z M24.1540079,34.8421043 L24.5110387,34.6565852 C24.6435023,34.5883483 24.7625126,34.5201115 24.8680696,34.4518746 L24.8680696,29.0142479 C24.5698677,29.1563037 24.3002551,29.3548692 24.0732878,29.5995924 C23.8289612,29.8521125 23.6199775,30.1384753 23.4523646,30.4504211 C23.2838883,30.7710933 23.1535874,31.1115401 23.0642876,31.4643785 C22.9728374,31.8148972 22.9258768,32.1761511 22.9245799,32.5391094 L22.9245799,33.818551 C22.9350277,34.0989292 23.0455837,34.3654621 23.2350415,34.5670243 C23.3934364,34.7771257 23.6350811,34.9027801 23.8932201,34.9092749 C23.9830613,34.9081917 24.0713724,34.8851716 24.1509032,34.8421043 L24.1540079,34.8421043 Z" id="Shape" fill="#F7482D"></path>
                    <path d="M34.9059025,34.0787927 C35.0276623,34.4629393 35.2223137,34.8152171 35.4773311,35.1129577 C35.6876513,35.3539132 35.9464193,35.5391006 36.2335329,35.6541336 C36.4787368,35.7538538 36.7381036,35.806535 37,35.8098143 L37,35.9988553 L34.5226689,35.9988553 C33.9122746,36.0088832 33.3024765,35.9530069 32.7023097,35.8320545 C32.264337,35.7493136 31.851204,35.5535156 31.4978614,35.261225 C31.1840472,34.9811088 30.9551627,34.6053162 30.8408896,34.1825798 C30.6958018,33.6232366 30.6289056,33.0434991 30.6424294,32.4626782 L30.6424294,23.9150637 L29,23.9150637 L29,23.7260228 L29.6843456,23.7260228 C30.3088281,23.7223195 30.9226472,23.550353 31.4704876,23.2256204 C32.0349123,22.9036627 32.54881,22.4870802 32.9931565,21.9912944 C33.4127819,21.5283076 33.7709314,21.0043534 34.0573139,20.4344869 C34.3077217,20.0017334 34.4568875,19.5093348 34.4918734,19 L34.6903336,19 L34.6903336,23.7260228 L36.6201882,23.7260228 L36.6201882,23.9150637 L34.6903336,23.9150637 L34.6903336,32.4404381 C34.6738105,32.9959738 34.7467574,33.5503808 34.9059025,34.0787927 L34.9059025,34.0787927 Z" id="Path" fill="#F7482D"></path>
                    <path d="M43.1083406,30.763026 C43.1083406,31.2931056 43.1353807,31.8295462 43.1894607,32.3723478 C43.2326076,32.8767116 43.3614036,33.3695963 43.570101,33.8290067 C43.7648879,34.2506625 44.065102,34.6126372 44.4405816,34.8785644 C44.9076681,35.173308 45.4520187,35.3153629 46.0005827,35.2856656 C46.4368831,35.2948783 46.8700036,35.2080938 47.2704237,35.0312274 C47.6298701,34.8665503 47.9558261,34.6346058 48.2313844,34.3474246 C48.5098361,34.0537263 48.7452252,33.7205791 48.9302649,33.358296 C49.1249785,32.9800458 49.2948713,32.5890493 49.4388253,32.1878801 L49.6385054,32.206963 C49.4588776,32.7211976 49.250537,33.2245354 49.0145049,33.7145095 C48.800978,34.1674162 48.5056689,34.5752675 48.1440243,34.9167301 C47.7565272,35.2731652 47.3007889,35.5438948 46.8055433,35.7118496 C46.1663023,35.9183591 45.497828,36.0150923 44.8274619,35.9980926 C44.4676216,35.9980926 44.1483414,35.9917317 43.8696212,35.9790098 C43.5830595,35.9636345 43.298745,35.918882 43.0209806,35.8454297 C42.7090916,35.7608512 42.4052426,35.6480254 42.1130599,35.508299 C41.7249191,35.3245209 41.3505508,35.1119166 40.9929791,34.8722035 C40.3901386,34.4535483 39.9067977,33.8796349 39.5920981,33.2088135 C39.1778765,32.3694775 38.9752187,31.4382011 39.0024176,30.4990463 C38.9865355,29.771162 39.0985404,29.0462528 39.3331379,28.3585847 C39.527873,27.8048137 39.8231803,27.2933842 40.2036185,26.8510381 C40.5455876,26.4584685 40.9507626,26.1282608 41.4016994,25.8746314 C41.8169754,25.6394844 42.2564343,25.4517607 42.7121003,25.3148673 C43.1201058,25.193449 43.5376695,25.1083175 43.9601013,25.0604291 C44.3532215,25.020143 44.6829018,25 44.949142,25 C45.531967,25.0020289 46.1134878,25.0563061 46.6869832,25.1622044 C47.2609497,25.2589427 47.8153938,25.4512796 48.3281044,25.7315099 C48.8085844,25.9988171 49.2193734,26.379401 49.5261853,26.8414967 C49.8591097,27.3799424 50.0234274,28.0089096 49.9973057,28.6448277 C50.0181482,29.0220076 49.8835637,29.3909302 49.6260254,29.6625806 C49.3649548,29.9158879 49.0499442,30.1042037 48.7056247,30.2128033 C48.3202545,30.3381221 47.920805,30.4129343 47.5169038,30.4354368 C47.0905035,30.4630009 46.6911432,30.476783 46.318823,30.476783 L43.1083406,30.476783 L43.1083406,30.763026 Z M44.5466617,25.2003701 C44.2376884,25.2008184 43.9476453,25.352199 43.7666611,25.6074713 C43.5631634,25.9030176 43.417016,26.2355242 43.3361008,26.5870585 C43.2314538,27.0111946 43.1677109,27.4447392 43.1457807,27.881513 C43.1187406,28.3501034 43.1052206,28.7953703 43.1052206,29.2173137 L43.1052206,30.2986762 L44.8649019,30.2986762 C45.0017396,30.2919393 45.1381545,30.2781396 45.2736222,30.25733 C45.4714676,30.2352578 45.6572607,30.1494733 45.8040226,30.0124332 C45.8894492,29.9218285 45.9544065,29.8132771 45.9943427,29.6943854 C46.039902,29.5686571 46.0733399,29.4387041 46.0941828,29.3063671 C46.1149828,29.1770277 46.1285028,29.0614703 46.1347428,28.959695 C46.1347428,28.8579197 46.1347428,28.7879492 46.1347428,28.746603 C46.1447716,28.145852 46.1009091,27.545424 46.0037027,26.9528134 C45.9452171,26.5765133 45.8272025,26.2123848 45.6542625,25.8746314 C45.5435545,25.653917 45.3737003,25.469742 45.1644221,25.3434916 C44.9954705,25.2511111 44.8070172,25.201993 44.6153017,25.2003701 L44.5466617,25.2003701 Z" id="Shape" fill="#F7482D"></path>
                    <rect id="Rectangle" fill="#FFFFFF" x="0" y="47" width="21" height="3"></rect>
                </g>
            </g>
        </g>
    </g>
</svg>