<?xml version="1.0" encoding="UTF-8"?>
<svg width="102px" height="102px" viewBox="0 0 102 102" version="1.1" xmlns="http://www.w3.org/2000/svg" xmlns:xlink="http://www.w3.org/1999/xlink">
    <!-- Generator: Sketch 54.1 (76490) - https://sketchapp.com -->
    <title>Group 9</title>
    <desc>Created with Sketch.</desc>
    <defs>
        <polygon id="path-1" points="0 0 28 0 28 46 0 46"></polygon>
    </defs>
    <g id="Page-1" stroke="none" stroke-width="1" fill="none" fill-rule="evenodd">
        <g id="Landing" transform="translate(-199.000000, -2852.000000)">
            <g id="Group-9" transform="translate(199.000000, 2852.000000)">
                <path d="M17.4271944,4.86167916 C29.413634,1.62055972 40.9614354,1.3604801e-15 52.0705984,0 C62.9290252,0 73.7807544,1.54823247 84.6257859,4.64469741 L84.6257866,4.64469488 C90.6999987,6.37899919 95.4205464,11.1704985 97.0640461,17.269906 C100.354682,29.4822169 102,41.1566242 102,52.293128 C102,63.2379102 100.410845,74.1743866 97.232534,85.1025572 L97.2325357,85.1025577 C95.5173772,90.9998871 90.9137015,95.6156885 85.0209041,97.3463537 C74.4573377,100.448785 63.4739024,102 52.0705984,102 C40.3905479,102 28.7034571,100.372578 17.0093261,97.1177343 L17.0093264,97.1177331 C11.0228812,95.4515174 6.31921607,90.8153918 4.56659871,84.8536695 C1.52219957,74.4978081 6.95058473e-16,63.6442943 0,52.293128 C0,40.6999144 1.58780914,29.098402 4.76342742,17.4885909 L4.76342833,17.4885911 C6.44741651,11.3320625 11.265784,6.5277174 17.4271944,4.86167916 Z" id="Rectangle-Copy-6" fill="#000000"></path>
                <g id="Text" transform="translate(37.000000, 28.000000)">
                    <mask id="mask-2" fill="white">
                        <use xlink:href="#path-1"></use>
                    </mask>
                    <g id="Clip-2"></g>
                    <path d="M11.7006862,14.1309894 C9.5555453,11.96953 7.43756431,9.83493953 5.31760806,7.69935393 C2.58383731,10.8962639 2.34927425,16.9119278 5.31118844,20.5690933 C7.45781081,18.4061412 9.56097728,16.2869755 11.7006862,14.1309894 M22.37454,38.0135237 C22.4762663,38.1160238 22.6007082,38.1946405 22.7137923,38.2832085 C25.6189175,34.8395021 25.5166974,28.6984496 22.7058912,25.4448163 C20.5953175,27.5714456 18.4862252,29.6965821 16.3015789,31.8978474 C18.3563513,33.9682509 20.3642111,35.99238 22.37454,38.0135237 M14.016194,29.5428319 C16.1815814,27.360972 18.3207965,25.205981 20.5009984,23.0086963 C18.3395616,20.8303194 16.1860258,18.6608988 14.0008857,16.4586384 C11.846856,18.6285565 9.70665329,20.7850402 7.51608121,22.992774 C9.69924604,25.1930441 11.8404364,27.3505229 14.016194,29.5428319 M21.7068995,6.38277437 C17.6748839,2.31958892 11.3347678,2.32854525 7.62472094,5.33289422 C12.6498024,10.3962025 17.6709334,15.4555301 22.7370017,20.560137 C25.6505218,16.9945251 25.8080494,10.5161177 21.7068995,6.38277437 M5.304275,25.4532751 C2.70679773,28.4362284 1.93545562,34.6628635 5.79858579,39.0619111 C10.3160234,44.2058263 17.1716844,43.3982644 20.38347,40.6471804 C15.3262904,35.5510323 10.3160234,30.5031488 5.304275,25.4532751 M22.8150248,42.8628753 C18.1563555,46.6543856 11.0226755,47.3410371 5.45488917,43.0758368 C2.88062131,41.1044505 1.17547131,38.482238 0.423881878,35.2927916 C-0.639799877,30.7793021 0.321167948,26.6763108 3.05049434,23.0081987 C-1.61459458,16.9159084 -0.918806465,8.22230371 5.1502041,3.18337657 C10.6068816,-1.34653285 18.4022763,-0.907175419 23.4184691,3.64462724 C28.1201005,7.91181783 30.0736404,16.1128248 24.9942391,22.9788419 C29.9012983,29.4423221 28.5363882,38.2060846 22.8150248,42.8628753" id="Fill-1" fill="#FFFFFF" mask="url(#mask-2)"></path>
                </g>
            </g>
        </g>
    </g>
</svg>