<?xml version="1.0" encoding="UTF-8"?>
<svg width="556px" height="171px" viewBox="0 0 556 171" version="1.1" xmlns="http://www.w3.org/2000/svg" xmlns:xlink="http://www.w3.org/1999/xlink">
    <!-- Generator: Sketch 54.1 (76490) - https://sketchapp.com -->
    <title>Group Copy</title>
    <desc>Created with Sketch.</desc>
    <defs>
        <polygon id="path-1" points="0.224850633 0.18922449 31.6302177 0.18922449 31.6302177 37.6624204 0.224850633 37.6624204"></polygon>
        <polygon id="path-3" points="0.370233962 0.17855098 41.6909434 0.17855098 41.6909434 41 0.370233962 41"></polygon>
        <polygon id="path-5" points="0 97 102 97 102 1 0 1"></polygon>
        <polygon id="path-7" points="0.466234255 0.128990496 85.4662343 0.128990496 85.4662343 89.1289905 0.466234255 89.1289905"></polygon>
        <polygon id="path-9" points="0 0.295428571 113.649021 0.295428571 113.649021 120.6071 0 120.6071"></polygon>
        <polygon id="path-11" points="0 120.704571 113.649021 120.704571 113.649021 0.392857143 0 0.392857143"></polygon>
    </defs>
    <g id="Page-1" stroke="none" stroke-width="1" fill="none" fill-rule="evenodd">
        <g id="Artboard" transform="translate(-26.000000, -290.000000)">
            <g id="Group-Copy" transform="translate(26.000000, 281.000000)">
                <g id="Group-13" transform="translate(23.000000, 25.000000)">
                    <g id="Group-3" transform="translate(3.000000, 0.000000)">
                        <mask id="mask-2" fill="white">
                            <use xlink:href="#path-1"></use>
                        </mask>
                        <g id="Clip-2"></g>
                        <path d="M8.85026835,15.6972571 L13.9370532,15.6972571 C14.7111291,15.6972571 15.5309772,15.6708898 16.3974076,15.6177673 C17.2630278,15.5650327 18.0468253,15.4060531 18.7475848,15.1416041 C19.4471291,14.8767673 20.0275848,14.4622571 20.4889519,13.8976857 C20.9495089,13.333502 21.1799899,12.5397673 21.1799899,11.5157061 C21.1799899,10.5629918 20.9770532,9.80493061 20.5719899,9.23997143 C20.1661165,8.67617551 19.6500658,8.24344082 19.023838,7.94331837 C18.3963949,7.64358367 17.6778127,7.4404 16.867281,7.33454286 C16.0563443,7.22868571 15.2640405,7.17556327 14.4899646,7.17556327 L8.85026835,7.17556327 L8.85026835,15.6972571 Z M0.224850633,0.188991837 L15.3746228,0.188991837 C17.3651038,0.188991837 19.2535089,0.374338776 21.0418633,0.744644898 C22.8294076,1.11533878 24.3957873,1.73303265 25.7418127,2.59733878 C27.0866228,3.46242041 28.1555848,4.62684898 28.9486987,6.09062449 C29.7405975,7.55517551 30.1371544,9.38150204 30.1371544,11.5688286 C30.1371544,14.2152571 29.4185722,16.4646245 27.9810025,18.3173184 C26.5434329,20.1696245 24.4423696,21.3433592 21.6778127,21.8369714 L31.6302177,37.6624204 L21.2905722,37.6624204 L13.1074835,22.6838286 L8.85026835,22.6838286 L8.85026835,37.6624204 L0.224850633,37.6624204 L0.224850633,0.188991837 Z" id="Fill-1" fill="#000000" mask="url(#mask-2)"></path>
                    </g>
                    <polygon id="Fill-4" fill="#000000" points="0 58 9.91714286 58 19.6673469 82.9039548 19.7787755 82.9039548 29.6955102 58 39 58 22.7314286 96 15.7669388 96"></polygon>
                    <g id="Group-8" transform="translate(60.000000, 56.000000)">
                        <mask id="mask-4" fill="white">
                            <use xlink:href="#path-3"></use>
                        </mask>
                        <g id="Clip-7"></g>
                        <path d="M9.13198868,20.5893157 C9.13198868,22.4186392 9.41093208,24.092002 9.97040377,25.6098059 C10.5286868,27.1280118 11.3310453,28.4448353 12.377083,29.5598745 C13.4227245,30.6761196 14.6755925,31.5447569 16.136083,32.1661882 C17.5961774,32.7888255 19.2274415,33.0991392 21.0306679,33.0991392 C22.8334981,33.0991392 24.4651585,32.7888255 25.9252528,32.1661882 C27.3857434,31.5447569 28.6378189,30.6761196 29.6842528,29.5598745 C30.7294981,28.4448353 31.5314604,27.1280118 32.0909321,25.6098059 C32.6496113,24.092002 32.9293472,22.4186392 32.9293472,20.5893157 C32.9293472,18.7973745 32.6496113,17.1324529 32.0909321,15.5961588 C31.5314604,14.0598647 30.7294981,12.7346 29.6842528,11.6183549 C28.6378189,10.5029137 27.3857434,9.63467843 25.9252528,9.01204118 C24.4651585,8.3906098 22.8334981,8.07949216 21.0306679,8.07949216 C19.2274415,8.07949216 17.5961774,8.3906098 16.136083,9.01204118 C14.6755925,9.63467843 13.4227245,10.5029137 12.377083,11.6183549 C11.3310453,12.7346 10.5286868,14.0598647 9.97040377,15.5961588 C9.41093208,17.1324529 9.13198868,18.7973745 9.13198868,20.5893157 M0.370233962,20.5893157 C0.370233962,17.480551 0.884139623,14.6636098 1.91155472,12.139698 C2.93936604,9.61578627 4.37251698,7.46730588 6.21140377,5.69264902 C8.05029057,3.91879608 10.231517,2.55655098 12.7558755,1.6051098 C15.2790453,0.654070588 18.0375736,0.17855098 21.0306679,0.17855098 C24.023366,0.17855098 26.7814981,0.654070588 29.3058566,1.6051098 C31.8290264,2.55655098 34.0110453,3.91879608 35.8499321,5.69264902 C37.6888189,7.46730588 39.1219698,9.61578627 40.1497811,12.139698 C41.1771962,14.6636098 41.6911019,17.480551 41.6911019,20.5893157 C41.6911019,23.6984824 41.1771962,26.5150216 40.1497811,29.0389333 C39.1219698,31.5628451 37.6888189,33.7121294 35.8499321,35.4859824 C34.0110453,37.2606392 31.8290264,38.6224824 29.3058566,39.5735216 C26.7814981,40.5241588 24.023366,41.0000804 21.0306679,41.0000804 C18.0375736,41.0000804 15.2790453,40.5241588 12.7558755,39.5735216 C10.231517,38.6224824 8.05029057,37.2606392 6.21140377,35.4859824 C4.37251698,33.7121294 2.93936604,31.5628451 1.91155472,29.0389333 C0.884139623,26.5150216 0.370233962,23.6984824 0.370233962,20.5893157" id="Fill-6" fill="#000000" mask="url(#mask-4)"></path>
                    </g>
                    <mask id="mask-6" fill="white">
                        <use xlink:href="#path-5"></use>
                    </mask>
                    <g id="Clip-10"></g>
                    <polygon id="Fill-9" fill="#000000" mask="url(#mask-6)" points="63 7 97 7 97 0 63 0"></polygon>
                    <polygon id="Fill-11" fill="#000000" mask="url(#mask-6)" points="63 23 97 23 97 16 63 16"></polygon>
                    <polygon id="Fill-12" fill="#000000" mask="url(#mask-6)" points="63 36 97 36 97 29 63 29"></polygon>
                </g>
                <g id="Group-3" opacity="0.200000003" transform="translate(283.000000, 61.000000) rotate(-32.000000) translate(-283.000000, -61.000000) translate(240.000000, 16.000000)">
                    <mask id="mask-8" fill="white">
                        <use xlink:href="#path-7"></use>
                    </mask>
                    <g id="Clip-2"></g>
                    <path d="M60.7082861,73.636038 C58.3177246,77.468075 55.535306,80.6372212 52.3642423,83.1437675 C49.1914267,85.6506043 45.7201924,87.381211 41.9484954,88.3373313 C38.1767984,89.2934515 34.1612857,89.3838325 29.9051693,88.6067305 C25.647885,87.8287567 21.2875264,86.0629857 16.8273057,83.306802 C12.303722,80.511676 8.74956117,77.3872843 6.16131915,73.9356611 C3.57249314,70.4828755 1.87395932,66.8618244 1.06192174,63.0736701 C0.249884169,59.2852253 0.267403858,55.4206396 1.11856874,51.4790412 C1.96739766,47.5377333 3.58826086,43.6510609 5.9785304,39.819024 L30.7364786,0.128990496 L45.0378005,8.9656921 L20.6211943,48.1079181 C19.3691205,50.1151894 18.5322634,52.1695401 18.1120828,54.2683549 C17.6910263,56.3686226 17.6717547,58.4008867 18.0560198,60.3645659 C18.438241,62.3291169 19.2216631,64.1620198 20.4062861,65.8618214 C21.5882811,67.5619136 23.1276777,68.9969658 25.0230161,70.1678499 C26.9166024,71.3384433 28.8761796,72.0649784 30.9026236,72.3474553 C32.9270236,72.630804 34.9093764,72.5064212 36.84939,71.9769224 C38.7867755,71.4477142 40.6094072,70.529955 42.3140729,69.2224824 C44.0178626,67.917044 45.4962323,66.2590908 46.7483061,64.2518195 L71.1646203,25.1095935 L85.4662343,33.9462951 L60.7082861,73.636038 Z" id="Fill-1" fill="#000000" mask="url(#mask-8)"></path>
                </g>
                <path d="M0.872,157.008 L7.448,157.008 C8.31200432,157.008 9.13199612,157.091999 9.908,157.26 C10.6840039,157.428001 11.3639971,157.707998 11.948,158.1 C12.5320029,158.492002 12.9959983,159.019997 13.34,159.684 C13.6840017,160.348003 13.856,161.175995 13.856,162.168 C13.856,163.368006 13.5440031,164.387996 12.92,165.228 C12.2959969,166.068004 11.384006,166.599999 10.184,166.824 L14.504,174 L10.016,174 L6.464,167.208 L4.616,167.208 L4.616,174 L0.872,174 L0.872,157.008 Z M4.616,164.04 L6.824,164.04 C7.16000168,164.04 7.51599812,164.028 7.892,164.004 C8.26800188,163.98 8.60799848,163.908001 8.912,163.788 C9.21600152,163.667999 9.467999,163.480001 9.668,163.224 C9.868001,162.967999 9.968,162.608002 9.968,162.144 C9.968,161.711998 9.88000088,161.368001 9.704,161.112 C9.52799912,160.855999 9.30400136,160.660001 9.032,160.524 C8.75999864,160.387999 8.44800176,160.296 8.096,160.248 C7.74399824,160.2 7.40000168,160.176 7.064,160.176 L4.616,160.176 L4.616,164.04 Z M27.008,171.984 C26.4319971,172.720004 25.7040044,173.287998 24.824,173.688 C23.9439956,174.088002 23.0320047,174.288 22.088,174.288 C21.1919955,174.288 20.348004,174.144001 19.556,173.856 C18.763996,173.567999 18.0760029,173.156003 17.492,172.62 C16.9079971,172.083997 16.4480017,171.440004 16.112,170.688 C15.7759983,169.935996 15.608,169.096005 15.608,168.168 C15.608,167.239995 15.7759983,166.400004 16.112,165.648 C16.4480017,164.895996 16.9079971,164.252003 17.492,163.716 C18.0760029,163.179997 18.763996,162.768001 19.556,162.48 C20.348004,162.191999 21.1919955,162.048 22.088,162.048 C22.9200042,162.048 23.6759966,162.191999 24.356,162.48 C25.0360034,162.768001 25.6119976,163.179997 26.084,163.716 C26.5560024,164.252003 26.9199987,164.895996 27.176,165.648 C27.4320013,166.400004 27.56,167.239995 27.56,168.168 L27.56,169.296 L19.208,169.296 C19.3520007,169.984003 19.6639976,170.531998 20.144,170.94 C20.6240024,171.348002 21.2159965,171.552 21.92,171.552 C22.512003,171.552 23.011998,171.420001 23.42,171.156 C23.828002,170.891999 24.1839985,170.552002 24.488,170.136 L27.008,171.984 Z M23.96,166.848 C23.9760001,166.239997 23.7760021,165.720002 23.36,165.288 C22.9439979,164.855998 22.4080033,164.64 21.752,164.64 C21.351998,164.64 21.0000015,164.703999 20.696,164.832 C20.3919985,164.960001 20.1320011,165.123999 19.916,165.324 C19.6999989,165.524001 19.5320006,165.755999 19.412,166.02 C19.2919994,166.284001 19.2240001,166.559999 19.208,166.848 L23.96,166.848 Z M28.52,162.336 L32.408,162.336 L35.36,170.256 L35.408,170.256 L38.144,162.336 L41.768,162.336 L37.16,174 L33.344,174 L28.52,162.336 Z M42.656,168.168 C42.656,167.239995 42.8239983,166.400004 43.16,165.648 C43.4960017,164.895996 43.9559971,164.252003 44.54,163.716 C45.1240029,163.179997 45.811996,162.768001 46.604,162.48 C47.396004,162.191999 48.2399955,162.048 49.136,162.048 C50.0320045,162.048 50.875996,162.191999 51.668,162.48 C52.460004,162.768001 53.1479971,163.179997 53.732,163.716 C54.3160029,164.252003 54.7759983,164.895996 55.112,165.648 C55.4480017,166.400004 55.616,167.239995 55.616,168.168 C55.616,169.096005 55.4480017,169.935996 55.112,170.688 C54.7759983,171.440004 54.3160029,172.083997 53.732,172.62 C53.1479971,173.156003 52.460004,173.567999 51.668,173.856 C50.875996,174.144001 50.0320045,174.288 49.136,174.288 C48.2399955,174.288 47.396004,174.144001 46.604,173.856 C45.811996,173.567999 45.1240029,173.156003 44.54,172.62 C43.9559971,172.083997 43.4960017,171.440004 43.16,170.688 C42.8239983,169.935996 42.656,169.096005 42.656,168.168 Z M46.256,168.168 C46.256,169.048004 46.5079975,169.759997 47.012,170.304 C47.5160025,170.848003 48.2239954,171.12 49.136,171.12 C50.0480046,171.12 50.7559975,170.848003 51.26,170.304 C51.7640025,169.759997 52.016,169.048004 52.016,168.168 C52.016,167.287996 51.7640025,166.576003 51.26,166.032 C50.7559975,165.487997 50.0480046,165.216 49.136,165.216 C48.2239954,165.216 47.5160025,165.487997 47.012,166.032 C46.5079975,166.576003 46.256,167.287996 46.256,168.168 Z M60.128,174 L58.544,174 L58.544,155.856 L60.128,155.856 L60.128,174 Z M72.056,174 C72.0239998,173.695998 72.004,173.396001 71.996,173.1 C71.988,172.803999 71.984,172.504002 71.984,172.2 L71.936,172.2 C71.7599991,172.504002 71.5360014,172.783999 71.264,173.04 C70.9919986,173.296001 70.6880017,173.515999 70.352,173.7 C70.0159983,173.884001 69.6600019,174.027999 69.284,174.132 C68.9079981,174.236001 68.5360018,174.288 68.168,174.288 C66.7279928,174.288 65.6640034,173.908004 64.976,173.148 C64.2879966,172.387996 63.944,171.304007 63.944,169.896 L63.944,162.768 L65.528,162.768 L65.528,168.984 C65.528,169.608003 65.5759995,170.159998 65.672,170.64 C65.7680005,171.120002 65.9319988,171.523998 66.164,171.852 C66.3960012,172.180002 66.707998,172.427999 67.1,172.596 C67.492002,172.764001 67.983997,172.848 68.576,172.848 C68.6560004,172.848 68.8799982,172.816 69.248,172.752 C69.6160018,172.688 70.003998,172.512001 70.412,172.224 C70.820002,171.935999 71.1839984,171.504003 71.504,170.928 C71.8240016,170.351997 71.984,169.552005 71.984,168.528 L71.984,162.768 L73.568,162.768 L73.568,171.528 C73.568,171.832002 73.5799999,172.215998 73.604,172.68 C73.6280001,173.144002 73.6559998,173.583998 73.688,174 L72.056,174 Z M83.096,164.208 L79.856,164.208 L79.856,170.832 C79.856,171.248002 79.8959996,171.587999 79.976,171.852 C80.0560004,172.116001 80.1679993,172.319999 80.312,172.464 C80.4560007,172.608001 80.627999,172.708 80.828,172.764 C81.028001,172.82 81.2479988,172.848 81.488,172.848 C81.7600014,172.848 82.0399986,172.808 82.328,172.728 C82.6160014,172.648 82.8799988,172.544001 83.12,172.416 L83.192,173.88 C82.599997,174.152001 81.8880042,174.288 81.056,174.288 C80.7519985,174.288 80.4360016,174.248 80.108,174.168 C79.7799984,174.088 79.4800014,173.936001 79.208,173.712 C78.9359986,173.487999 78.7120009,173.184002 78.536,172.8 C78.3599991,172.415998 78.272,171.912003 78.272,171.288 L78.272,164.208 L75.896,164.208 L75.896,162.768 L78.272,162.768 L78.272,159.6 L79.856,159.6 L79.856,162.768 L83.096,162.768 L83.096,164.208 Z M87.56,158.448 C87.56,158.784002 87.4400012,159.059999 87.2,159.276 C86.9599988,159.492001 86.6960014,159.6 86.408,159.6 C86.1199986,159.6 85.8560012,159.492001 85.616,159.276 C85.3759988,159.059999 85.256,158.784002 85.256,158.448 C85.256,158.111998 85.3759988,157.836001 85.616,157.62 C85.8560012,157.403999 86.1199986,157.296 86.408,157.296 C86.6960014,157.296 86.9599988,157.403999 87.2,157.62 C87.4400012,157.836001 87.56,158.111998 87.56,158.448 Z M87.2,174 L85.616,174 L85.616,162.768 L87.2,162.768 L87.2,174 Z M100.64,168.384 C100.64,167.759997 100.540001,167.176003 100.34,166.632 C100.139999,166.087997 99.8560018,165.616002 99.488,165.216 C99.1199982,164.815998 98.6760026,164.500001 98.156,164.268 C97.6359974,164.035999 97.0480033,163.92 96.392,163.92 C95.7359967,163.92 95.1480026,164.035999 94.628,164.268 C94.1079974,164.500001 93.6680018,164.815998 93.308,165.216 C92.9479982,165.616002 92.668001,166.087997 92.468,166.632 C92.267999,167.176003 92.168,167.759997 92.168,168.384 C92.168,169.008003 92.267999,169.591997 92.468,170.136 C92.668001,170.680003 92.9479982,171.151998 93.308,171.552 C93.6680018,171.952002 94.1079974,172.267999 94.628,172.5 C95.1480026,172.732001 95.7359967,172.848 96.392,172.848 C97.0480033,172.848 97.6359974,172.732001 98.156,172.5 C98.6760026,172.267999 99.1199982,171.952002 99.488,171.552 C99.8560018,171.151998 100.139999,170.680003 100.34,170.136 C100.540001,169.591997 100.64,169.008003 100.64,168.384 Z M102.368,168.384 C102.368,169.232004 102.220001,170.015996 101.924,170.736 C101.627999,171.456004 101.216003,172.079997 100.688,172.608 C100.159997,173.136003 99.5320036,173.547999 98.804,173.844 C98.0759964,174.140001 97.2720044,174.288 96.392,174.288 C95.5279957,174.288 94.7320036,174.140001 94.004,173.844 C93.2759964,173.547999 92.6480026,173.136003 92.12,172.608 C91.5919974,172.079997 91.1800015,171.456004 90.884,170.736 C90.5879985,170.015996 90.44,169.232004 90.44,168.384 C90.44,167.535996 90.5879985,166.752004 90.884,166.032 C91.1800015,165.311996 91.5919974,164.688003 92.12,164.16 C92.6480026,163.631997 93.2759964,163.220001 94.004,162.924 C94.7320036,162.627999 95.5279957,162.48 96.392,162.48 C97.2720044,162.48 98.0759964,162.627999 98.804,162.924 C99.5320036,163.220001 100.159997,163.631997 100.688,164.16 C101.216003,164.688003 101.627999,165.311996 101.924,166.032 C102.220001,166.752004 102.368,167.535996 102.368,168.384 Z M106.76,162.768 C106.792,163.072002 106.812,163.371999 106.82,163.668 C106.828,163.964001 106.832,164.263998 106.832,164.568 L106.88,164.568 C107.056001,164.263998 107.279999,163.984001 107.552,163.728 C107.824001,163.471999 108.127998,163.252001 108.464,163.068 C108.800002,162.883999 109.155998,162.740001 109.532,162.636 C109.908002,162.531999 110.279998,162.48 110.648,162.48 C112.088007,162.48 113.151997,162.859996 113.84,163.62 C114.528003,164.380004 114.872,165.463993 114.872,166.872 L114.872,174 L113.288,174 L113.288,167.784 C113.288,166.535994 113.072002,165.580003 112.64,164.916 C112.207998,164.251997 111.408006,163.92 110.24,163.92 C110.16,163.92 109.936002,163.952 109.568,164.016 C109.199998,164.08 108.812002,164.255999 108.404,164.544 C107.995998,164.832001 107.632002,165.263997 107.312,165.84 C106.991998,166.416003 106.832,167.215995 106.832,168.24 L106.832,174 L105.248,174 L105.248,165.24 C105.248,164.935998 105.236,164.552002 105.212,164.088 C105.188,163.623998 105.16,163.184002 105.128,162.768 L106.76,162.768 Z M124.976,168.408 C124.575998,168.408 124.076003,168.428 123.476,168.468 C122.875997,168.508 122.300003,168.603999 121.748,168.756 C121.195997,168.908001 120.724002,169.143998 120.332,169.464 C119.939998,169.784002 119.744,170.223997 119.744,170.784 C119.744,171.152002 119.819999,171.467999 119.972,171.732 C120.124001,171.996001 120.327999,172.211999 120.584,172.38 C120.840001,172.548001 121.123998,172.668 121.436,172.74 C121.748002,172.812 122.063998,172.848 122.384,172.848 C122.960003,172.848 123.459998,172.752001 123.884,172.56 C124.308002,172.367999 124.663999,172.108002 124.952,171.78 C125.240001,171.451998 125.451999,171.068002 125.588,170.628 C125.724001,170.187998 125.792,169.720002 125.792,169.224 L125.792,168.408 L124.976,168.408 Z M125.792,167.112 L125.792,166.824 C125.792,164.88799 124.83201,163.92 122.912,163.92 C121.599993,163.92 120.456005,164.359996 119.48,165.24 L118.52,164.112 C119.576005,163.023995 121.159989,162.48 123.272,162.48 C123.816003,162.48 124.339997,162.559999 124.844,162.72 C125.348003,162.880001 125.783998,163.123998 126.152,163.452 C126.520002,163.780002 126.815999,164.191998 127.04,164.688 C127.264001,165.184002 127.376,165.775997 127.376,166.464 L127.376,171.48 C127.376,171.912002 127.396,172.363998 127.436,172.836 C127.476,173.308002 127.52,173.695998 127.568,174 L126.032,174 C125.984,173.727999 125.948,173.432002 125.924,173.112 C125.9,172.791998 125.888,172.480002 125.888,172.176 L125.84,172.176 C125.375998,172.928004 124.828003,173.467998 124.196,173.796 C123.563997,174.124002 122.792005,174.288 121.88,174.288 C121.383998,174.288 120.904002,174.220001 120.44,174.084 C119.975998,173.947999 119.564002,173.740001 119.204,173.46 C118.843998,173.179999 118.556001,172.836002 118.34,172.428 C118.123999,172.019998 118.016,171.544003 118.016,171 C118.016,170.087995 118.251998,169.372003 118.724,168.852 C119.196002,168.331997 119.787996,167.944001 120.5,167.688 C121.212004,167.431999 121.971996,167.272 122.78,167.208 C123.588004,167.144 124.327997,167.112 125,167.112 L125.792,167.112 Z M131.216,166.272 C131.216,165.775998 131.204,165.272003 131.18,164.76 C131.156,164.247997 131.136,163.584004 131.12,162.768 L132.68,162.768 L132.68,164.856 L132.728,164.856 C132.840001,164.551998 132.999999,164.260001 133.208,163.98 C133.416001,163.699999 133.667999,163.448001 133.964,163.224 C134.260001,162.999999 134.603998,162.820001 134.996,162.684 C135.388002,162.547999 135.831998,162.48 136.328,162.48 C136.776002,162.48 137.167998,162.528 137.504,162.624 L137.192,164.184 C136.983999,164.104 136.680002,164.064 136.28,164.064 C135.671997,164.064 135.152002,164.179999 134.72,164.412 C134.287998,164.644001 133.928001,164.939998 133.64,165.3 C133.351999,165.660002 133.140001,166.047998 133.004,166.464 C132.867999,166.880002 132.8,167.279998 132.8,167.664 L132.8,174 L131.216,174 L131.216,166.272 Z M143.192,172.056 L146.624,162.768 L148.544,162.768 L142.928,176.928 C142.591998,177.792004 142.164003,178.479997 141.644,178.992 C141.123997,179.504003 140.376005,179.76 139.4,179.76 C139.159999,179.76 138.916001,179.752 138.668,179.736 C138.419999,179.72 138.176001,179.672 137.936,179.592 L138.104,178.056 C138.440002,178.232001 138.839998,178.32 139.304,178.32 C139.864003,178.32 140.303998,178.144002 140.624,177.792 C140.944002,177.439998 141.223999,176.944003 141.464,176.304 L142.28,174.144 L137.672,162.768 L139.664,162.768 L143.192,172.056 Z" id="Revolutionary" fill="#3A3A3A" fill-rule="nonzero"></path>
                <path d="M463.84,157.008 L470.416,157.008 C471.280004,157.008 472.099996,157.091999 472.876,157.26 C473.652004,157.428001 474.331997,157.707998 474.916,158.1 C475.500003,158.492002 475.963998,159.019997 476.308,159.684 C476.652002,160.348003 476.824,161.175995 476.824,162.168 C476.824,163.368006 476.512003,164.387996 475.888,165.228 C475.263997,166.068004 474.352006,166.599999 473.152,166.824 L477.472,174 L472.984,174 L469.432,167.208 L467.584,167.208 L467.584,174 L463.84,174 L463.84,157.008 Z M467.584,164.04 L469.792,164.04 C470.128002,164.04 470.483998,164.028 470.86,164.004 C471.236002,163.98 471.575998,163.908001 471.88,163.788 C472.184002,163.667999 472.435999,163.480001 472.636,163.224 C472.836001,162.967999 472.936,162.608002 472.936,162.144 C472.936,161.711998 472.848001,161.368001 472.672,161.112 C472.495999,160.855999 472.272001,160.660001 472,160.524 C471.727999,160.387999 471.416002,160.296 471.064,160.248 C470.711998,160.2 470.368002,160.176 470.032,160.176 L467.584,160.176 L467.584,164.04 Z M489.976,171.984 C489.399997,172.720004 488.672004,173.287998 487.792,173.688 C486.911996,174.088002 486.000005,174.288 485.056,174.288 C484.159996,174.288 483.316004,174.144001 482.524,173.856 C481.731996,173.567999 481.044003,173.156003 480.46,172.62 C479.875997,172.083997 479.416002,171.440004 479.08,170.688 C478.743998,169.935996 478.576,169.096005 478.576,168.168 C478.576,167.239995 478.743998,166.400004 479.08,165.648 C479.416002,164.895996 479.875997,164.252003 480.46,163.716 C481.044003,163.179997 481.731996,162.768001 482.524,162.48 C483.316004,162.191999 484.159996,162.048 485.056,162.048 C485.888004,162.048 486.643997,162.191999 487.324,162.48 C488.004003,162.768001 488.579998,163.179997 489.052,163.716 C489.524002,164.252003 489.887999,164.895996 490.144,165.648 C490.400001,166.400004 490.528,167.239995 490.528,168.168 L490.528,169.296 L482.176,169.296 C482.320001,169.984003 482.631998,170.531998 483.112,170.94 C483.592002,171.348002 484.183996,171.552 484.888,171.552 C485.480003,171.552 485.979998,171.420001 486.388,171.156 C486.796002,170.891999 487.151998,170.552002 487.456,170.136 L489.976,171.984 Z M486.928,166.848 C486.944,166.239997 486.744002,165.720002 486.328,165.288 C485.911998,164.855998 485.376003,164.64 484.72,164.64 C484.319998,164.64 483.968002,164.703999 483.664,164.832 C483.359998,164.960001 483.100001,165.123999 482.884,165.324 C482.667999,165.524001 482.500001,165.755999 482.38,166.02 C482.259999,166.284001 482.192,166.559999 482.176,166.848 L486.928,166.848 Z M491.488,162.336 L495.376,162.336 L498.328,170.256 L498.376,170.256 L501.112,162.336 L504.736,162.336 L500.128,174 L496.312,174 L491.488,162.336 Z M505.624,168.168 C505.624,167.239995 505.791998,166.400004 506.128,165.648 C506.464002,164.895996 506.923997,164.252003 507.508,163.716 C508.092003,163.179997 508.779996,162.768001 509.572,162.48 C510.364004,162.191999 511.207996,162.048 512.104,162.048 C513.000004,162.048 513.843996,162.191999 514.636,162.48 C515.428004,162.768001 516.115997,163.179997 516.7,163.716 C517.284003,164.252003 517.743998,164.895996 518.08,165.648 C518.416002,166.400004 518.584,167.239995 518.584,168.168 C518.584,169.096005 518.416002,169.935996 518.08,170.688 C517.743998,171.440004 517.284003,172.083997 516.7,172.62 C516.115997,173.156003 515.428004,173.567999 514.636,173.856 C513.843996,174.144001 513.000004,174.288 512.104,174.288 C511.207996,174.288 510.364004,174.144001 509.572,173.856 C508.779996,173.567999 508.092003,173.156003 507.508,172.62 C506.923997,172.083997 506.464002,171.440004 506.128,170.688 C505.791998,169.935996 505.624,169.096005 505.624,168.168 Z M509.224,168.168 C509.224,169.048004 509.475997,169.759997 509.98,170.304 C510.484003,170.848003 511.191995,171.12 512.104,171.12 C513.016005,171.12 513.723997,170.848003 514.228,170.304 C514.732003,169.759997 514.984,169.048004 514.984,168.168 C514.984,167.287996 514.732003,166.576003 514.228,166.032 C513.723997,165.487997 513.016005,165.216 512.104,165.216 C511.191995,165.216 510.484003,165.487997 509.98,166.032 C509.475997,166.576003 509.224,167.287996 509.224,168.168 Z M533.872,167.664 C533.872,168.368004 533.788001,169.115996 533.62,169.908 C533.451999,170.700004 533.136002,171.431997 532.672,172.104 C532.207998,172.776003 531.572004,173.331998 530.764,173.772 C529.955996,174.212002 528.920006,174.432 527.656,174.432 C526.375994,174.432 525.336004,174.212002 524.536,173.772 C523.735996,173.331998 523.104002,172.776003 522.64,172.104 C522.175998,171.431997 521.860001,170.700004 521.692,169.908 C521.523999,169.115996 521.44,168.368004 521.44,167.664 L521.44,157.008 L523.168,157.008 L523.168,167.472 C523.168,168.288004 523.247999,168.987997 523.408,169.572 C523.568001,170.156003 523.779999,170.647998 524.044,171.048 C524.308001,171.448002 524.603998,171.763999 524.932,171.996 C525.260002,172.228001 525.587998,172.407999 525.916,172.536 C526.244002,172.664001 526.559998,172.748 526.864,172.788 C527.168002,172.828 527.431999,172.848 527.656,172.848 C527.864001,172.848 528.123998,172.828 528.436,172.788 C528.748002,172.748 529.067998,172.664001 529.396,172.536 C529.724002,172.407999 530.051998,172.228001 530.38,171.996 C530.708002,171.763999 531.003999,171.448002 531.268,171.048 C531.532001,170.647998 531.743999,170.156003 531.904,169.572 C532.064001,168.987997 532.144,168.288004 532.144,167.472 L532.144,157.008 L533.872,157.008 L533.872,167.664 Z" id="RevoU" fill="#3A3A3A" fill-rule="nonzero"></path>
                <path d="M269.86,174 L268.132,174 L268.132,166.68 L261.772,157.008 L263.932,157.008 L268.996,165.024 L274.06,157.008 L276.22,157.008 L269.86,166.68 L269.86,174 Z M287.236,168.384 C287.236,167.759997 287.136001,167.176003 286.936,166.632 C286.735999,166.087997 286.452002,165.616002 286.084,165.216 C285.715998,164.815998 285.272003,164.500001 284.752,164.268 C284.231997,164.035999 283.644003,163.92 282.988,163.92 C282.331997,163.92 281.744003,164.035999 281.224,164.268 C280.703997,164.500001 280.264002,164.815998 279.904,165.216 C279.543998,165.616002 279.264001,166.087997 279.064,166.632 C278.863999,167.176003 278.764,167.759997 278.764,168.384 C278.764,169.008003 278.863999,169.591997 279.064,170.136 C279.264001,170.680003 279.543998,171.151998 279.904,171.552 C280.264002,171.952002 280.703997,172.267999 281.224,172.5 C281.744003,172.732001 282.331997,172.848 282.988,172.848 C283.644003,172.848 284.231997,172.732001 284.752,172.5 C285.272003,172.267999 285.715998,171.952002 286.084,171.552 C286.452002,171.151998 286.735999,170.680003 286.936,170.136 C287.136001,169.591997 287.236,169.008003 287.236,168.384 Z M288.964,168.384 C288.964,169.232004 288.816001,170.015996 288.52,170.736 C288.223999,171.456004 287.812003,172.079997 287.284,172.608 C286.755997,173.136003 286.128004,173.547999 285.4,173.844 C284.671996,174.140001 283.868004,174.288 282.988,174.288 C282.123996,174.288 281.328004,174.140001 280.6,173.844 C279.871996,173.547999 279.244003,173.136003 278.716,172.608 C278.187997,172.079997 277.776001,171.456004 277.48,170.736 C277.183999,170.015996 277.036,169.232004 277.036,168.384 C277.036,167.535996 277.183999,166.752004 277.48,166.032 C277.776001,165.311996 278.187997,164.688003 278.716,164.16 C279.244003,163.631997 279.871996,163.220001 280.6,162.924 C281.328004,162.627999 282.123996,162.48 282.988,162.48 C283.868004,162.48 284.671996,162.627999 285.4,162.924 C286.128004,163.220001 286.755997,163.631997 287.284,164.16 C287.812003,164.688003 288.223999,165.311996 288.52,166.032 C288.816001,166.752004 288.964,167.535996 288.964,168.384 Z M302.62,174 L299.164,174 L299.164,172.416 L299.116,172.416 C298.987999,172.640001 298.824001,172.863999 298.624,173.088 C298.423999,173.312001 298.180001,173.511999 297.892,173.688 C297.603999,173.864001 297.276002,174.007999 296.908,174.12 C296.539998,174.232001 296.140002,174.288 295.708,174.288 C294.795995,174.288 294.056003,174.148001 293.488,173.868 C292.919997,173.587999 292.480002,173.200002 292.168,172.704 C291.855998,172.207998 291.648001,171.624003 291.544,170.952 C291.439999,170.279997 291.388,169.552004 291.388,168.768 L291.388,162.336 L294.988,162.336 L294.988,168.048 C294.988,168.384002 295,168.731998 295.024,169.092 C295.048,169.452002 295.119999,169.783998 295.24,170.088 C295.360001,170.392002 295.543999,170.639999 295.792,170.832 C296.040001,171.024001 296.395998,171.12 296.86,171.12 C297.324002,171.12 297.699999,171.036001 297.988,170.868 C298.276001,170.699999 298.495999,170.476001 298.648,170.196 C298.800001,169.915999 298.9,169.600002 298.948,169.248 C298.996,168.895998 299.02,168.528002 299.02,168.144 L299.02,162.336 L302.62,162.336 L302.62,174 Z" id="You" fill="#3A3A3A" fill-rule="nonzero"></path>
                <polygon id="+" fill="#3A3A3A" fill-rule="nonzero" points="186.7 68.68 195.7 68.68 195.7 71.08 186.7 71.08 186.7 80.08 184.3 80.08 184.3 71.08 175.3 71.08 175.3 68.68 184.3 68.68 184.3 59.68 186.7 59.68"></polygon>
                <path d="M391.7,71.68 L391.7,74.08 L371.3,74.08 L371.3,71.68 L391.7,71.68 Z M391.7,65.68 L391.7,68.08 L371.3,68.08 L371.3,65.68 L391.7,65.68 Z" id="=" fill="#3A3A3A" fill-rule="nonzero"></path>
                <g id="Logo-yellow" transform="translate(442.000000, 9.000000)">
                    <g id="Group-20">
                        <g id="Group-3" transform="translate(0.000000, 0.097429)">
                            <mask id="mask-10" fill="white">
                                <use xlink:href="#path-9"></use>
                            </mask>
                            <g id="Clip-2"></g>
                            <path d="M80.5464658,99.6634571 C77.3501712,104.843671 73.6299452,109.127779 69.3900822,112.516171 C65.1478767,115.904957 60.5066712,118.244421 55.4637329,119.536921 C50.4207945,120.829421 45.051863,120.9516 39.3612329,119.9011 C33.6690411,118.849421 27.8390342,116.462421 21.8755068,112.736564 C15.8272603,108.958064 11.0751781,104.734457 7.61457534,100.068493 C4.15319178,95.4009571 1.88217123,90.5059571 0.796438356,85.3850643 C-0.289294521,80.2637786 -0.265869863,75.0395643 0.872178082,69.7112429 C2.00710274,64.3833143 4.17427397,59.1292429 7.37017808,53.9490286 L40.4727329,0.29535 L59.5942808,12.2409571 L26.9481164,65.1541 C25.2740342,67.8675643 24.1551164,70.6446714 23.5933151,73.4818857 C23.0303425,76.3210643 23.0045753,79.0683143 23.5183562,81.72285 C24.0294041,84.3785643 25.0768767,86.8563143 26.660774,89.1541357 C28.2411575,91.45235 30.2994041,93.3922786 32.8335616,94.9751 C35.3653767,96.5575286 37.9854247,97.5396714 40.6948767,97.9215286 C43.4015959,98.3045643 46.0520959,98.1364214 48.6459863,97.4206357 C51.236363,96.7052429 53.6733082,95.4646 55.9525274,93.6971357 C58.2305753,91.9324214 60.207226,89.6911714 61.8813082,86.9777071 L94.5270822,34.0645643 L113.649021,46.0101714 L80.5464658,99.6634571 Z" id="Fill-1" fill="#000000" opacity="0.1" mask="url(#mask-10)"></path>
                        </g>
                        <path d="M15.0022438,32.3530821 L19.9050247,32.3530821 C20.6511,32.3530821 21.4412918,32.3263679 22.2763808,32.2725464 C23.110689,32.2191179 23.8661342,32.0580464 24.5415452,31.7901179 C25.2157849,31.5217964 25.7752438,31.1018321 26.2199219,30.5298321 C26.6638192,29.958225 26.885963,29.1540464 26.885963,28.1165107 C26.885963,27.1512607 26.6903671,26.383225 26.2999562,25.8108321 C25.9087644,25.2396179 25.4113808,24.8011893 24.8078055,24.4971179 C24.2030589,24.1934393 23.5104699,23.9875821 22.7292575,23.8803321 C21.9476548,23.7730821 21.184011,23.7192607 20.4379356,23.7192607 L15.0022438,23.7192607 L15.0022438,32.3530821 Z M6.68883288,16.6407607 L21.2905932,16.6407607 C23.2090726,16.6407607 25.0291685,16.8285464 26.7528329,17.203725 C28.4757164,17.5792964 29.9854356,18.2051179 31.2827712,19.0807964 C32.5789356,19.9572607 33.6092301,21.1370107 34.3736548,22.6200464 C35.1369082,24.1038679 35.5191205,25.954225 35.5191205,28.1703321 C35.5191205,30.8515821 34.8265315,33.1305464 33.440963,35.0076179 C32.0553945,36.8842964 30.0303329,38.073475 27.3657781,38.5735821 L36.9581753,54.6072607 L26.9925452,54.6072607 L19.105463,39.4315821 L15.0022438,39.4315821 L15.0022438,54.6072607 L6.68883288,54.6072607 L6.68883288,16.6407607 Z" id="Fill-4" fill-opacity="0.3" fill="#000000"></path>
                        <polygon id="Fill-6" fill-opacity="0.3" fill="#000000" points="2.95841712 73.3745964 12.4442322 73.3745964 21.7703692 98.2565964 21.8769514 98.2565964 31.362376 73.3745964 40.2621842 73.3745964 24.7011842 111.341096 18.0396021 111.341096"></polygon>
                        <path d="M70.9083904,92.3579643 C70.9083904,94.1458571 71.1832397,95.7813214 71.7345,97.26475 C72.284589,98.7485714 73.0751712,100.035571 74.1058562,101.125357 C75.1361507,102.216321 76.3706301,103.065286 77.8096849,103.672643 C79.2483493,104.281179 80.8556712,104.584464 82.6324315,104.584464 C84.4088014,104.584464 86.0165137,104.281179 87.4551781,103.672643 C88.8942329,103.065286 90.1279315,102.216321 91.1590068,101.125357 C92.188911,100.035571 92.9791027,98.7485714 93.530363,97.26475 C94.0808425,95.7813214 94.3564726,94.1458571 94.3564726,92.3579643 C94.3564726,90.6066071 94.0808425,88.9793929 93.530363,87.4778929 C92.9791027,85.9763929 92.188911,84.6811429 91.1590068,83.5901786 C90.1279315,82.5 88.8942329,81.6514286 87.4551781,81.0428929 C86.0165137,80.4355357 84.4088014,80.1314643 82.6324315,80.1314643 C80.8556712,80.1314643 79.2483493,80.4355357 77.8096849,81.0428929 C76.3706301,81.6514286 75.1361507,82.5 74.1058562,83.5901786 C73.0751712,84.6811429 72.284589,85.9763929 71.7345,87.4778929 C71.1832397,88.9793929 70.9083904,90.6066071 70.9083904,92.3579643 M62.2752329,92.3579643 C62.2752329,89.3196071 62.7815959,86.5664643 63.7939315,84.0997143 C64.8066575,81.6329643 66.218774,79.5331429 68.0306712,77.7986786 C69.8425685,76.065 71.9917808,74.7336071 74.479089,73.8037143 C76.965226,72.8742143 79.6832671,72.4094643 82.6324315,72.4094643 C85.5812055,72.4094643 88.2988562,72.8742143 90.7861644,73.8037143 C93.2723014,74.7336071 95.4222945,76.065 97.2341918,77.7986786 C99.046089,79.5331429 100.458205,81.6329643 101.470932,84.0997143 C102.483267,86.5664643 102.98963,89.3196071 102.98963,92.3579643 C102.98963,95.3967143 102.483267,98.1494643 101.470932,100.616214 C100.458205,103.082964 99.046089,105.183571 97.2341918,106.91725 C95.4222945,108.651714 93.2723014,109.982714 90.7861644,110.912214 C88.2988562,111.841321 85.5812055,112.306464 82.6324315,112.306464 C79.6832671,112.306464 76.965226,111.841321 74.479089,110.912214 C71.9917808,109.982714 69.8425685,108.651714 68.0306712,106.91725 C66.218774,105.183571 64.8066575,103.082964 63.7939315,100.616214 C62.7815959,98.1494643 62.2752329,95.3967143 62.2752329,92.3579643" id="Fill-8" fill-opacity="0.3" fill="#000000"></path>
                        <mask id="mask-12" fill="white">
                            <use xlink:href="#path-11"></use>
                        </mask>
                        <g id="Clip-11"></g>
                        <polygon id="Fill-10" fill-opacity="0.3" fill="#000000" mask="url(#mask-12)" points="64.9034795 24.4031071 98.9734726 24.4031071 98.9734726 16.6410357 64.9034795 16.6410357"></polygon>
                        <polygon id="Fill-12" fill-opacity="0.3" fill="#000000" mask="url(#mask-12)" points="64.9034795 39.1615714 98.9734726 39.1615714 98.9734726 31.3995 64.9034795 31.3995"></polygon>
                        <polygon id="Fill-13" fill-opacity="0.3" fill="#000000" mask="url(#mask-12)" points="64.9034795 53.9200357 98.9734726 53.9200357 98.9734726 46.1579643 64.9034795 46.1579643"></polygon>
                        <polygon id="Fill-14" fill="#000000" mask="url(#mask-12)" points="82.3368514 53.9201143 98.9734336 53.9201143 98.9734336 46.1580429 87.1260226 46.1580429"></polygon>
                        <path d="M90.7860082,73.8037143 C88.2987,72.8742143 85.5810493,72.4094643 82.6326658,72.4094643 C79.683111,72.4094643 76.9654603,72.8742143 74.4789329,73.8037143 C71.9916247,74.7336071 69.8424123,76.065 68.0305151,77.7986786 C67.5932548,78.2174643 67.1802,78.6586429 66.7893986,79.12025 L63.9839055,83.6671786 C63.9206589,83.8113571 63.854289,83.9527857 63.7941658,84.0997143 C62.7818301,86.5664643 62.2754671,89.3196071 62.2754671,92.3579643 C62.2754671,95.3967143 62.7818301,98.1494643 63.7941658,100.616214 C64.8065014,103.082964 66.2190082,105.183571 68.0305151,106.91725 C69.3114534,108.142964 70.764563,109.163607 72.382426,109.987036 C74.3418986,108.108786 76.1740973,106.011714 77.8813644,103.700929 C77.8575493,103.691107 77.8333438,103.682857 77.8095288,103.672643 C76.3708644,103.065286 75.1359945,102.216321 74.1057,101.125357 C73.0750151,100.035571 72.2848233,98.7485714 71.7343438,97.26475 C71.183474,95.7813214 70.9082342,94.1458571 70.9082342,92.3579643 C70.9082342,90.6066071 71.183474,88.9793929 71.7343438,87.4778929 C72.2848233,85.9763929 73.0750151,84.6811429 74.1057,83.5901786 C75.1359945,82.5 76.3708644,81.6514286 77.8095288,81.0428929 C79.2485836,80.4355357 80.8555151,80.1314643 82.6326658,80.1314643 C84.4086452,80.1314643 86.0163575,80.4355357 87.4554123,81.0428929 C88.7160493,81.576 89.8189603,82.2933571 90.7664877,83.1961429 L95.1508027,76.0893571 C93.8339466,75.1633929 92.3800562,74.4000714 90.7860082,73.8037143" id="Fill-15" fill="#000000" mask="url(#mask-12)"></path>
                        <path d="M17.4273205,109.799446 C18.1261562,110.320768 18.846074,110.835018 19.5886356,111.341018 L24.7010671,111.341018 L31.6851288,94.301625 C29.6721699,92.871625 27.994574,91.1905893 26.6605397,89.2514464 C26.3583616,88.8130179 26.0823411,88.3663393 25.8192041,87.9149464 L21.8768342,98.2565179 L21.7702521,98.2565179 L12.4441151,73.3745179 L2.9583,73.3745179 L17.4273205,109.799446 Z" id="Fill-16" fill="#000000" mask="url(#mask-12)"></path>
                        <path d="M15.0022438,54.6074179 L15.0022438,41.676525 L7.37049041,54.0464179 C7.25492877,54.233025 7.14405205,54.4204179 7.0316137,54.6074179 L15.0022438,54.6074179 Z" id="Fill-17" fill="#000000" mask="url(#mask-12)"></path>
                        <path d="M33.5154144,54.6074179 L35.2632842,51.774525 L27.365661,38.5737393 C30.0302158,38.0732393 32.0552774,36.8844536 33.4408459,35.0073821 C34.8264144,33.1307036 35.5193938,30.8513464 35.5193938,28.1704893 C35.5193938,25.9539893 35.1371815,24.104025 34.3735377,22.6202036 C33.609113,21.1371679 32.5792089,19.9574179 31.2826541,19.0809536 C30.7395925,18.714025 30.1567089,18.3938464 29.5386884,18.1149179 L25.3788596,24.8571321 C25.7310103,25.1183821 26.0409966,25.4326679 26.299839,25.8109893 C26.69025,26.3829893 26.8862363,27.1514179 26.8862363,28.1166679 C26.8862363,29.1538107 26.6637021,29.9583821 26.2201952,30.5295964 C25.7751267,31.1019893 25.2156678,31.5219536 24.5414281,31.7898821 C23.8660171,32.0582036 23.1105719,32.2188821 22.2766541,32.2727036 C21.7523322,32.3060964 21.2526062,32.3253464 20.7638116,32.3379179 L16.3873048,39.4317393 L19.1057363,39.4317393 L26.9928185,54.6074179 L33.5154144,54.6074179 Z" id="Fill-18" fill="#000000" mask="url(#mask-12)"></path>
                        <polygon id="Fill-19" fill="#000000" mask="url(#mask-12)" points="91.4423671 39.1616107 98.9733945 39.1616107 98.9733945 36.9396107 94.5270041 34.1617179"></polygon>
                    </g>
                </g>
            </g>
        </g>
    </g>
</svg>