<?xml version="1.0" encoding="UTF-8"?>
<svg width="102px" height="102px" viewBox="0 0 102 102" version="1.1" xmlns="http://www.w3.org/2000/svg" xmlns:xlink="http://www.w3.org/1999/xlink">
    <!-- Generator: Sketch 54.1 (76490) - https://sketchapp.com -->
    <title>revou logo</title>
    <desc>Created with Sketch.</desc>
    <defs>
        <polygon id="path-1" points="0 0.163584416 62.8060377 0.163584416 62.8060377 66.7824439 0 66.7824439"></polygon>
        <polygon id="path-3" points="0 66.8364156 62.8060377 66.8364156 62.8060377 0.217532468 0 0.217532468"></polygon>
    </defs>
    <g id="Page-1" stroke="none" stroke-width="1" fill="none" fill-rule="evenodd">
        <g id="Landing" transform="translate(-199.000000, -4414.000000)">
            <g id="revou-logo" transform="translate(199.000000, 4414.000000)">
                <path d="M17.4271944,4.86167916 C29.413634,1.62055972 40.9614354,1.3604801e-15 52.0705984,0 C62.9290252,0 73.7807544,1.54823247 84.6257859,4.64469741 L84.6257866,4.64469488 C90.6999987,6.37899919 95.4205464,11.1704985 97.0640461,17.269906 C100.354682,29.4822169 102,41.1566242 102,52.293128 C102,63.2379102 100.410845,74.1743866 97.232534,85.1025572 L97.2325357,85.1025577 C95.5173772,90.9998871 90.9137015,95.6156885 85.0209041,97.3463537 C74.4573377,100.448785 63.4739024,102 52.0705984,102 C40.3905479,102 28.7034571,100.372578 17.0093261,97.1177343 L17.0093264,97.1177331 C11.0228812,95.4515174 6.31921607,90.8153918 4.56659871,84.8536695 C1.52219957,74.4978081 6.95058473e-16,63.6442943 0,52.293128 C0,40.6999144 1.58780914,29.098402 4.76342742,17.4885909 L4.76342833,17.4885911 C6.44741651,11.3320625 11.265784,6.5277174 17.4271944,4.86167916 Z" id="Rectangle-Copy-13" fill="#FFDE3D"></path>
                <g id="Logo-yellow" transform="translate(21.000000, 18.000000)">
                    <g id="Group-20">
                        <g id="Group-3" transform="translate(0.000000, 0.053948)">
                            <mask id="mask-2" fill="white">
                                <use xlink:href="#path-1"></use>
                            </mask>
                            <g id="Clip-2"></g>
                            <path d="M44.5125205,55.1855506 C42.7461473,58.0539338 40.6902329,60.4261253 38.3471507,62.3023429 C36.002774,64.1787779 33.4378973,65.4741838 30.6510103,66.1898656 C27.8641233,66.9055474 24.8970822,66.9732 21.7522603,66.3915182 C18.6065753,65.8091838 15.3847295,64.4874565 12.0890959,62.4243786 C8.74664384,60.3321513 6.12049315,57.9934597 4.20805479,55.4098266 C2.29518493,52.8253234 1.04014726,50.1148688 0.440136986,47.2793331 C-0.159873288,44.4435799 -0.146928082,41.5508331 0.481993151,38.6004403 C1.10918836,35.6502649 2.30683562,32.7409857 4.07299315,29.8726026 L22.3665103,0.163540909 L32.9336815,6.77805065 L14.8923801,36.0770636 C13.9672295,37.5795604 13.3488801,39.1172974 13.038411,40.6883169 C12.7272945,42.260424 12.7130548,43.7816286 12.9969863,45.2514955 C13.2794075,46.7220149 13.858274,48.0939922 14.7335856,49.3663396 C15.6069555,50.6389045 16.7444075,51.7130799 18.144863,52.5895182 C19.544024,53.465739 20.9919452,54.0095701 22.489274,54.2210117 C23.9850925,54.4331058 25.4498425,54.3400019 26.8833082,53.9436578 C28.3148322,53.5475312 29.6615651,52.8605636 30.9211336,51.8818851 C32.1800548,50.9047292 33.2724144,49.6637065 34.1975651,48.1612097 L52.2386507,18.8621968 L62.8060377,25.4767065 L44.5125205,55.1855506 Z" id="Fill-1" fill="#000000" opacity="0.1" mask="url(#mask-2)"></path>
                        </g>
                        <path d="M8.2907137,17.9145166 L11.0001452,17.9145166 C11.41245,17.9145166 11.8491349,17.8997244 12.3106315,17.8699224 C12.7716966,17.840338 13.1891795,17.7511497 13.5624329,17.6027925 C13.935039,17.4542179 14.2442137,17.2216756 14.4899568,16.9049484 C14.7352685,16.5884386 14.8580322,16.1431497 14.8580322,15.5686464 C14.8580322,15.0341692 14.7499397,14.6088932 14.5341863,14.2919484 C14.3180014,13.9756562 14.0431315,13.7328899 13.7095767,13.5645198 C13.3753747,13.3963672 12.9926281,13.2823802 12.5609055,13.2229938 C12.1289671,13.1636075 11.7069534,13.1338055 11.2946486,13.1338055 L8.2907137,13.1338055 L8.2907137,17.9145166 Z M3.69646027,9.21430552 L11.7658541,9.21430552 C12.8260664,9.21430552 13.8319089,9.31828604 14.7844603,9.52602955 C15.7365801,9.73399058 16.5708986,10.0805198 17.2878473,10.5653997 C18.0041486,11.0507146 18.5735219,11.7039646 18.9959671,12.5251497 C19.4177651,13.3467698 19.6289877,14.3713477 19.6289877,15.5984484 C19.6289877,17.0831075 19.2462411,18.3450133 18.4805322,19.3843834 C17.7148233,20.423536 16.5957103,21.0820068 15.1231932,21.3589256 L20.4242548,30.2370782 L14.9169329,30.2370782 L10.5582822,21.8340166 L8.2907137,21.8340166 L8.2907137,30.2370782 L3.69646027,30.2370782 L3.69646027,9.21430552 Z" id="Fill-4" fill-opacity="0.3" fill="#000000"></path>
                        <polygon id="Fill-6" fill-opacity="0.3" fill="#000000" points="1.63491473 40.6289088 6.87707568 40.6289088 12.0309935 54.4065451 12.0898942 54.4065451 17.3318394 40.6289088 22.2501545 40.6289088 13.6506545 61.6516815 9.96925377 61.6516815"></polygon>
                        <path d="M39.1862158,51.1403604 C39.1862158,52.1303506 39.3381062,53.0359383 39.64275,53.8573409 C39.9467466,54.678961 40.3836473,55.3915974 40.9532363,55.9950325 C41.5226096,56.5991201 42.2048219,57.0692078 43.000089,57.405513 C43.7951404,57.7424708 44.6833973,57.9104058 45.6652911,57.9104058 C46.6469692,57.9104058 47.5354418,57.7424708 48.3304932,57.405513 C49.1257603,57.0692078 49.8075411,56.5991201 50.3773459,55.9950325 C50.9465034,55.3915974 51.3831884,54.678961 51.6878322,53.8573409 C51.9920445,53.0359383 52.1443664,52.1303506 52.1443664,51.1403604 C52.1443664,50.1706006 51.9920445,49.2695812 51.6878322,48.4381721 C51.3831884,47.606763 50.9465034,46.8895584 50.3773459,46.2854708 C49.8075411,45.6818182 49.1257603,45.2119481 48.3304932,44.8749903 C47.5354418,44.5386851 46.6469692,44.3703149 45.6652911,44.3703149 C44.6833973,44.3703149 43.7951404,44.5386851 43.000089,44.8749903 C42.2048219,45.2119481 41.5226096,45.6818182 40.9532363,46.2854708 C40.3836473,46.8895584 39.9467466,47.606763 39.64275,48.4381721 C39.3381062,49.2695812 39.1862158,50.1706006 39.1862158,51.1403604 M34.4152603,51.1403604 C34.4152603,49.4579643 34.6950925,47.9334968 35.2545411,46.5676104 C35.8142055,45.201724 36.5945856,44.039013 37.5958973,43.0786071 C38.5972089,42.1186364 39.7849315,41.3814188 41.1594966,40.8665195 C42.5334144,40.3518377 44.0354897,40.0944968 45.6652911,40.0944968 C47.2948767,40.0944968 48.7967363,40.3518377 50.1713014,40.8665195 C51.5452192,41.3814188 52.7333733,42.1186364 53.7346849,43.0786071 C54.7359966,44.039013 55.5163767,45.201724 56.0760411,46.5676104 C56.6354897,47.9334968 56.9153219,49.4579643 56.9153219,51.1403604 C56.9153219,52.822974 56.6354897,54.347224 56.0760411,55.7131104 C55.5163767,57.0789968 54.7359966,58.2421429 53.7346849,59.2021136 C52.7333733,60.1625195 51.5452192,60.8995195 50.1713014,61.4142013 C48.7967363,61.9286656 47.2948767,62.186224 45.6652911,62.186224 C44.0354897,62.186224 42.5334144,61.9286656 41.1594966,61.4142013 C39.7849315,60.8995195 38.5972089,60.1625195 37.5958973,59.2021136 C36.5945856,58.2421429 35.8142055,57.0789968 35.2545411,55.7131104 C34.6950925,54.347224 34.4152603,52.822974 34.4152603,51.1403604" id="Fill-8" fill-opacity="0.3" fill="#000000"></path>
                        <mask id="mask-4" fill="white">
                            <use xlink:href="#path-3"></use>
                        </mask>
                        <g id="Clip-11"></g>
                        <polygon id="Fill-10" fill-opacity="0.3" fill="#000000" mask="url(#mask-4)" points="35.8677123 13.5124643 54.6958664 13.5124643 54.6958664 9.21445779 35.8677123 9.21445779"></polygon>
                        <polygon id="Fill-12" fill-opacity="0.3" fill="#000000" mask="url(#mask-4)" points="35.8677123 21.6845065 54.6958664 21.6845065 54.6958664 17.3865 35.8677123 17.3865"></polygon>
                        <polygon id="Fill-13" fill-opacity="0.3" fill="#000000" mask="url(#mask-4)" points="35.8677123 29.8565487 54.6958664 29.8565487 54.6958664 25.5585422 35.8677123 25.5585422"></polygon>
                        <polygon id="Fill-14" fill="#000000" mask="url(#mask-4)" points="45.5019442 29.8565922 54.6958449 29.8565922 54.6958449 25.5585857 48.1485914 25.5585857"></polygon>
                        <path d="M50.1712151,40.8665195 C48.79665,40.3518377 47.2947904,40.0944968 45.6654205,40.0944968 C44.0354034,40.0944968 42.5335438,40.3518377 41.1594103,40.8665195 C39.7848452,41.3814188 38.5971226,42.1186364 37.595811,43.0786071 C37.3541671,43.3104968 37.1259,43.5547857 36.9099308,43.8103864 L35.3595267,46.3281071 C35.3245747,46.4079416 35.2878966,46.4862532 35.2546705,46.5676104 C34.6952219,47.9334968 34.4153897,49.4579643 34.4153897,51.1403604 C34.4153897,52.822974 34.6952219,54.347224 35.2546705,55.7131104 C35.8141192,57.0789968 36.5947151,58.2421429 37.595811,59.2021136 C38.3036979,59.8808149 39.1067322,60.4459643 40.0008144,60.9019123 C41.0836808,59.8618896 42.0962116,58.7007013 43.0397014,57.4211753 C43.0265404,57.415737 43.0131637,57.4111688 43.0000027,57.405513 C42.2049514,57.0692078 41.5225233,56.5991201 40.95315,55.9950325 C40.383561,55.3915974 39.946876,54.678961 39.6426637,53.8573409 C39.3382356,53.0359383 39.1861295,52.1303506 39.1861295,51.1403604 C39.1861295,50.1706006 39.3382356,49.2695812 39.6426637,48.4381721 C39.946876,47.606763 40.383561,46.8895584 40.95315,46.2854708 C41.5225233,45.6818182 42.2049514,45.2119481 43.0000027,44.8749903 C43.7952699,44.5386851 44.683311,44.3703149 45.6654205,44.3703149 C46.6468829,44.3703149 47.5353555,44.5386851 48.3306226,44.8749903 C49.0272904,45.1701818 49.6367938,45.5673961 50.1604274,46.0672857 L52.5833384,42.1321234 C51.8556021,41.6193994 51.0521363,41.1967338 50.1712151,40.8665195" id="Fill-15" fill="#000000" mask="url(#mask-4)"></path>
                        <path d="M9.63088767,60.7980406 C10.0170863,61.0867062 10.4149356,61.3714562 10.8252986,61.651638 L13.6505897,61.651638 L17.5102027,52.2166023 C16.3977781,51.4247841 15.4706856,50.4939627 14.7334562,49.4202224 C14.566463,49.1774562 14.4139253,48.9301218 14.2685075,48.6801769 L12.0898295,54.4065016 L12.0309288,54.4065016 L6.87701096,40.6288653 L1.63485,40.6288653 L9.63088767,60.7980406 Z" id="Fill-16" fill="#000000" mask="url(#mask-4)"></path>
                        <path d="M8.2907137,30.2371653 L8.2907137,23.0770841 L4.07316575,29.9265289 C4.00930274,30.0298568 3.94802877,30.1336198 3.88589178,30.2371653 L8.2907137,30.2371653 Z" id="Fill-17" fill="#000000" mask="url(#mask-4)"></path>
                        <path d="M18.5216764,30.2371653 L19.4876045,28.6685386 L15.1231284,21.3590127 C16.5956455,21.0818763 17.7147586,20.4236231 18.4804675,19.3842529 C19.2461764,18.3451003 19.6291387,17.0829769 19.6291387,15.5985354 C19.6291387,14.3712172 19.4179161,13.3468568 18.9959024,12.5252367 C18.5734572,11.7040516 18.0042997,11.0508016 17.2877825,10.5654867 C16.9876695,10.3623114 16.6655497,10.1850224 16.324012,10.0305744 L14.0251592,13.7638666 C14.2197688,13.9085256 14.3910771,14.0825516 14.5341216,14.2920354 C14.749875,14.6087627 14.8581832,15.0342562 14.8581832,15.5687334 C14.8581832,16.1430192 14.7352038,16.5885256 14.4901079,16.9048179 C14.244149,17.2217627 13.9349743,17.4543049 13.5623682,17.602662 C13.1891147,17.7512367 12.7716318,17.8402075 12.3107825,17.8700094 C12.0210257,17.8884997 11.7448613,17.8991588 11.474738,17.9061198 L9.05614212,21.8341036 L10.5584332,21.8341036 L14.9170839,30.2371653 L18.5216764,30.2371653 Z" id="Fill-18" fill="#000000" mask="url(#mask-4)"></path>
                        <polygon id="Fill-19" fill="#000000" mask="url(#mask-4)" points="50.5339397 21.6845282 54.6958233 21.6845282 54.6958233 20.4541646 52.2386075 18.9159925"></polygon>
                    </g>
                </g>
            </g>
        </g>
    </g>
</svg>