<?xml version="1.0" encoding="UTF-8"?>
<svg width="123px" height="97px" viewBox="0 0 123 97" version="1.1" xmlns="http://www.w3.org/2000/svg" xmlns:xlink="http://www.w3.org/1999/xlink">
    <!-- Generator: Sketch 54.1 (76490) - https://sketchapp.com -->
    <title>S</title>
    <desc>Created with Sketch.</desc>
    <g id="Page-1" stroke="none" stroke-width="1" fill="none" fill-rule="evenodd">
        <g id="Landing" transform="translate(-1090.000000, -5290.000000)" fill-rule="nonzero">
            <g id="S" transform="translate(1090.000000, 5290.000000)">
                <path d="M6.05948565,25.8012695 C7.16796308,26.6379096 7.92171643,27.430504 8.32076831,28.1790767 C8.83066793,29.1698346 9.08561391,30.347718 9.08561391,31.7127623 L9.08561391,43.5687728 C9.08561391,44.8237329 9.45140598,45.8530048 10.1830011,46.6566196 C10.9145962,47.4602344 11.8235341,47.917077 12.9098419,48.0271612 C13.597098,48.0932117 14.0515669,48.2253108 14.2732624,48.4234624 C14.5614665,48.6876645 14.7055664,49.0179122 14.7055664,49.4142154 C14.7055664,49.8325354 14.5614665,50.1682872 14.2732624,50.4214809 C13.9850582,50.6746746 13.5638431,50.8012695 13.0096044,50.8012695 C11.2582101,50.8012695 9.7950418,50.2508567 8.62005572,49.1500146 C7.04601776,47.6308524 6.25901059,45.7814654 6.25901059,43.6017979 L6.25901059,31.7127623 C6.25901059,30.5018359 5.89321852,29.4835722 5.16162341,28.6579406 C4.43002831,27.832309 3.49892123,27.3754664 2.36827424,27.287399 C1.74752688,27.2213485 1.31522717,27.0672329 1.07136213,26.8250476 C0.827497095,26.5828623 0.705566406,26.2416064 0.705566406,25.8012695 C0.705566406,25.3829495 0.827497095,25.0527018 1.07136213,24.8105166 C1.31522717,24.5683313 1.74752688,24.4142157 2.36827424,24.3481652 C3.52109078,24.2600978 4.45774016,23.8032552 5.17825049,22.9776236 C5.89876082,22.151992 6.25901059,21.1337282 6.25901059,19.9228019 L6.25901059,8.03376623 C6.25901059,5.96418301 6.92408707,4.2413909 8.25425999,2.86533822 C9.58443291,1.48928555 11.1806165,0.801269531 13.0428586,0.801269531 C13.5749277,0.801269531 13.9850582,0.933368607 14.2732624,1.19757072 C14.5614665,1.46177283 14.7055664,1.79202052 14.7055664,2.18832369 C14.7055664,2.58462686 14.5614665,2.91487455 14.2732624,3.17907666 C14.0737364,3.39924509 13.6192675,3.54235242 12.9098419,3.60840295 C11.8013645,3.71848717 10.8868843,4.18083393 10.166374,4.99545711 C9.44586367,5.8100803 9.08561391,6.82283987 9.08561391,8.03376623 L9.08561391,19.9228019 C9.08561391,21.309863 8.86392175,22.427201 8.42053078,23.2748495 C7.9771398,24.1224979 7.19013263,24.9646295 6.05948565,25.8012695 Z" id="{" fill="#FFFFFF"></path>
                <path d="M21.1496151,4 C20.5147002,4 20,3.77614237 20,3.5 C20,3.22385763 20.5147002,3 21.1496151,3 L105.850385,3 C106.4853,3 107,3.22385763 107,3.5 C107,3.77614237 106.4853,4 105.850385,4 L21.1496151,4 Z" id="Line-9" fill="#FCEE55"></path>
                <path d="M21.1496151,50 C20.5147002,50 20,49.7761424 20,49.5 C20,49.2238576 20.5147002,49 21.1496151,49 L105.850385,49 C106.4853,49 107,49.2238576 107,49.5 C107,49.7761424 106.4853,50 105.850385,50 L21.1496151,50 Z" id="Line-9-Copy-4" fill="#FFFFFF"></path>
                <path d="M21.1120775,9 C20.497894,9 20,8.77614237 20,8.5 C20,8.22385763 20.497894,8 21.1120775,8 L78.8879225,8 C79.502106,8 80,8.22385763 80,8.5 C80,8.77614237 79.502106,9 78.8879225,9 L21.1120775,9 Z" id="Line-9-Copy" fill="#FFFFFF" opacity="0.300000012"></path>
                <path d="M35.1009239,57 C34.4929004,57 34,56.7761424 34,56.5 C34,56.2238576 34.4929004,56 35.1009239,56 L104.899076,56 C105.5071,56 106,56.2238576 106,56.5 C106,56.7761424 105.5071,57 104.899076,57 L35.1009239,57 Z" id="Line-9-Copy-2" fill="#FCEE55"></path>
                <path d="M84.0791646,62 C83.4831584,62 83,61.7761424 83,61.5 C83,61.2238576 83.4831584,61 84.0791646,61 L106.920835,61 C107.516842,61 108,61.2238576 108,61.5 C108,61.7761424 107.516842,62 106.920835,62 L84.0791646,62 Z" id="Line-9-Copy-9" fill="#FFFFFF" opacity="0.300000012"></path>
                <path d="M94.2027567,68 C93.5384925,68 93,67.7761424 93,67.5 C93,67.2238576 93.5384925,67 94.2027567,67 L105.797243,67 C106.461507,67 107,67.2238576 107,67.5 C107,67.7761424 106.461507,68 105.797243,68 L94.2027567,68 Z" id="Line-9-Copy-10" fill="#FFFFFF"></path>
                <path d="M84.0791646,74 C83.4831584,74 83,73.7761424 83,73.5 C83,73.2238576 83.4831584,73 84.0791646,73 L106.920835,73 C107.516842,73 108,73.2238576 108,73.5 C108,73.7761424 107.516842,74 106.920835,74 L84.0791646,74 Z" id="Line-9-Copy-11" fill="#FFFFFF" opacity="0.300000012"></path>
                <path d="M56.172716,79 C55.5250428,79 55,78.7761424 55,78.5 C55,78.2238576 55.5250428,78 56.172716,78 L104.827284,78 C105.474957,78 106,78.2238576 106,78.5 C106,78.7761424 105.474957,79 104.827284,79 L56.172716,79 Z" id="Line-9-Copy-12" fill="#FFFFFF" opacity="0.300000012"></path>
                <path d="M75.1795598,85 C74.5281069,85 74,84.7761424 74,84.5 C74,84.2238576 74.5281069,84 75.1795598,84 L105.82044,84 C106.471893,84 107,84.2238576 107,84.5 C107,84.7761424 106.471893,85 105.82044,85 L75.1795598,85 Z" id="Line-9-Copy-13" fill="#FFFFFF"></path>
                <path d="M85.1288541,92 C84.5054052,92 84,91.7761424 84,91.5 C84,91.2238576 84.5054052,91 85.1288541,91 L104.871146,91 C105.494595,91 106,91.2238576 106,91.5 C106,91.7761424 105.494595,92 104.871146,92 L85.1288541,92 Z" id="Line-9-Copy-14" fill="#FFFFFF" opacity="0.300000012"></path>
                <path d="M21.138603,97 C20.5097699,97 20,96.7761424 20,96.5 C20,96.2238576 20.5097699,96 21.138603,96 L105.861397,96 C106.49023,96 107,96.2238576 107,96.5 C107,96.7761424 106.49023,97 105.861397,97 L21.138603,97 Z" id="Line-9-Copy-15" fill="#FCEE55"></path>
                <path d="M21.1120775,15 C20.497894,15 20,14.7761424 20,14.5 C20,14.2238576 20.497894,14 21.1120775,14 L78.8879225,14 C79.502106,14 80,14.2238576 80,14.5 C80,14.7761424 79.502106,15 78.8879225,15 L21.1120775,15 Z" id="Line-9-Copy-3" fill="#FCEE55"></path>
                <path d="M21.1340506,22 C20.5077318,22 20,21.7761424 20,21.5 C20,21.2238576 20.5077318,21 21.1340506,21 L53.8659494,21 C54.4922682,21 55,21.2238576 55,21.5 C55,21.7761424 54.4922682,22 53.8659494,22 L21.1340506,22 Z" id="Line-9-Copy-5" fill="#FFFFFF" opacity="0.300000012"></path>
                <path d="M21.1340506,27 C20.5077318,27 20,26.7761424 20,26.5 C20,26.2238576 20.5077318,26 21.1340506,26 L53.8659494,26 C54.4922682,26 55,26.2238576 55,26.5 C55,26.7761424 54.4922682,27 53.8659494,27 L21.1340506,27 Z" id="Line-9-Copy-6" fill="#FFFFFF" opacity="0.300000012"></path>
                <path d="M21.1344005,33 C20.5078884,33 20,32.7761424 20,32.5 C20,32.2238576 20.5078884,32 21.1344005,32 L29.8655995,32 C30.4921116,32 31,32.2238576 31,32.5 C31,32.7761424 30.4921116,33 29.8655995,33 L21.1344005,33 Z" id="Line-9-Copy-7" fill="#FFFFFF"></path>
                <path d="M21.1344005,39 C20.5078884,39 20,38.7761424 20,38.5 C20,38.2238576 20.5078884,38 21.1344005,38 L29.8655995,38 C30.4921116,38 31,38.2238576 31,38.5 C31,38.7761424 30.4921116,39 29.8655995,39 L21.1344005,39 Z" id="Line-9-Copy-8" fill="#FFFFFF"></path>
                <path d="M115.29464,72.8012695 C116.244764,73.5183896 116.890838,74.1977562 117.232882,74.8393899 C117.669939,75.688611 117.888464,76.6982254 117.888464,77.8682633 L117.888464,88.0305581 C117.888464,89.1062381 118.202,89.9884712 118.829082,90.6772839 C119.456163,91.3660965 120.235253,91.7576759 121.166374,91.8520338 C121.755451,91.9086486 122.144995,92.0218763 122.33502,92.1917206 C122.582052,92.4181795 122.705566,92.701249 122.705566,93.0409374 C122.705566,93.3994974 122.582052,93.6872847 122.33502,93.9043078 C122.087988,94.121331 121.726946,94.229841 121.251885,94.229841 C119.75069,94.229841 118.496545,93.7580585 117.489414,92.8144796 C116.140239,91.5123406 115.465661,89.9271517 115.465661,88.0588653 L115.465661,77.8682633 C115.465661,76.8303264 115.152125,75.957529 114.525044,75.2498447 C113.897962,74.5421605 113.099871,74.1505811 112.130745,74.0750948 C111.598675,74.01848 111.228133,73.886381 111.019106,73.6787936 C110.810078,73.4712062 110.705566,73.1787011 110.705566,72.8012695 C110.705566,72.4427095 110.810078,72.1596401 111.019106,71.9520527 C111.228133,71.7444653 111.598675,71.6123662 112.130745,71.5557515 C113.118873,71.4802652 113.921715,71.0886858 114.539296,70.3810016 C115.156876,69.6733173 115.465661,68.8005199 115.465661,67.762583 L115.465661,57.571981 C115.465661,55.7980525 116.035727,54.3213736 117.175875,53.1418998 C118.316023,51.9624261 119.684181,51.3726981 121.280388,51.3726981 C121.736448,51.3726981 122.087988,51.4859259 122.33502,51.7123848 C122.582052,51.9388438 122.705566,52.2219132 122.705566,52.5616017 C122.705566,52.9012901 122.582052,53.1843595 122.33502,53.4108185 C122.163998,53.5995343 121.774453,53.7221977 121.166374,53.7788125 C120.21625,53.8731704 119.43241,54.2694676 118.81483,54.967716 C118.19725,55.6659645 117.888464,56.5340441 117.888464,57.571981 L117.888464,67.762583 C117.888464,68.9514925 117.698442,69.9092108 117.318393,70.6357666 C116.938344,71.3623224 116.263766,72.0841495 115.29464,72.8012695 Z" id="{" fill="#FFFFFF" transform="translate(116.705566, 72.801270) scale(-1, -1) translate(-116.705566, -72.801270) "></path>
            </g>
        </g>
    </g>
</svg>