<?xml version="1.0" encoding="UTF-8"?>
<svg width="102px" height="102px" viewBox="0 0 102 102" version="1.1" xmlns="http://www.w3.org/2000/svg" xmlns:xlink="http://www.w3.org/1999/xlink">
    <!-- Generator: Sketch 54.1 (76490) - https://sketchapp.com -->
    <title>Group 6</title>
    <desc>Created with Sketch.</desc>
    <g id="Page-1" stroke="none" stroke-width="1" fill="none" fill-rule="evenodd">
        <g id="Landing" transform="translate(-199.000000, -1195.000000)">
            <g id="Group-6" transform="translate(199.000000, 1195.000000)">
                <path d="M17.4271944,4.86167916 C29.413634,1.62055972 40.9614354,1.3604801e-15 52.0705984,0 C62.9290252,0 73.7807544,1.54823247 84.6257859,4.64469741 L84.6257866,4.64469488 C90.6999987,6.37899919 95.4205464,11.1704985 97.0640461,17.269906 C100.354682,29.4822169 102,41.1566242 102,52.293128 C102,63.2379102 100.410845,74.1743866 97.232534,85.1025572 L97.2325357,85.1025577 C95.5173772,90.9998871 90.9137015,95.6156885 85.0209041,97.3463537 C74.4573377,100.448785 63.4739024,102 52.0705984,102 C40.3905479,102 28.7034571,100.372578 17.0093261,97.1177343 L17.0093264,97.1177331 C11.0228812,95.4515174 6.31921607,90.8153918 4.56659871,84.8536695 C1.52219957,74.4978081 6.95058473e-16,63.6442943 0,52.293128 C0,40.6999144 1.58780914,29.098402 4.76342742,17.4885909 L4.76342833,17.4885911 C6.44741651,11.3320625 11.265784,6.5277174 17.4271944,4.86167916 Z" id="Rectangle" fill="#000000"></path>
                <g id="styletribute-logo-white" transform="translate(11.000000, 32.000000)" fill="#FFFFFF" fill-rule="nonzero">
                    <path d="M80.997681,37.7366903 C80.9125399,37.7299646 80.8275644,37.7176903 80.742589,37.7176903 C78.5560859,37.7166814 76.3695828,37.7186991 74.183411,37.7163451 C72.5869325,37.7146637 70.9906196,37.7079381 69.3941411,37.7032301 L69.1844356,37.7032301 C69.4090491,37.6250442 69.5882761,37.5764513 69.755908,37.5014602 C70.3061779,37.2563097 70.5866135,36.8171239 70.6252086,36.2134956 C70.6301779,36.1331239 70.6278589,36.0520796 70.6278589,35.971708 C70.6278589,32.4948761 70.617589,29.0180442 70.6354785,25.5412124 C70.6396196,24.7223628 70.2114294,24.3373186 69.647411,24.1395841 C69.4628834,24.0746814 69.2689141,24.037354 69.0646748,23.9832124 L80.2204785,23.9832124 L80.2204785,27.2646637 C80.042908,27.3319204 79.971184,27.2599558 79.9127117,27.0852566 C79.574135,26.0767434 79.0258528,25.2294779 78.0902945,24.6816726 C77.6185399,24.4054159 77.1113374,24.2685487 76.5751472,24.2624956 C75.5484847,24.2507257 74.5214908,24.2591327 73.4941656,24.259469 C73.4688221,24.259469 73.442816,24.2638407 73.4014049,24.2678761 L73.4014049,30.1978938 C74.1363681,30.1689735 74.8806074,30.2947434 75.5961902,30.0115929 C76.198638,29.7731681 76.6082761,29.3264159 76.8577362,28.7387611 C77.0217239,28.3525398 77.1277362,27.9404248 77.2579325,27.5394071 C77.2781411,27.4766903 77.2900675,27.411115 77.3076258,27.341 L77.5444969,27.341 L77.5444969,33.3238142 L77.3152454,33.3238142 C77.2070798,32.9702124 77.1055399,32.609885 76.9861104,32.2557788 C76.8204663,31.7653097 76.5680245,31.3284779 76.1691534,30.9910177 C75.8395215,30.7122389 75.462681,30.5293009 75.0339939,30.512823 C74.4939939,30.4921416 73.9523374,30.5077788 73.3979264,30.5077788 L73.3979264,37.4049469 C73.4244294,37.413354 73.4542454,37.4310088 73.4840613,37.4308407 C74.544184,37.4296637 75.604638,37.4493363 76.6636012,37.4190708 C78.3263374,37.3713186 79.4641472,36.4803363 80.2029202,35.0230531 C80.4066626,34.6201858 80.5444785,34.1801593 80.6816319,33.7471947 C80.7389448,33.5672832 80.7939387,33.445885 80.9973497,33.4593363 L80.9973497,37.7365221 L80.997681,37.7366903 Z M0.017392638,23.8951062 C0.474570552,23.8929204 0.931417178,23.888885 1.38842945,23.8887168 C3.29002454,23.8880442 5.19161963,23.8883805 7.09288344,23.8883805 L7.35211656,23.8883805 L7.35211656,24.1838053 C7.35211656,27.990531 7.34880368,31.7969204 7.35509816,35.603646 C7.35625767,36.3039558 7.57904908,36.9171681 8.18944785,37.3129735 C8.38623313,37.4404248 8.61796933,37.5120531 8.81392638,37.6001593 L3.08065031,37.6001593 C3.22111656,37.5537522 3.35230675,37.5194513 3.47620859,37.4678319 C4.15700613,37.1824956 4.45682209,36.6182124 4.54577301,35.915885 C4.58088957,35.6371062 4.58718405,35.3526106 4.58768098,35.0711416 C4.59033129,31.5068761 4.58933742,27.9424425 4.58933742,24.3776726 L4.58933742,24.2038142 C3.45169325,24.0558496 2.40780368,24.228531 1.49129448,24.9641504 C0.74208589,25.5654248 0.218319018,26.3033982 0.042404908,27.2713894 C0.0390920245,27.2902212 0.0258404908,27.3075398 0.0175582822,27.325531 L0.0175582822,23.8954425 L0.017392638,23.8951062 Z M68.3557178,0.126610619 C68.3905031,0.141743363 68.4242945,0.160238938 68.4600736,0.171504425 C68.8712025,0.297274336 69.1789693,0.544778761 69.402589,0.923097345 C69.8862699,1.73976106 70.5902577,2.26654867 71.5084233,2.47706195 C72.3217362,2.66369912 72.8103865,3.3480354 72.7398221,4.19244248 C72.6596503,5.14832743 72.9276626,5.99828319 73.5564479,6.72162832 C74.1017485,7.34879646 74.0865092,8.22061062 73.5422025,8.84626549 C72.9193804,9.56204425 72.6603129,10.4130088 72.7388282,11.3616637 C72.8100552,12.2163274 72.3114663,12.8959558 71.4882147,13.0810796 C70.5982086,13.2811681 69.9079693,13.7956814 69.4337301,14.5792212 C68.9586626,15.3641062 68.2116074,15.6186726 67.3757669,15.2664159 C66.5306503,14.910292 65.6706258,14.9113009 64.8265031,15.274823 C64.0264417,15.619177 63.2462577,15.355531 62.7963681,14.5968761 C62.3237853,13.799885 61.6272515,13.2853717 60.732773,13.0810796 C59.9095215,12.8934336 59.4112638,12.2176726 59.4805031,11.3626726 C59.5586871,10.3997257 59.2911718,9.54270796 58.6531104,8.81700885 C58.1450798,8.23893805 58.1136074,7.37149558 58.6156748,6.78787611 C59.2848773,6.01022124 59.5673006,5.1199115 59.4750368,4.0930708 C59.4084479,3.35156637 59.915319,2.66655752 60.634546,2.50076991 C61.6101902,2.27646903 62.3522761,1.73370796 62.8601411,0.856345133 C63.0484785,0.530654867 63.3310675,0.316610619 63.6840552,0.197566372 C63.7448466,0.177053097 63.803816,0.150486726 63.8636135,0.126946903 L64.4599325,0.126946903 C65.5598098,0.678451327 66.6596871,0.680132743 67.7595644,0.126946903 C67.9583374,0.126610619 68.1571104,0.126610619 68.3558834,0.126610619 L68.3557178,0.126610619 Z M59.9797546,11.3438407 C59.9780982,11.3640177 59.9756135,11.3841947 59.9739571,11.4040354 C59.9229387,12.0856814 60.1637853,12.412885 60.8096319,12.5781681 C61.8664417,12.8485398 62.6886994,13.4558673 63.2595092,14.3979646 C63.5787055,14.9242478 64.0155092,15.070531 64.5750552,14.8359735 C65.5821718,14.4139381 66.6013804,14.4112478 67.6113129,14.8205044 C68.2220429,15.0680088 68.6270429,14.9390442 68.9722454,14.3796372 C69.5662454,13.4178673 70.4146748,12.8041504 71.5087546,12.5561416 C71.9735521,12.4507168 72.2930798,12.0428053 72.2599509,11.5627611 C72.2483558,11.395292 72.2185399,11.2269823 72.2268221,11.0606903 C72.2748589,10.0563805 72.5879264,9.15732743 73.2616012,8.40069027 C73.5812945,8.04221239 73.5784785,7.51071681 73.2632577,7.1480354 C72.4797607,6.24797345 72.1526135,5.19961062 72.2553129,4.00681416 C72.2978834,3.51146903 71.9864724,3.10389381 71.5072638,2.99409735 C70.391319,2.73852212 69.5327853,2.11135398 68.9414356,1.11797345 C68.6560307,0.639106195 68.1867607,0.48340708 67.6818773,0.698628319 C66.636,1.14420354 65.5831656,1.14369912 64.5372883,0.698628319 C64.0390307,0.486265487 63.5649571,0.63759292 63.2893252,1.10216814 C62.6958221,2.10261062 61.8361288,2.73684071 60.7122331,2.99460177 C60.3749816,3.0719469 60.1233681,3.26463717 60.0241472,3.59486726 C59.9648466,3.79243363 59.9761104,4.01757522 59.9833988,4.22909735 C60.0211656,5.30352212 59.7112454,6.25772566 59.0226626,7.0740531 C58.6284294,7.54081416 58.6227975,8.00757522 59.0234908,8.47887611 C59.7225092,9.30142478 60.0118896,10.2685752 59.9802515,11.3440088 L59.9797546,11.3438407 Z M29.1053374,21.6563009 L23.2443497,21.6563009 C23.2824479,21.6378053 23.3152454,21.6129204 23.3516871,21.6055221 C24.2792945,21.4148496 24.7099693,20.6445929 24.7364724,19.8652566 C24.7805337,18.5554336 24.7717546,17.2439292 24.7820245,15.9332655 C24.7825215,15.8767699 24.7621472,15.813885 24.7339877,15.7637788 C23.8077055,14.1196903 22.8930184,12.4688761 21.945865,10.8372301 C21.5088957,10.0849646 20.9970552,9.38028319 20.3949387,8.74790265 C20.058681,8.39480531 19.680184,8.2160708 19.1802699,8.23002655 C18.1476442,8.25861062 17.1136933,8.24179646 16.0804049,8.24465487 C16.0287239,8.24465487 15.9773742,8.25255752 15.8995215,8.2589469 L15.8995215,8.50241593 C15.8995215,12.1140973 15.8945521,15.7254425 15.9064785,19.3367876 C15.9078037,19.7137611 15.9637914,20.1038496 16.0704663,20.4643451 C16.2472086,21.0607434 16.6803681,21.4224159 17.2700613,21.5888761 C17.3330061,21.606531 17.395454,21.6262035 17.4875521,21.6537788 L11.6257362,21.6537788 C11.6764233,21.6332655 11.718,21.6100619 11.7625583,21.5991327 C12.5493681,21.4096372 12.9601656,20.8670442 13.0882086,20.0930885 C13.1470123,19.7378053 13.1521472,19.3705841 13.1533067,19.0085752 C13.1642393,15.3435929 13.1693742,11.6786106 13.176,8.01379646 L13.176,7.77806195 L24.8867117,7.77806195 C24.7442577,7.8239646 24.6514969,7.8510354 24.5607239,7.88399115 C24.0117791,8.08189381 23.8318896,8.48526549 24.0997362,9.01053982 C24.3669202,9.53480531 24.6741902,10.0383894 24.9643988,10.5507168 C25.7995767,12.0236372 26.6362454,13.4953805 27.466454,14.9711593 C27.5187975,15.0639735 27.5439755,15.1855398 27.5443067,15.2939912 C27.5492761,16.6862035 27.5343681,18.0784159 27.5565644,19.4701239 C27.562362,19.8388584 27.6332577,20.2212124 27.7520245,20.5697699 C27.9337362,21.105469 28.3443681,21.4293097 28.8805583,21.5850088 C28.9459877,21.6040088 29.010092,21.6262035 29.1053374,21.656469 L29.1053374,21.6563009 Z M10.687362,23.8747611 C10.8849755,23.8747611 11.0827546,23.8757699 11.2803681,23.8747611 C12.8104233,23.8660177 14.3404785,23.8549204 15.8703681,23.8490354 C16.6053313,23.8456726 17.3417853,23.8221327 18.0745951,23.8618142 C19.0966196,23.9173009 20.0783926,24.144292 20.9402393,24.7529646 C22.3377791,25.7407965 22.3442393,27.4079204 21.8678466,28.329 C21.4752699,29.0873186 20.8093804,29.523646 20.0325092,29.7743451 C19.5562822,29.9280265 19.054546,30.0003274 18.5640736,30.1082743 C18.509411,30.1203805 18.4540859,30.1276106 18.394454,30.1866283 C18.4375215,30.2017611 18.4797607,30.2219381 18.5241534,30.2320265 C19.1314049,30.3670442 19.7477669,30.4684336 20.3440859,30.641115 C21.6990552,31.032885 22.3878037,31.8947788 22.5173374,33.3175929 C22.5940307,34.1603186 22.6453804,35.0057345 22.7194233,35.8487965 C22.7393006,36.0741062 22.7807117,36.3021062 22.8461411,36.518 C23.0001902,37.0261239 23.3344601,37.2885929 23.8598834,37.2859027 C24.1800736,37.2842212 24.4997669,37.219823 24.869816,37.1777876 C24.7240491,37.2810265 24.6140613,37.3997345 24.4800552,37.4451327 C24.1553926,37.5552655 23.8244356,37.6633805 23.4878466,37.713823 C22.6629387,37.8372389 21.8483006,37.7861239 21.0782209,37.4217611 C20.308638,37.0577345 19.8905521,36.4297257 19.8188282,35.5799381 C19.7476012,34.7368761 19.734681,33.8884336 19.6465583,33.0473894 C19.5980245,32.5858407 19.4958221,32.1162212 19.3315031,31.6837611 C19.0465951,30.9338496 18.4795951,30.4865929 17.6770491,30.4327876 C17.1181656,30.3957965 16.5548098,30.4257257 15.974227,30.4257257 C15.9722393,30.4711239 15.9664417,30.5361947 15.9664417,30.6012655 C15.9659448,32.2688938 15.9548466,33.9368584 15.9710798,35.6044867 C15.978865,36.4014779 16.2402515,37.0853097 17.0033742,37.4607699 C17.1564294,37.5364336 17.3247239,37.5798142 17.4882147,37.639 L11.7370491,37.639 C11.9101472,37.5700619 12.1097485,37.5142389 12.2856626,37.4153717 C12.8581288,37.0942212 13.0989755,36.5566726 13.1735153,35.9264779 C13.2000184,35.7004956 13.207638,35.4708142 13.2078037,35.2428142 C13.2101227,32.3447257 13.1920675,29.4459646 13.2160859,26.5478761 C13.2296687,24.8789027 12.2525337,24.2150796 11.0713252,23.9786726 C10.9437791,23.9534513 10.8145767,23.9374779 10.6862025,23.9171327 C10.6862025,23.9025044 10.6866994,23.8885487 10.6870307,23.8750973 L10.687362,23.8747611 Z M15.9738957,30.1089469 C16.3444417,30.1089469 16.6947791,30.1143274 17.0447853,30.1064248 C17.2028098,30.1030619 17.3621595,30.082885 17.5176994,30.0536283 C18.4482883,29.8764071 18.9846442,29.3546637 19.1254417,28.4350973 C19.2649141,27.5257876 19.2480184,26.6121062 19.0512331,25.7112035 C18.8806196,24.9293451 18.4542515,24.3670796 17.6416012,24.2004513 C17.3583497,24.1421062 17.0651595,24.1152035 16.7756135,24.1093186 C16.5092577,24.1042743 16.2417423,24.1459735 15.9738957,24.1671593 L15.9738957,30.1087788 L15.9738957,30.1089469 Z M32.8442577,37.622354 C33.1843252,37.4777522 33.5217423,37.3588761 33.8364663,37.1942655 C34.2572025,36.974 34.4573006,36.6293097 34.4531595,36.1171504 C34.4344417,33.8173097 34.4448773,31.5176372 34.4448773,29.2177965 C34.4448773,27.8995664 34.4362638,26.5813363 34.4498466,25.2639469 C34.4541534,24.836531 34.2828773,24.5258053 33.9310491,24.3388319 C33.5898221,24.1575752 33.2215951,24.0301239 32.8869939,23.8882124 C32.9191288,23.8882124 32.9877055,23.8885487 33.0559509,23.8882124 C34.2618405,23.8836726 35.4673988,23.8828319 36.6727914,23.8730796 C37.4142147,23.8671947 38.1558037,23.8276814 38.8967301,23.839115 C39.8707178,23.8542478 40.8248282,24.0049027 41.7015828,24.4679646 C42.4375399,24.8570442 43.0134847,25.4056903 43.2296503,26.2531239 C43.5327791,27.4422212 43.1716748,28.4231593 42.1675399,29.165 C41.4287669,29.7107876 40.5826564,29.9846903 39.6956319,30.1509823 C39.6320245,30.1627522 39.5687485,30.1770442 39.5005031,30.2350531 C39.5700736,30.246823 39.6389816,30.261115 39.7087178,30.2695221 C40.5795092,30.3744425 41.4390368,30.5250973 42.2220368,30.9562124 C43.1522945,31.4683717 43.8271288,32.1917168 43.9815092,33.2975841 C44.2071166,34.916115 43.6275276,36.0692301 42.0840552,36.9117876 C40.976227,37.5165929 39.7617239,37.6647257 38.5246933,37.6600177 C36.7034356,37.6537965 34.8821779,37.6351327 33.0610859,37.6216814 L32.8444233,37.6220177 L32.8442577,37.622354 Z M37.2272025,30.3709115 C37.2169325,30.4432124 37.2098098,30.4691062 37.2098098,30.4953363 C37.2089816,32.7272478 37.2098098,34.9591593 37.2056687,37.1912389 C37.2053374,37.3358407 37.2778896,37.3627434 37.3867178,37.3637522 C37.8558221,37.368292 38.3262515,37.3953628 38.7936994,37.3684602 C39.7269387,37.3151593 40.3698037,36.8287257 40.6306933,35.9152124 C40.7726503,35.417177 40.8490123,34.8924071 40.8927423,34.3741947 C40.9586687,33.5894779 40.9545276,32.7982035 40.6802209,32.0447611 C40.3709632,31.1961504 39.8211902,30.5810885 38.9028589,30.4496018 C38.3562331,30.3714159 37.7956933,30.3944513 37.2268712,30.3712478 L37.2272025,30.3709115 Z M37.2081534,30.1516549 C37.777638,30.1106283 38.3224417,30.1121416 38.8526687,30.0238673 C39.6643252,29.8885133 40.188092,29.3832478 40.3384969,28.5543097 C40.5215337,27.5471416 40.5038098,26.5339204 40.2434172,25.539531 C40.0408344,24.7657434 39.5422454,24.2794779 38.7493067,24.1792655 C38.3199571,24.1247876 37.8806687,24.1545487 37.4460184,24.1422743 C37.2631472,24.1368938 37.2028528,24.2068407 37.203681,24.4022212 C37.2114663,26.2292478 37.2081534,28.0567788 37.2081534,29.8841416 L37.2081534,30.1514867 L37.2081534,30.1516549 Z M48.8945153,14.2965752 L48.8945153,21.2251858 L49.1187975,21.2251858 C50.0530307,21.2251858 50.9869325,21.2209823 51.9211656,21.2261947 C53.6627485,21.2362832 54.8977914,20.4002832 55.6869202,18.8654867 C55.941681,18.3698053 56.1068282,17.8263717 56.3200123,17.2871416 L56.5167975,17.2871416 L56.5167975,21.4965664 L44.6566748,21.4965664 C44.8375583,21.4397345 45.036,21.394 45.2211902,21.3161504 C45.7976319,21.0736903 46.0982761,20.6264336 46.135546,19.9957345 C46.1400184,19.9150265 46.1388589,19.8343186 46.1388589,19.7536106 L46.1388589,9.38431858 C46.1388589,8.55117699 45.8244663,8.12544248 45.0326871,7.89071681 C44.9076258,7.85372566 44.780411,7.8239646 44.6285153,7.7839469 L55.7333006,7.7839469 L55.7333006,11.0480796 C55.5686503,11.1027257 55.4845031,11.0665752 55.4240429,10.887 C55.1275399,10.0052655 54.6720184,9.23484071 53.9083988,8.67509735 C53.2847485,8.21825664 52.5872209,8.0450708 51.8351963,8.04338938 C50.8946687,8.04120354 49.9539755,8.04288496 49.0131166,8.04338938 C48.9806503,8.04338938 48.9480184,8.04843363 48.8991534,8.05280531 L48.8991534,13.9949292 C49.3149202,13.9949292 49.7300245,14.0100619 50.143638,13.989885 C50.4058528,13.9764336 50.6720429,13.9352389 50.924816,13.8634425 C51.6871104,13.6465398 52.1522393,13.0960442 52.4379755,12.3787522 C52.5734724,12.0379292 52.6756748,11.6809646 52.7636319,11.3236637 C52.8080245,11.1437522 52.8717975,11.0785133 53.0568221,11.147115 L53.0568221,17.1127788 L52.8207791,17.1127788 C52.7250368,16.7916283 52.6352577,16.4637522 52.5287485,16.1414248 C52.340411,15.5704159 52.0571595,15.062292 51.5663558,14.6962478 C51.2594172,14.4675752 50.9153742,14.3196106 50.5403558,14.3027965 C49.9991963,14.2782478 49.4557178,14.2964071 48.894681,14.2964071 L48.8945153,14.2965752 Z M0.366404908,21.639823 L0.366404908,17.2647788 C0.529895706,17.6380531 0.66390184,17.970469 0.818613497,18.2921239 C1.21019632,19.1050885 1.66787117,19.8719823 2.32879141,20.4964602 C3.01157669,21.1421239 3.80766258,21.5063186 4.74835583,21.4896726 C5.19692025,21.4817699 5.65343558,21.4785752 6.09123313,21.3934956 C7.47767485,21.124469 8.4168773,19.984469 8.46193252,18.5561062 C8.48561963,17.8112389 8.16874233,17.2328319 7.57822086,16.8052478 C7.0541227,16.4252478 6.45482209,16.2167522 5.84674233,16.0225487 C4.93901227,15.7328407 4.02366258,15.4604513 3.13514724,15.1179469 C2.11544172,14.725 1.33658282,14.0376372 0.88106135,12.9981858 C0.506705521,12.1443628 0.567331288,11.3004602 0.924460123,10.4802655 C1.51680368,9.11899115 2.61502454,8.36420354 3.99649693,8.00387611 C4.3582638,7.90971681 4.74156442,7.86263717 5.11542331,7.86045133 C7.36073006,7.84733628 9.60603681,7.85372566 11.8869571,7.85372566 C10.0425092,8.27256637 9.21478528,9.49630088 9.13196319,11.3641858 C9.08558282,11.2851593 9.06040491,11.244469 9.03754601,11.2027699 C8.62741104,10.4491593 8.21595092,9.69706195 7.57689571,9.10772566 C6.26333742,7.89542478 4.52241718,7.90484071 3.29880368,8.61675221 C2.6958589,8.96715929 2.26352761,9.46923009 2.11030675,10.1801327 C1.94234356,10.959469 2.18981595,11.5728496 2.85239264,11.9960619 C3.50602454,12.4140619 4.24546012,12.6052389 4.9822454,12.7977611 C5.9486135,13.0503097 6.92856442,13.2577965 7.83596319,13.7006814 C8.59212883,14.0700885 9.2793865,14.5329823 9.73921472,15.2667522 C10.4236564,16.3588319 10.3941718,17.5102655 9.93533742,18.6665752 C9.2793865,20.3189027 8.0047546,21.2337611 6.34367485,21.6275487 C5.13397546,21.9143982 3.94017791,21.7842566 2.76807975,21.3746637 C2.41956442,21.2527611 2.0561411,21.1661681 1.69371166,21.094708 C1.16994479,20.9918053 0.702,21.0849558 0.366570552,21.6399912 L0.366404908,21.639823 Z M54.5207853,23.8986372 L59.0755031,23.8986372 C58.7140675,24.0439115 58.2833926,24.1753982 57.8918098,24.382885 C56.943,24.8856283 56.4520307,25.6797611 56.4589877,26.792354 C56.4725706,28.9707965 56.4661104,31.1494071 56.4609755,33.3280177 C56.459319,33.9531681 56.4121104,34.5722655 56.2356994,35.1802655 C55.9010982,36.3320354 55.1916442,37.1149027 54.0851411,37.5389558 C53.3988773,37.8019292 52.6880982,37.8886903 51.962411,37.8920531 C51.0331472,37.8964248 50.1076933,37.8449735 49.2118896,37.5703982 C48.335135,37.3013717 47.5468344,36.884885 46.9790061,36.116646 C46.5504847,35.5365575 46.3740736,34.8678584 46.2985399,34.1662035 C46.256135,33.7730885 46.2364233,33.3756018 46.2355951,32.9797965 C46.2297975,30.7070265 46.236092,28.4342566 46.2281411,26.1616549 C46.2271472,25.8825398 46.1945153,25.5955221 46.1246135,25.3259912 C45.9478712,24.6446814 45.5100736,24.1986018 44.849816,23.9788407 C44.8120491,23.9662301 44.7739509,23.9544602 44.7355215,23.9440354 C44.7060368,23.9356283 44.6755583,23.9300796 44.6517055,23.8974602 L50.5196503,23.8974602 L50.5229632,23.9176372 C50.4368282,23.943531 50.3496994,23.9652212 50.2652209,23.9959912 C49.5269448,24.265354 49.1554049,24.8299735 49.0381288,25.5896372 C49.0066564,25.7944336 48.997546,26.0044425 48.9972147,26.2117611 C48.9942331,28.4917611 48.9879387,30.7710885 48.9992025,33.0504159 C49.0033436,33.9028938 49.0283558,34.7587345 49.2791411,35.5848142 C49.537546,36.4356106 50.0102945,37.112885 50.8671718,37.4172212 C51.1923313,37.5329027 51.5496258,37.5816637 51.8958221,37.6038584 C52.5062209,37.6435398 53.1133067,37.5813274 53.7018405,37.3977168 C55.0326258,36.9820708 55.7757055,36.0391327 56.0271534,34.6783628 C56.1000368,34.2842389 56.1378037,33.8780088 56.1397914,33.4773274 C56.1497301,31.1240177 56.1522147,28.7703717 56.1406196,26.4170619 C56.1361472,25.513469 55.8514049,24.7245487 55.0743681,24.1952389 C54.9073988,24.0822478 54.7182331,24.0032212 54.520454,23.8983009 L54.5207853,23.8986372 Z M31.3359018,7.77738938 L37.2573497,7.77738938 C37.2614908,7.78663717 37.2656319,7.79588496 37.2701043,7.8049646 C37.2161043,7.82816814 37.1624356,7.85204425 37.1081043,7.8749115 C36.6890245,8.04910619 36.2914785,8.25726549 35.9694663,8.59186726 C35.7408773,8.82928319 35.617638,9.10537168 35.617638,9.44030973 C35.6187975,13.3072301 35.6183006,17.1739823 35.6187975,21.0407345 C35.6187975,21.093531 35.6264172,21.1461593 35.6320491,21.2250177 L35.8520245,21.2250177 C36.7928834,21.2250177 37.7337423,21.2398142 38.6742699,21.2216549 C40.1753374,21.1922301 41.3999448,20.6155044 42.2169018,19.289708 C42.4128589,18.9719204 42.5912577,18.6400088 42.7463006,18.2996903 C42.8975337,17.9667699 43.0085153,17.615354 43.1435153,17.2548584 L43.1435153,21.493708 L31.3029387,21.493708 C31.5106564,21.4146814 31.7589571,21.342885 31.9867178,21.228885 C32.5444417,20.9497699 32.8527055,20.4941062 32.8553558,19.8506283 C32.8676135,16.9863363 32.8795399,14.1223805 32.8871595,11.2580885 C32.888816,10.6870796 32.8512147,10.1153982 32.8656258,9.54472566 C32.8924601,8.48341593 32.2444601,8.04019469 31.511816,7.84414159 C31.4510245,7.82783186 31.3905644,7.81051327 31.3296074,7.7940354 L31.3362331,7.77722124 L31.3359018,7.77738938 Z M68.2347975,23.900823 L68.2347975,27.3201504 C67.1663926,24.2520708 65.298589,24.097885 63.6713006,24.1950708 L63.6713006,35.7282389 C63.6713006,36.6210708 64.1665767,37.2896018 65.0163313,37.545177 C65.0590675,37.5579558 65.1003129,37.5754425 65.180319,37.6046991 L59.3860859,37.6046991 C59.4482025,37.5801504 59.4821595,37.563 59.517773,37.5534159 C60.3334049,37.336177 60.7340982,36.7560885 60.8363006,35.9476637 C60.887319,35.5429469 60.8843374,35.129823 60.8864908,34.7202301 C60.8954356,32.8844602 60.9004049,31.0486903 60.9005706,29.2129204 C60.9005706,27.512 60.8927853,25.8109115 60.8889755,24.109823 C60.8889755,24.0439115 60.8942761,23.9783363 60.8977546,23.900823 L68.2351288,23.900823 L68.2347975,23.900823 Z M25.5486258,23.8971239 L31.5091656,23.8971239 L31.5152945,23.9189823 C31.4079571,23.9502566 31.2971411,23.972115 31.1942761,24.0144867 C30.9499509,24.1153717 30.6986687,24.2056637 30.470411,24.3363097 C30.0904233,24.5537168 29.9072209,24.8861327 29.9080491,25.3478496 C29.9163313,28.8781504 29.9168282,32.4084513 29.9090429,35.9387522 C29.9073865,36.6715133 29.9540982,37.0059469 30.9207975,37.4099912 C31.108638,37.4886814 31.3093988,37.5347522 31.540638,37.6073894 L25.4835276,37.6073894 C25.6503313,37.5485398 25.7811902,37.5132301 25.9032699,37.4577434 C26.1379877,37.3509735 26.3776748,37.2497522 26.5976503,37.1160796 C26.9748221,36.8870708 27.169454,36.5591947 27.1681288,36.0863805 C27.1581902,32.5362389 27.1543804,28.9857611 27.1697853,25.4357876 C27.1730982,24.7699469 26.8711288,24.3751504 26.3001534,24.1444602 C26.0646074,24.049292 25.8164724,23.9843894 25.5484601,23.897292 L25.5486258,23.8971239 Z M71.9811718,3.91517699 C71.8743313,5.02659292 72.1252822,5.97558407 72.6707485,6.84823894 C72.7694724,7.00595575 72.8898957,7.15173451 73.0124724,7.29213274 C73.2857853,7.60487611 73.2847914,7.93409735 73.0190982,8.24835398 C72.2409018,9.16859292 71.886092,10.2354513 71.9725583,11.4470796 C72.0080061,11.9452832 71.8408712,12.1724425 71.3629877,12.2956903 C70.2130859,12.5919558 69.3189387,13.2498938 68.6994294,14.2807699 C68.4738221,14.6563982 68.179638,14.7470265 67.772816,14.5790531 C66.6663129,14.1225487 65.5548405,14.1225487 64.4483374,14.5782124 C64.0329018,14.7493805 63.7463374,14.6538761 63.5107914,14.265469 C62.8839939,13.2307257 61.9805706,12.574469 60.8203988,12.2864425 C60.4029755,12.1828673 60.2119877,11.9442743 60.2456135,11.5101327 C60.3423497,10.2608407 59.9877055,9.16455752 59.1760491,8.22010619 C58.9347055,7.93930973 58.9416626,7.59546018 59.193773,7.30827434 C59.9232699,6.47765487 60.2469387,5.49200885 60.2701288,4.39353982 C60.2734417,4.23969027 60.2449509,4.08550442 60.2424663,3.93115044 C60.2374969,3.60764602 60.4412393,3.34820354 60.7516564,3.27707965 C61.9790798,2.99628319 62.9126503,2.30606195 63.5550184,1.20759292 C63.7276196,0.912504425 64.0695092,0.807752212 64.3848957,0.943274336 C65.534135,1.43761062 66.6840368,1.43710619 67.8332761,0.943778761 C68.1589325,0.804221239 68.4902209,0.915699115 68.6727607,1.22457522 C69.3162883,2.31161062 70.2460491,2.99779646 71.4663497,3.2769115 C71.7973067,3.35257522 71.9939264,3.62950442 71.9808405,3.91500885 L71.9811718,3.91517699 Z M68.820184,12.0907257 C68.6810429,11.9888319 68.5163926,11.9003894 68.3944785,11.7707522 C68.1966994,11.5609115 68.1536319,11.2828053 68.1534663,11.0016726 C68.1521411,9.11932743 68.152638,7.2369823 68.1534663,5.35430088 C68.1534663,5.31007965 68.1637362,5.26585841 68.1696994,5.21743363 C69.171184,5.13723009 69.9334785,5.52782301 70.4862331,6.33927434 L70.4862331,5.07081416 L66.7261104,5.07081416 L66.7261104,5.32840708 C66.7261104,7.17073451 66.721638,9.01289381 66.7285951,10.8552212 C66.7307485,11.4168142 66.6002209,11.8812212 66.0153313,12.0910619 C66.955362,12.0907257 67.8957239,12.0907257 68.8200184,12.0907257 L68.820184,12.0907257 Z M66.0711534,5.06324779 L64.7357301,5.06324779 C64.311681,5.06324779 63.8879632,5.06240708 63.4640798,5.06358407 C63.0754785,5.06476106 62.7198405,5.17287611 62.4059448,5.40911504 C61.616319,6.00332743 61.6920184,7.06026549 62.5638037,7.5159292 C62.779638,7.6290885 63.0165092,7.70155752 63.246589,7.78495575 C63.5326564,7.88853097 63.8296564,7.96436283 64.1062822,8.08861947 C64.3961595,8.21909735 64.581681,8.44961947 64.566773,8.79851327 C64.5480552,9.24072566 64.2710982,9.62913274 63.8462209,9.73119469 C63.1528344,9.89765487 62.644638,9.77659292 62.2333436,9.18977876 C62.092546,8.9890177 61.9890184,8.7610177 61.8689264,8.54529204 C61.8424233,8.4970354 61.8170798,8.44776991 61.773681,8.36638938 L61.773681,9.83258407 C61.9376687,9.64006195 62.1198773,9.62745133 62.3166626,9.68529204 C62.4753497,9.73186726 62.6330429,9.78365487 62.7937178,9.82232743 C63.5444172,10.0030796 64.2290245,9.89799115 64.7884049,9.31369912 C65.460092,8.61254867 65.3229387,7.62169027 64.4803067,7.16030973 C64.2391288,7.02831858 63.9646564,6.95736283 63.7026074,6.86639823 C63.3597239,6.74735398 63.0019325,6.6629469 62.6729632,6.51397345 C62.3681779,6.37609735 62.2712761,6.04923009 62.4321166,5.74926549 C62.5190798,5.58700885 62.661865,5.43013274 62.8177362,5.33614159 C63.364362,5.00658407 64.0605644,5.18212389 64.4543006,5.72824779 C64.5773742,5.89874336 64.6828896,6.0820177 64.8094417,6.27924779 C64.8713926,5.50815044 65.3676626,5.21154867 66.0709877,5.06358407 L66.0711534,5.06324779 Z" id="Shape"></path>
                </g>
            </g>
        </g>
    </g>
</svg>