<?xml version="1.0" encoding="UTF-8"?>
<svg width="102px" height="102px" viewBox="0 0 102 102" version="1.1" xmlns="http://www.w3.org/2000/svg" xmlns:xlink="http://www.w3.org/1999/xlink">
    <!-- Generator: Sketch 63.1 (92452) - https://sketch.com -->
    <title>workoutsesh_logo</title>
    <desc>Created with Sketch.</desc>
    <defs>
        <linearGradient x1="0%" y1="50%" x2="100%" y2="20.9408011%" id="linearGradient-1">
            <stop stop-color="#C16689" offset="0%"></stop>
            <stop stop-color="#B66EC8" offset="53.0405405%"></stop>
            <stop stop-color="#6872C2" offset="100%"></stop>
        </linearGradient>
    </defs>
    <g id="workoutsesh_logo" stroke="none" stroke-width="1" fill="none" fill-rule="evenodd">
        <path d="M17.4271944,4.86167916 C29.413634,1.62055972 40.9614354,0 52.0705984,0 C62.9290252,0 73.7807544,1.54823247 84.6257859,4.64469741 C90.6999987,6.37899919 95.4205464,11.1704985 97.0640461,17.269906 C100.354682,29.4822169 102,41.1566242 102,52.293128 C102,63.2379102 100.410845,74.1743866 97.232534,85.1025572 C95.5173772,90.9998871 90.9137015,95.6156885 85.0209041,97.3463537 C74.4573377,100.448785 63.4739024,102 52.0705984,102 C40.3905479,102 28.7034571,100.372578 17.0093261,97.1177343 C11.0228812,95.4515174 6.31921607,90.8153918 4.56659871,84.8536695 C1.52219957,74.4978081 0,63.6442943 0,52.293128 C0,40.6999144 1.58780914,29.098402 4.76342742,17.4885909 C6.44741651,11.3320625 11.265784,6.5277174 17.4271944,4.86167916 Z" id="Rectangle-Copy-4" fill="#1F2026" fill-rule="nonzero"></path>
        <polygon id="Path" fill="url(#linearGradient-1)" fill-rule="nonzero" points="42.7996829 74 51.3440803 43.2515593 51.6247357 43.2515593 60.1691332 74 69.0565539 74 81 29 71.2394292 29 64.1294926 61.5883576 63.8800211 61.5883576 55.4603594 29 47.5084567 29 39.0887949 61.5883576 38.8393235 61.5883576 31.7605708 29 22 29 33.9122622 74"></polygon>
    </g>
</svg>