<?xml version="1.0" encoding="UTF-8"?>
<svg width="102px" height="102px" viewBox="0 0 102 102" version="1.1" xmlns="http://www.w3.org/2000/svg" xmlns:xlink="http://www.w3.org/1999/xlink">
    <!-- Generator: Sketch 63.1 (92452) - https://sketch.com -->
    <title>xanpool_logo</title>
    <desc>Created with Sketch.</desc>
    <defs>
        <linearGradient x1="0%" y1="0%" x2="156.802924%" y2="157.646082%" id="linearGradient-1">
            <stop stop-color="#6A3BD9" offset="0%"></stop>
            <stop stop-color="#4D74E4" offset="100%"></stop>
        </linearGradient>
        <radialGradient cx="50%" cy="46.315893%" fx="50%" fy="46.315893%" r="26.707252%" gradientTransform="translate(0.500000,0.463159),scale(0.976190,1.000000),rotate(148.669577),scale(1.000000,1.463482),translate(-0.500000,-0.463159)" id="radialGradient-2">
            <stop stop-color="#CACACA" offset="0%"></stop>
            <stop stop-color="#FFFFFF" offset="100%"></stop>
        </radialGradient>
    </defs>
    <g id="xanpool_logo" stroke="none" stroke-width="1" fill="none" fill-rule="evenodd">
        <path d="M17.4271944,4.86167916 C29.413634,1.62055972 40.9614354,0 52.0705984,0 C62.9290252,0 73.7807544,1.54823247 84.6257859,4.64469741 C90.6999987,6.37899919 95.4205464,11.1704985 97.0640461,17.269906 C100.354682,29.4822169 102,41.1566242 102,52.293128 C102,63.2379102 100.410845,74.1743866 97.232534,85.1025572 C95.5173772,90.9998871 90.9137015,95.6156885 85.0209041,97.3463537 C74.4573377,100.448785 63.4739024,102 52.0705984,102 C40.3905479,102 28.7034571,100.372578 17.0093261,97.1177343 C11.0228812,95.4515174 6.31921607,90.8153918 4.56659871,84.8536695 C1.52219957,74.4978081 0,63.6442943 0,52.293128 C0,40.6999144 1.58780914,29.098402 4.76342742,17.4885909 C6.44741651,11.3320625 11.265784,6.5277174 17.4271944,4.86167916 Z" id="Rectangle-Copy-4" fill="url(#linearGradient-1)" fill-rule="nonzero"></path>
        <g id="Group" transform="translate(30.000000, 31.000000)">
            <path d="M27.5482868,0 L38.3910505,0 C39.49562,-9.75082414e-15 40.3910505,0.8954305 40.3910505,2 C40.3910505,2.374912 40.2856708,2.74227537 40.0869339,3.0601789 L16.9564415,40.0601789 C16.5909426,40.6448382 15.9500622,41 15.260558,41 L3.67096416,41 C2.56639467,41 1.67096416,40.1045695 1.67096416,39 C1.67096416,38.6153059 1.78191018,38.2387743 1.99050236,37.9155425 L25.8678249,0.915542472 C26.2361528,0.344786177 26.8690017,1.01296106e-15 27.5482868,0 Z" id="Rectangle-Copy-22" fill="url(#radialGradient-2)" transform="translate(21.000000, 20.500000) scale(-1, 1) translate(-21.000000, -20.500000) "></path>
            <path d="M27.5482868,0 L38.3910505,0 C39.49562,-9.75082414e-15 40.3910505,0.8954305 40.3910505,2 C40.3910505,2.374912 40.2856708,2.74227537 40.0869339,3.0601789 L16.9564415,40.0601789 C16.5909426,40.6448382 15.9500622,41 15.260558,41 L3.67096416,41 C2.56639467,41 1.67096416,40.1045695 1.67096416,39 C1.67096416,38.6153059 1.78191018,38.2387743 1.99050236,37.9155425 L25.8678249,0.915542472 C26.2361528,0.344786177 26.8690017,1.01296106e-15 27.5482868,0 Z" id="Rectangle-Copy-23" fill="#FFFFFF"></path>
        </g>
    </g>
</svg>